<?xml version="1.0" encoding="UTF-8" standalone="no"?>
<!-- Created with Inkscape (http://www.inkscape.org/) -->

<svg
   xmlns:dc="http://purl.org/dc/elements/1.1/"
   xmlns:cc="http://creativecommons.org/ns#"
   xmlns:rdf="http://www.w3.org/1999/02/22-rdf-syntax-ns#"
   xmlns:svg="http://www.w3.org/2000/svg"
   xmlns="http://www.w3.org/2000/svg"
   xmlns:xlink="http://www.w3.org/1999/xlink"
   xmlns:sodipodi="http://sodipodi.sourceforge.net/DTD/sodipodi-0.dtd"
   xmlns:inkscape="http://www.inkscape.org/namespaces/inkscape"
   width="299.18225"
   height="91.365692"
   id="svg2"
   version="1.1"
   inkscape:version="0.92.4 (5da689c313, 2019-01-14)"
   sodipodi:docname="wagen_feder_wagen.svg"
   inkscape:export-filename="/media/workcard/workstickdir/projekte/python_kurs_fuer_studenten/2022_clt_workshop/2022-kompaktworkshop-material/img/wagen_feder_wagen.svg.png"
   inkscape:export-xdpi="150"
   inkscape:export-ydpi="150">
  <sodipodi:namedview
     id="base"
     pagecolor="#ffffff"
     bordercolor="#666666"
     borderopacity="1.0"
     inkscape:pageopacity="0.0"
     inkscape:pageshadow="2"
     inkscape:zoom="2.8"
     inkscape:cx="146.26207"
     inkscape:cy="60.023997"
     inkscape:document-units="px"
     inkscape:current-layer="layer1"
     showgrid="false"
     inkscape:window-width="1920"
     inkscape:window-height="1021"
     inkscape:window-x="0"
     inkscape:window-y="0"
     inkscape:window-maximized="1"
     fit-margin-top="0"
     fit-margin-left="0"
     fit-margin-right="0"
     fit-margin-bottom="0"
     showguides="true"
     inkscape:guide-bbox="true"
     inkscape:snap-global="true">
    <inkscape:grid
       spacingy="1"
       spacingx="1"
       originy="-928.07645"
       originx="-28.76218"
       snapvisiblegridlinesonly="true"
       enabled="true"
       visible="true"
       empspacing="5"
       id="grid3761"
       type="xygrid" />
    <sodipodi:guide
       inkscape:locked="false"
       id="guide3113"
       position="121.22338,55.684659"
       orientation="0,1" />
  </sodipodi:namedview>
  <defs
     id="defs4">
    <marker
       inkscape:stockid="Arrow2Mstart"
       orient="auto"
       refY="0"
       refX="0"
       id="Arrow2Mstart"
       style="overflow:visible">
      <path
         id="path3815"
         style="fill-rule:evenodd;stroke-width:0.625;stroke-linejoin:round"
         d="M 8.7185878,4.0337352 -2.2072895,0.01601326 8.7185884,-4.0017078 c -1.7454984,2.3720609 -1.7354408,5.6174519 -6e-7,8.035443 z"
         transform="scale(0.6)"
         inkscape:connector-curvature="0" />
    </marker>
    <defs
       id="defs4977">
      <g
         id="g4979">
        <symbol
           style="overflow:visible"
           overflow="visible"
           id="textext-cafcb1a5-0">
          <path
             inkscape:connector-curvature="0"
             style="stroke:none"
             d="m 4.5,-4.296875 c 0,-0.046875 -0.03125,-0.09375 -0.09375,-0.09375 -0.109375,0 -0.515625,0.390625 -0.671875,0.6875 C 3.515625,-4.25 3.125,-4.40625 2.796875,-4.40625 c -1.171875,0 -2.390625,1.46875 -2.390625,2.921875 0,0.96875 0.578125,1.59375 1.3125,1.59375 0.421875,0 0.8125,-0.234375 1.171875,-0.59375 -0.09375,0.34375 -0.421875,1.6875 -0.453125,1.78125 -0.078125,0.28125 -0.15625,0.3125 -0.71875,0.328125 -0.125,0 -0.21875,0 -0.21875,0.203125 0,0 0,0.109375 0.125,0.109375 0.3125,0 0.671875,-0.03125 1,-0.03125 0.328125,0 0.6875,0.03125 1.03125,0.03125 0.046875,0 0.171875,0 0.171875,-0.203125 C 3.828125,1.625 3.734375,1.625 3.5625,1.625 3.09375,1.625 3.09375,1.5625 3.09375,1.46875 3.09375,1.390625 3.109375,1.328125 3.125,1.25 Z m -2.75,4.1875 c -0.609375,0 -0.640625,-0.765625 -0.640625,-0.9375 0,-0.484375 0.28125,-1.5625 0.453125,-1.984375 0.3125,-0.734375 0.828125,-1.15625 1.234375,-1.15625 0.65625,0 0.796875,0.8125 0.796875,0.875 0,0.0625 -0.546875,2.25 -0.578125,2.28125 C 2.859375,-0.75 2.296875,-0.109375 1.75,-0.109375 Z m 0,0"
             id="path4982" />
        </symbol>
        <symbol
           style="overflow:visible"
           overflow="visible"
           id="textext-cafcb1a5-1">
          <path
             inkscape:connector-curvature="0"
             style="stroke:none"
             d="M 3.484375,-0.5625 C 3.59375,-0.15625 3.953125,0.109375 4.375,0.109375 4.71875,0.109375 4.953125,-0.125 5.109375,-0.4375 5.28125,-0.796875 5.40625,-1.40625 5.40625,-1.421875 c 0,-0.109375 -0.078125,-0.109375 -0.109375,-0.109375 -0.109375,0 -0.109375,0.046875 -0.140625,0.1875 -0.140625,0.5625 -0.328125,1.234375 -0.75,1.234375 -0.203125,0 -0.3125,-0.125 -0.3125,-0.453125 0,-0.21875 0.125,-0.6875 0.203125,-1.046875 L 4.578125,-2.6875 C 4.609375,-2.828125 4.703125,-3.203125 4.75,-3.359375 4.796875,-3.59375 4.890625,-3.96875 4.890625,-4.03125 c 0,-0.171875 -0.140625,-0.265625 -0.28125,-0.265625 -0.046875,0 -0.3125,0.015625 -0.390625,0.34375 -0.1875,0.734375 -0.625,2.484375 -0.75,3 -0.015625,0.046875 -0.40625,0.84375 -1.140625,0.84375 -0.515625,0 -0.609375,-0.453125 -0.609375,-0.8125 0,-0.5625 0.28125,-1.34375 0.53125,-2.03125 0.125,-0.3125 0.171875,-0.453125 0.171875,-0.640625 0,-0.4375 -0.3125,-0.8125 -0.8125,-0.8125 -0.953125,0 -1.3125,1.453125 -1.3125,1.53125 0,0.109375 0.09375,0.109375 0.109375,0.109375 0.109375,0 0.109375,-0.03125 0.15625,-0.1875 0.25,-0.859375 0.640625,-1.234375 1.015625,-1.234375 0.09375,0 0.25,0.015625 0.25,0.328125 0,0.234375 -0.109375,0.53125 -0.171875,0.671875 -0.375,1 -0.578125,1.609375 -0.578125,2.09375 0,0.953125 0.6875,1.203125 1.21875,1.203125 0.65625,0 1.015625,-0.453125 1.1875,-0.671875 z m 0,0"
             id="path4985" />
        </symbol>
        <symbol
           style="overflow:visible"
           overflow="visible"
           id="textext-cafcb1a5-2">
          <path
             inkscape:connector-curvature="0"
             style="stroke:none"
             d="m 3.953125,-3.78125 c -0.171875,0 -0.296875,0 -0.4375,0.125 -0.171875,0.15625 -0.1875,0.328125 -0.1875,0.390625 0,0.25 0.1875,0.359375 0.375,0.359375 0.28125,0 0.546875,-0.25 0.546875,-0.640625 0,-0.484375 -0.46875,-0.859375 -1.171875,-0.859375 -1.34375,0 -2.671875,1.421875 -2.671875,2.828125 0,0.90625 0.578125,1.6875 1.625,1.6875 1.421875,0 2.25,-1.0625 2.25,-1.171875 0,-0.0625 -0.046875,-0.140625 -0.109375,-0.140625 -0.0625,0 -0.078125,0.03125 -0.140625,0.109375 -0.78125,0.984375 -1.875,0.984375 -1.984375,0.984375 -0.625,0 -0.90625,-0.484375 -0.90625,-1.09375 0,-0.40625 0.203125,-1.375 0.546875,-1.984375 0.3125,-0.578125 0.859375,-1 1.40625,-1 0.328125,0 0.71875,0.125 0.859375,0.40625 z m 0,0"
             id="path4988" />
        </symbol>
        <symbol
           style="overflow:visible"
           overflow="visible"
           id="textext-cafcb1a5-3">
          <path
             inkscape:connector-curvature="0"
             style="stroke:none"
             d="m 5.140625,-6.8125 c 0,0 0,-0.109375 -0.125,-0.109375 -0.15625,0 -1.09375,0.09375 -1.265625,0.109375 -0.078125,0.015625 -0.140625,0.0625 -0.140625,0.1875 0,0.125 0.09375,0.125 0.234375,0.125 0.484375,0 0.5,0.0625 0.5,0.171875 L 4.3125,-6.125 3.71875,-3.765625 C 3.53125,-4.140625 3.25,-4.40625 2.796875,-4.40625 c -1.15625,0 -2.390625,1.46875 -2.390625,2.921875 0,0.9375 0.546875,1.59375 1.3125,1.59375 0.203125,0 0.703125,-0.046875 1.296875,-0.75 0.078125,0.421875 0.4375,0.75 0.90625,0.75 0.359375,0 0.578125,-0.234375 0.75,-0.546875 0.15625,-0.359375 0.296875,-0.96875 0.296875,-0.984375 0,-0.109375 -0.09375,-0.109375 -0.125,-0.109375 -0.09375,0 -0.109375,0.046875 -0.140625,0.1875 -0.171875,0.640625 -0.34375,1.234375 -0.75,1.234375 -0.28125,0 -0.296875,-0.265625 -0.296875,-0.453125 0,-0.25 0.015625,-0.3125 0.046875,-0.484375 z m -2.0625,5.625 C 3.015625,-1 3.015625,-0.984375 2.875,-0.8125 2.4375,-0.265625 2.03125,-0.109375 1.75,-0.109375 c -0.5,0 -0.640625,-0.546875 -0.640625,-0.9375 0,-0.5 0.3125,-1.71875 0.546875,-2.1875 0.3125,-0.578125 0.75,-0.953125 1.15625,-0.953125 0.640625,0 0.78125,0.8125 0.78125,0.875 0,0.0625 -0.015625,0.125 -0.03125,0.171875 z m 0,0"
             id="path4991" />
        </symbol>
        <symbol
           style="overflow:visible"
           overflow="visible"
           id="textext-cafcb1a5-4">
          <path
             inkscape:connector-curvature="0"
             style="stroke:none"
             d="m 0.875,-0.59375 c -0.03125,0.15625 -0.09375,0.390625 -0.09375,0.4375 0,0.171875 0.140625,0.265625 0.296875,0.265625 0.125,0 0.296875,-0.078125 0.375,-0.28125 0,-0.015625 0.125,-0.484375 0.1875,-0.734375 l 0.21875,-0.890625 C 1.90625,-2.03125 1.96875,-2.25 2.03125,-2.46875 c 0.03125,-0.171875 0.109375,-0.46875 0.125,-0.5 0.140625,-0.3125 0.671875,-1.21875 1.625,-1.21875 0.453125,0 0.53125,0.375 0.53125,0.703125 0,0.25 -0.0625,0.53125 -0.140625,0.828125 L 3.890625,-1.5 3.6875,-0.75 c -0.03125,0.203125 -0.125,0.546875 -0.125,0.59375 0,0.171875 0.140625,0.265625 0.28125,0.265625 0.3125,0 0.375,-0.25 0.453125,-0.5625 0.140625,-0.5625 0.515625,-2.015625 0.59375,-2.40625 0.03125,-0.125 0.5625,-1.328125 1.65625,-1.328125 0.421875,0 0.53125,0.34375 0.53125,0.703125 0,0.5625 -0.421875,1.703125 -0.625,2.234375 -0.078125,0.234375 -0.125,0.34375 -0.125,0.546875 0,0.46875 0.34375,0.8125 0.8125,0.8125 0.9375,0 1.3125,-1.453125 1.3125,-1.53125 0,-0.109375 -0.09375,-0.109375 -0.125,-0.109375 -0.09375,0 -0.09375,0.03125 -0.140625,0.1875 -0.15625,0.53125 -0.46875,1.234375 -1.015625,1.234375 -0.171875,0 -0.25,-0.09375 -0.25,-0.328125 0,-0.25 0.09375,-0.484375 0.1875,-0.703125 0.1875,-0.53125 0.609375,-1.625 0.609375,-2.203125 0,-0.640625 -0.40625,-1.0625 -1.15625,-1.0625 -0.734375,0 -1.25,0.4375 -1.625,0.96875 0,-0.125 -0.03125,-0.46875 -0.3125,-0.703125 -0.25,-0.21875 -0.5625,-0.265625 -0.8125,-0.265625 -0.90625,0 -1.390625,0.640625 -1.5625,0.875 -0.046875,-0.578125 -0.46875,-0.875 -0.921875,-0.875 -0.453125,0 -0.640625,0.390625 -0.734375,0.5625 -0.171875,0.359375 -0.296875,0.9375 -0.296875,0.96875 0,0.109375 0.09375,0.109375 0.109375,0.109375 0.109375,0 0.109375,-0.015625 0.171875,-0.234375 0.171875,-0.703125 0.375,-1.1875 0.734375,-1.1875 0.15625,0 0.296875,0.078125 0.296875,0.453125 0,0.21875 -0.03125,0.328125 -0.15625,0.84375 z m 0,0"
             id="path4994" />
        </symbol>
        <symbol
           style="overflow:visible"
           overflow="visible"
           id="textext-cafcb1a5-5">
          <path
             inkscape:connector-curvature="0"
             style="stroke:none"
             d="m 2.328125,-4.4375 c 0,-0.1875 0,-0.1875 -0.203125,-0.1875 -0.453125,0.4375 -1.078125,0.4375 -1.359375,0.4375 v 0.25 c 0.15625,0 0.625,0 1,-0.1875 v 3.546875 c 0,0.234375 0,0.328125 -0.6875,0.328125 H 0.8125 V 0 c 0.125,0 0.984375,-0.03125 1.234375,-0.03125 0.21875,0 1.09375,0.03125 1.25,0.03125 V -0.25 H 3.03125 c -0.703125,0 -0.703125,-0.09375 -0.703125,-0.328125 z m 0,0"
             id="path4997" />
        </symbol>
        <symbol
           style="overflow:visible"
           overflow="visible"
           id="textext-cafcb1a5-6">
          <path
             inkscape:connector-curvature="0"
             style="stroke:none"
             d="M 3.515625,-1.265625 H 3.28125 c -0.015625,0.15625 -0.09375,0.5625 -0.1875,0.625 C 3.046875,-0.59375 2.515625,-0.59375 2.40625,-0.59375 H 1.125 c 0.734375,-0.640625 0.984375,-0.84375 1.390625,-1.171875 0.515625,-0.40625 1,-0.84375 1,-1.5 0,-0.84375 -0.734375,-1.359375 -1.625,-1.359375 -0.859375,0 -1.453125,0.609375 -1.453125,1.25 0,0.34375 0.296875,0.390625 0.375,0.390625 0.15625,0 0.359375,-0.125 0.359375,-0.375 0,-0.125 -0.046875,-0.375 -0.40625,-0.375 C 0.984375,-4.21875 1.453125,-4.375 1.78125,-4.375 c 0.703125,0 1.0625,0.546875 1.0625,1.109375 0,0.609375 -0.4375,1.078125 -0.65625,1.328125 L 0.515625,-0.265625 C 0.4375,-0.203125 0.4375,-0.1875 0.4375,0 h 2.875 z m 0,0"
             id="path5000" />
        </symbol>
        <symbol
           style="overflow:visible"
           overflow="visible"
           id="textext-cafcb1a5-7">
          <path
             inkscape:connector-curvature="0"
             style="stroke:none"
             d="M 3.59375,-2.21875 C 3.59375,-2.984375 3.5,-3.546875 3.1875,-4.03125 2.96875,-4.34375 2.53125,-4.625 1.984375,-4.625 c -1.625,0 -1.625,1.90625 -1.625,2.40625 0,0.5 0,2.359375 1.625,2.359375 1.609375,0 1.609375,-1.859375 1.609375,-2.359375 z M 1.984375,-0.0625 c -0.328125,0 -0.75,-0.1875 -0.890625,-0.75 C 1,-1.21875 1,-1.796875 1,-2.3125 1,-2.828125 1,-3.359375 1.09375,-3.734375 1.25,-4.28125 1.6875,-4.4375 1.984375,-4.4375 c 0.375,0 0.734375,0.234375 0.859375,0.640625 0.109375,0.375 0.125,0.875 0.125,1.484375 0,0.515625 0,1.03125 -0.09375,1.46875 -0.140625,0.640625 -0.609375,0.78125 -0.890625,0.78125 z m 0,0"
             id="path5003" />
        </symbol>
      </g>
    </defs>
    <marker
       inkscape:stockid="Arrow2Mstart"
       orient="auto"
       refY="0"
       refX="0"
       id="Arrow2Mstart-9"
       style="overflow:visible">
      <path
         id="path4358"
         style="font-size:12px;fill-rule:evenodd;stroke-width:0.625;stroke-linejoin:round"
         d="M 8.7185878,4.0337352 -2.2072895,0.01601326 8.7185884,-4.0017078 c -1.7454984,2.3720609 -1.7354408,5.6174519 -6e-7,8.035443 z"
         transform="scale(0.6)"
         inkscape:connector-curvature="0" />
    </marker>
    <marker
       inkscape:stockid="Arrow2Mstart"
       orient="auto"
       refY="0"
       refX="0"
       id="marker3182"
       style="overflow:visible">
      <path
         id="path3184"
         style="font-size:12px;fill-rule:evenodd;stroke-width:0.625;stroke-linejoin:round"
         d="M 8.7185878,4.0337352 -2.2072895,0.01601326 8.7185884,-4.0017078 c -1.7454984,2.3720609 -1.7354408,5.6174519 -6e-7,8.035443 z"
         transform="scale(0.6)"
         inkscape:connector-curvature="0" />
    </marker>
  </defs>
  <metadata
     id="metadata7">
    <rdf:RDF>
      <cc:Work
         rdf:about="">
        <dc:format>image/svg+xml</dc:format>
        <dc:type
           rdf:resource="http://purl.org/dc/dcmitype/StillImage" />
        <dc:title></dc:title>
      </cc:Work>
    </rdf:RDF>
  </metadata>
  <g
     inkscape:label="Layer 1"
     inkscape:groupmode="layer"
     id="layer1"
     transform="translate(-28.76218,-32.92003)">
    <rect
       style="fill:none;stroke:#000000;stroke-width:1;stroke-linecap:round;stroke-miterlimit:4;stroke-dasharray:none;stroke-dashoffset:0;stroke-opacity:1"
       id="rect2985"
       width="65.999992"
       height="54"
       x="100.45505"
       y="64.250015" />
    <path
       style="fill:none;stroke:#000000;stroke-width:1px;stroke-linecap:butt;stroke-linejoin:miter;stroke-opacity:1"
       d="m 166.45505,90.250017 h 6 v 0 l 6,17.999993 6,-17.999993 6,17.999993 6,-17.999993 6,17.999993 6,-17.999993 6,17.999993 v 0 h 6"
       id="path3769"
       inkscape:connector-curvature="0"
       sodipodi:nodetypes="cccccccccccc" />
    <rect
       y="64.250015"
       x="220.45505"
       height="54"
       width="65.999992"
       id="rect3774"
       style="fill:none;stroke:#000000;stroke-width:1;stroke-linecap:round;stroke-miterlimit:4;stroke-dasharray:none;stroke-dashoffset:0;stroke-opacity:1" />
    <path
       style="fill:none;stroke:#000000;stroke-width:1px;stroke-linecap:butt;stroke-linejoin:miter;stroke-opacity:1"
       d="m 166.45505,78.250017 h 6"
       id="path3779"
       inkscape:connector-curvature="0" />
    <path
       style="fill:none;stroke:#000000;stroke-width:1px;stroke-linecap:butt;stroke-linejoin:miter;stroke-opacity:1"
       d="m 182.05505,78.250017 h 38.4"
       id="path3781"
       inkscape:connector-curvature="0" />
    <g
       id="g5244"
       transform="matrix(0.765,0,0,0.765,19.479415,-89.83649)">
      <g
         transform="matrix(1.98,0,0,1.98,-377.21859,-97.644285)"
         style="fill:#000000;fill-opacity:1"
         id="g5006">
        <use
           height="1052.3622"
           width="744.09448"
           xlink:href="#textext-cafcb1a5-0"
           x="223.43201"
           y="134.765"
           id="use5008" />
      </g>
      <g
         transform="matrix(1.98,0,0,1.98,-377.21859,-97.644285)"
         style="fill:#000000;fill-opacity:1"
         id="g5010">
        <use
           height="1052.3622"
           width="744.09448"
           xlink:href="#textext-cafcb1a5-5"
           x="227.88"
           y="136.259"
           id="use5012" />
      </g>
    </g>
    <g
       id="g5262"
       transform="matrix(0.765,0,0,0.765,97.165308,-11.446207)">
      <g
         transform="matrix(1.98,0,0,1.98,-377.21859,-97.644285)"
         style="fill:#000000;fill-opacity:1"
         id="g5030">
        <use
           height="1052.3622"
           width="744.09448"
           xlink:href="#textext-cafcb1a5-2"
           x="251.438"
           y="134.765"
           id="use5032" />
      </g>
      <g
         transform="matrix(1.98,0,0,1.98,-377.21859,-97.644285)"
         style="fill:#000000;fill-opacity:1"
         id="g5034">
        <use
           height="1052.3622"
           width="744.09448"
           xlink:href="#textext-cafcb1a5-5"
           x="255.75"
           y="136.259"
           id="use5036" />
      </g>
    </g>
    <g
       id="g5274"
       transform="matrix(0.765,0,0,0.765,61.120898,-59.265053)">
      <g
         transform="matrix(1.98,0,0,1.98,-377.21859,-97.644285)"
         style="fill:#000000;fill-opacity:1"
         id="g5046">
        <use
           height="1052.3622"
           width="744.09448"
           xlink:href="#textext-cafcb1a5-3"
           x="269.87399"
           y="134.765"
           id="use5048" />
      </g>
      <g
         transform="matrix(1.98,0,0,1.98,-377.21859,-97.644285)"
         style="fill:#000000;fill-opacity:1"
         id="g5050">
        <use
           height="1052.3622"
           width="744.09448"
           xlink:href="#textext-cafcb1a5-5"
           x="275.05899"
           y="136.259"
           id="use5052" />
      </g>
    </g>
    <path
       d="M 93.471968,98.20692 H 63.12956"
       style="fill:none;stroke:#000000;stroke-width:2;stroke-linecap:butt;stroke-linejoin:miter;stroke-miterlimit:4;stroke-dasharray:none;stroke-opacity:1"
       id="path3423-6"
       inkscape:connector-curvature="0" />
    <path
       d="m 90.274528,95.37796 7.64066,2.80782 -7.64066,2.81073 c 1.22181,-1.65788 1.21404,-3.92959 0,-5.61855 z"
       style="fill:#000000;fill-opacity:1;fill-rule:evenodd;stroke:none"
       id="path3425-8"
       inkscape:connector-curvature="0" />
    <path
       inkscape:connector-curvature="0"
       id="path5011"
       style="fill:#ffffff;stroke:#ffffff;stroke-width:0.625;stroke-linecap:butt;stroke-linejoin:miter;stroke-miterlimit:4;stroke-dasharray:none;stroke-opacity:1"
       d="M 91.138298,98.20692 H 63.018485" />
    <g
       transform="matrix(1.5,0,0,1.5,-302.95497,-740.20519)"
       id="g5001">
      <path
         style="fill:none;stroke:#000000;stroke-width:0.33333334;stroke-linecap:butt;stroke-linejoin:miter;stroke-miterlimit:4;stroke-dasharray:none;stroke-opacity:1;marker-start:url(#Arrow2Mstart)"
         d="M 268.32869,523.8487 H 233.47621"
         id="path4807"
         inkscape:connector-curvature="0"
         sodipodi:nodetypes="cc" />
      <path
         style="fill:none;stroke:#000000;stroke-width:0.33333334;stroke-linecap:butt;stroke-linejoin:miter;stroke-miterlimit:4;stroke-dasharray:none;stroke-opacity:1"
         d="m 233.33559,522.71336 v 2.08117"
         id="path4993"
         inkscape:connector-curvature="0" />
    </g>
    <path
       sodipodi:nodetypes="cc"
       style="fill:none;stroke:#000000;stroke-width:0.5;stroke-linecap:butt;stroke-linejoin:miter;stroke-miterlimit:4;stroke-dasharray:none;stroke-opacity:1;marker-start:url(#Arrow2Mstart)"
       d="M 220.0255,55.56786 H 46.80929"
       id="path3990"
       inkscape:connector-curvature="0" />
    <path
       style="fill:none;stroke:#000000;stroke-width:0.5;stroke-linecap:butt;stroke-linejoin:miter;stroke-miterlimit:4;stroke-dasharray:none;stroke-opacity:1"
       d="m 46.994715,53.86485 v 3.121755"
       id="path3992"
       inkscape:connector-curvature="0" />
    <g
       id="g3960"
       transform="matrix(1.875,0,0,-1.875,-126.80745,228.39412)">
      <path
         d="m 128.88293,58.861794 c 0,-1.3264 -1.0732,-2.4 -2.4,-2.4 -1.3248,0 -2.4,1.0736 -2.4,2.4 0,1.3252 1.0752,2.4 2.4,2.4 1.3268,0 2.4,-1.0748 2.4,-2.4 z"
         style="fill:#ffffff;fill-opacity:1;fill-rule:nonzero;stroke:#000000;stroke-width:0.53333336;stroke-linecap:butt;stroke-linejoin:miter;stroke-miterlimit:4;stroke-dasharray:none;stroke-opacity:1"
         id="path3962"
         inkscape:connector-curvature="0" />
      <path
         id="path3965"
         style="fill:#000000;fill-opacity:1;fill-rule:nonzero;stroke:#000000;stroke-width:0.26666668;stroke-linecap:butt;stroke-linejoin:miter;stroke-miterlimit:4;stroke-dasharray:none;stroke-opacity:1"
         d="m 126.68203,58.861804 c 0,-0.11012 -0.0891,-0.19912 -0.1991,-0.19912 -0.10996,0 -0.1991,0.0891 -0.1991,0.19912 0,0.10997 0.0892,0.1991 0.1991,0.1991 0.11012,0 0.1991,-0.0892 0.1991,-0.1991 z"
         inkscape:connector-curvature="0" />
    </g>
    <g
       transform="matrix(1.875,0,0,-1.875,-80.80745,228.39412)"
       id="g3093">
      <path
         inkscape:connector-curvature="0"
         id="path3095"
         style="fill:#ffffff;fill-opacity:1;fill-rule:nonzero;stroke:#000000;stroke-width:0.53333336;stroke-linecap:butt;stroke-linejoin:miter;stroke-miterlimit:4;stroke-dasharray:none;stroke-opacity:1"
         d="m 128.88293,58.861794 c 0,-1.3264 -1.0732,-2.4 -2.4,-2.4 -1.3248,0 -2.4,1.0736 -2.4,2.4 0,1.3252 1.0752,2.4 2.4,2.4 1.3268,0 2.4,-1.0748 2.4,-2.4 z" />
      <path
         inkscape:connector-curvature="0"
         d="m 126.68203,58.861804 c 0,-0.11012 -0.0891,-0.19912 -0.1991,-0.19912 -0.10996,0 -0.1991,0.0891 -0.1991,0.19912 0,0.10997 0.0892,0.1991 0.1991,0.1991 0.11012,0 0.1991,-0.0892 0.1991,-0.1991 z"
         style="fill:#000000;fill-opacity:1;fill-rule:nonzero;stroke:#000000;stroke-width:0.26666668;stroke-linecap:butt;stroke-linejoin:miter;stroke-miterlimit:4;stroke-dasharray:none;stroke-opacity:1"
         id="path3097" />
    </g>
    <g
       id="g3099"
       transform="matrix(1.875,0,0,-1.875,-4.80745,228.39412)">
      <path
         d="m 128.88293,58.861794 c 0,-1.3264 -1.0732,-2.4 -2.4,-2.4 -1.3248,0 -2.4,1.0736 -2.4,2.4 0,1.3252 1.0752,2.4 2.4,2.4 1.3268,0 2.4,-1.0748 2.4,-2.4 z"
         style="fill:#ffffff;fill-opacity:1;fill-rule:nonzero;stroke:#000000;stroke-width:0.53333336;stroke-linecap:butt;stroke-linejoin:miter;stroke-miterlimit:4;stroke-dasharray:none;stroke-opacity:1"
         id="path3101"
         inkscape:connector-curvature="0" />
      <path
         id="path3103"
         style="fill:#000000;fill-opacity:1;fill-rule:nonzero;stroke:#000000;stroke-width:0.26666668;stroke-linecap:butt;stroke-linejoin:miter;stroke-miterlimit:4;stroke-dasharray:none;stroke-opacity:1"
         d="m 126.68203,58.861804 c 0,-0.11012 -0.0891,-0.19912 -0.1991,-0.19912 -0.10996,0 -0.1991,0.0891 -0.1991,0.19912 0,0.10997 0.0892,0.1991 0.1991,0.1991 0.11012,0 0.1991,-0.0892 0.1991,-0.1991 z"
         inkscape:connector-curvature="0" />
    </g>
    <g
       transform="matrix(1.875,0,0,-1.875,39.19255,228.39412)"
       id="g3105">
      <path
         inkscape:connector-curvature="0"
         id="path3107"
         style="fill:#ffffff;fill-opacity:1;fill-rule:nonzero;stroke:#000000;stroke-width:0.53333336;stroke-linecap:butt;stroke-linejoin:miter;stroke-miterlimit:4;stroke-dasharray:none;stroke-opacity:1"
         d="m 128.88293,58.861794 c 0,-1.3264 -1.0732,-2.4 -2.4,-2.4 -1.3248,0 -2.4,1.0736 -2.4,2.4 0,1.3252 1.0752,2.4 2.4,2.4 1.3268,0 2.4,-1.0748 2.4,-2.4 z" />
      <path
         inkscape:connector-curvature="0"
         d="m 126.68203,58.861804 c 0,-0.11012 -0.0891,-0.19912 -0.1991,-0.19912 -0.10996,0 -0.1991,0.0891 -0.1991,0.19912 0,0.10997 0.0892,0.1991 0.1991,0.1991 0.11012,0 0.1991,-0.0892 0.1991,-0.1991 z"
         style="fill:#000000;fill-opacity:1;fill-rule:nonzero;stroke:#000000;stroke-width:0.26666668;stroke-linecap:butt;stroke-linejoin:miter;stroke-miterlimit:4;stroke-dasharray:none;stroke-opacity:1"
         id="path3109" />
    </g>
    <path
       inkscape:connector-curvature="0"
       id="path3111"
       d="M 28.76218,123.78572 H 327.94444"
       style="fill:none;stroke:#000000;stroke-width:0.99999994px;stroke-linecap:butt;stroke-linejoin:miter;stroke-opacity:1" />
    <path
       inkscape:connector-curvature="0"
       id="path3211"
       d="m 100.34152,45.784218 v 19.02264"
       style="fill:none;stroke:#000000;stroke-width:0.5;stroke-linecap:butt;stroke-linejoin:miter;stroke-miterlimit:4;stroke-dasharray:1.5, 1.5;stroke-dashoffset:0;stroke-opacity:1;marker-start:none"
       sodipodi:nodetypes="cc" />
    <path
       style="fill:none;stroke:#000000;stroke-width:1;stroke-linecap:round;stroke-miterlimit:4;stroke-dashoffset:0;stroke-opacity:1"
       d="m 196.55607,82.355981 h -24.10714 v -8.211928 h 24"
       id="path3146"
       inkscape:connector-curvature="0"
       sodipodi:nodetypes="cccc" />
    <g
       id="g3158"
       transform="translate(0,-2)">
      <path
         sodipodi:nodetypes="ccc"
         inkscape:connector-curvature="0"
         id="rect3259"
         d="M 36.66291,74.36217 H 47 V 43.79396"
         style="fill:none;stroke:#000000;stroke-width:0.25;stroke-linecap:butt;stroke-miterlimit:4;stroke-dashoffset:1.41732287;stroke-opacity:1" />
      <path
         sodipodi:nodetypes="cc"
         inkscape:connector-curvature="0"
         id="path3262"
         d="m 45,74.36217 -2,-2"
         style="fill:none;stroke:#000000;stroke-width:0.2;stroke-linecap:butt;stroke-linejoin:miter;stroke-miterlimit:4;stroke-dasharray:none;stroke-opacity:1" />
      <path
         sodipodi:nodetypes="cc"
         style="fill:none;stroke:#000000;stroke-width:0.2;stroke-linecap:butt;stroke-linejoin:miter;stroke-miterlimit:4;stroke-dasharray:none;stroke-opacity:1"
         d="m 47,74.36217 -2,-2"
         id="path4044"
         inkscape:connector-curvature="0" />
      <path
         sodipodi:nodetypes="cc"
         inkscape:connector-curvature="0"
         id="path4046"
         d="m 47,72.36217 -2,-2"
         style="fill:none;stroke:#000000;stroke-width:0.2;stroke-linecap:butt;stroke-linejoin:miter;stroke-miterlimit:4;stroke-dasharray:none;stroke-opacity:1" />
      <path
         sodipodi:nodetypes="cc"
         style="fill:none;stroke:#000000;stroke-width:0.2;stroke-linecap:butt;stroke-linejoin:miter;stroke-miterlimit:4;stroke-dasharray:none;stroke-opacity:1"
         d="m 47,70.36217 -2,-2"
         id="path4048"
         inkscape:connector-curvature="0" />
      <path
         sodipodi:nodetypes="cc"
         inkscape:connector-curvature="0"
         id="path4050"
         d="m 47,68.36217 -2,-2"
         style="fill:none;stroke:#000000;stroke-width:0.2;stroke-linecap:butt;stroke-linejoin:miter;stroke-miterlimit:4;stroke-dasharray:none;stroke-opacity:1" />
      <path
         sodipodi:nodetypes="cc"
         style="fill:none;stroke:#000000;stroke-width:0.2;stroke-linecap:butt;stroke-linejoin:miter;stroke-miterlimit:4;stroke-dasharray:none;stroke-opacity:1"
         d="m 39,74.36217 -2,-2"
         id="path4056"
         inkscape:connector-curvature="0" />
      <path
         sodipodi:nodetypes="cc"
         inkscape:connector-curvature="0"
         id="path4058"
         d="m 41,74.36217 -2,-2"
         style="fill:none;stroke:#000000;stroke-width:0.2;stroke-linecap:butt;stroke-linejoin:miter;stroke-miterlimit:4;stroke-dasharray:none;stroke-opacity:1" />
      <path
         sodipodi:nodetypes="cc"
         style="fill:none;stroke:#000000;stroke-width:0.2;stroke-linecap:butt;stroke-linejoin:miter;stroke-miterlimit:4;stroke-dasharray:none;stroke-opacity:1"
         d="m 43,74.36217 -2,-2"
         id="path4060"
         inkscape:connector-curvature="0" />
      <path
         style="fill:none;stroke:#000000;stroke-width:0.2;stroke-linecap:butt;stroke-linejoin:miter;stroke-miterlimit:4;stroke-dasharray:none;stroke-opacity:1"
         d="m 47,66.36217 -2,-2"
         id="path3127"
         inkscape:connector-curvature="0"
         sodipodi:nodetypes="cc" />
      <path
         inkscape:connector-curvature="0"
         id="path3129"
         d="m 47,62.36217 -2,-2"
         style="fill:none;stroke:#000000;stroke-width:0.2;stroke-linecap:butt;stroke-linejoin:miter;stroke-miterlimit:4;stroke-dasharray:none;stroke-opacity:1"
         sodipodi:nodetypes="cc" />
      <path
         style="fill:none;stroke:#000000;stroke-width:0.2;stroke-linecap:butt;stroke-linejoin:miter;stroke-miterlimit:4;stroke-dasharray:none;stroke-opacity:1"
         d="m 47,60.36217 -2,-2"
         id="path3131"
         inkscape:connector-curvature="0"
         sodipodi:nodetypes="cc" />
      <path
         inkscape:connector-curvature="0"
         id="path3133"
         d="m 47,58.36217 -2,-2"
         style="fill:none;stroke:#000000;stroke-width:0.2;stroke-linecap:butt;stroke-linejoin:miter;stroke-miterlimit:4;stroke-dasharray:none;stroke-opacity:1"
         sodipodi:nodetypes="cc" />
      <path
         style="fill:none;stroke:#000000;stroke-width:0.2;stroke-linecap:butt;stroke-linejoin:miter;stroke-miterlimit:4;stroke-dasharray:none;stroke-opacity:1"
         d="m 47,56.36217 -2,-2"
         id="path3135"
         inkscape:connector-curvature="0"
         sodipodi:nodetypes="cc" />
      <path
         sodipodi:nodetypes="cc"
         inkscape:connector-curvature="0"
         id="path3137"
         d="m 47,54.36217 -2,-2"
         style="fill:none;stroke:#000000;stroke-width:0.2;stroke-linecap:butt;stroke-linejoin:miter;stroke-miterlimit:4;stroke-dasharray:none;stroke-opacity:1" />
      <path
         sodipodi:nodetypes="cc"
         inkscape:connector-curvature="0"
         id="path3148"
         d="m 47,64.36217 -2,-2"
         style="fill:none;stroke:#000000;stroke-width:0.2;stroke-linecap:butt;stroke-linejoin:miter;stroke-miterlimit:4;stroke-dasharray:none;stroke-opacity:1" />
      <path
         style="fill:none;stroke:#000000;stroke-width:0.2;stroke-linecap:butt;stroke-linejoin:miter;stroke-miterlimit:4;stroke-dasharray:none;stroke-opacity:1"
         d="m 47,52.36217 -2,-2"
         id="path3150"
         inkscape:connector-curvature="0"
         sodipodi:nodetypes="cc" />
      <path
         sodipodi:nodetypes="cc"
         inkscape:connector-curvature="0"
         id="path3152"
         d="m 47,50.36217 -2,-2"
         style="fill:none;stroke:#000000;stroke-width:0.2;stroke-linecap:butt;stroke-linejoin:miter;stroke-miterlimit:4;stroke-dasharray:none;stroke-opacity:1" />
      <path
         style="fill:none;stroke:#000000;stroke-width:0.2;stroke-linecap:butt;stroke-linejoin:miter;stroke-miterlimit:4;stroke-dasharray:none;stroke-opacity:1"
         d="m 47,48.36217 -2,-2"
         id="path3154"
         inkscape:connector-curvature="0"
         sodipodi:nodetypes="cc" />
      <path
         sodipodi:nodetypes="cc"
         inkscape:connector-curvature="0"
         id="path3156"
         d="m 47,46.36217 -2,-2"
         style="fill:none;stroke:#000000;stroke-width:0.2;stroke-linecap:butt;stroke-linejoin:miter;stroke-miterlimit:4;stroke-dasharray:none;stroke-opacity:1" />
    </g>
    <path
       inkscape:connector-curvature="0"
       id="path3185"
       d="m 220.40465,45.784218 v 19.02264"
       style="fill:none;stroke:#000000;stroke-width:0.5;stroke-linecap:butt;stroke-linejoin:miter;stroke-miterlimit:4;stroke-dasharray:1.5, 1.5;stroke-dashoffset:0;stroke-opacity:1;marker-start:none"
       sodipodi:nodetypes="cc" />
    <g
       id="g4611"
       transform="translate(-37.866116,138.39263)">
      <path
         id="path4414"
         d="m 185.47816,-39.1283 2.864,-2.752 c 0.128,-0.128 0.976,-0.928 2.272,-0.944 v -0.496 c -0.416,0.048 -0.928,0.048 -1.36,0.048 -0.576,0 -1.488,0 -2.016,-0.048 v 0.496 c 0.624,0.016 0.72,0.384 0.72,0.528 0,0.256 -0.16,0.4 -0.288,0.512 l -4.976,4.752 v -5.04 c 0,-0.576 0.032,-0.752 1.264,-0.752 h 0.384 v -0.496 c -0.56,0.048 -1.744,0.048 -2.352,0.048 -0.592,0 -1.792,0 -2.352,-0.048 v 0.496 h 0.384 c 1.216,0 1.248,0.176 1.248,0.752 v 8.368 c 0,0.576 -0.032,0.752 -1.248,0.752 h -0.384 v 0.496 c 0.56,-0.064 1.728,-0.064 2.336,-0.064 0.608,0 1.808,0 2.368,0.064 v -0.496 h -0.384 c -1.232,0 -1.264,-0.176 -1.264,-0.752 v -2.784 l 1.84,-1.744 2.88,4.256 c 0.096,0.144 0.256,0.352 0.256,0.544 0,0.48 -0.624,0.48 -0.944,0.48 v 0.496 c 0.56,-0.064 1.664,-0.064 2.272,-0.064 0.56,0 1.168,0.016 1.84,0.064 v -0.496 c -0.864,0 -1.2,-0.064 -1.68,-0.768 z"
         inkscape:connector-curvature="0"
         style="font-style:normal;font-variant:normal;font-weight:normal;font-stretch:normal;letter-spacing:normal;word-spacing:normal;text-anchor:start;fill:#000000;fill-opacity:1;fill-rule:evenodd;stroke:#000000;stroke-width:0;stroke-linecap:butt;stroke-linejoin:miter;stroke-miterlimit:10.43299961;stroke-dasharray:none;stroke-dashoffset:0;stroke-opacity:1" />
      <path
         id="path4416"
         d="m 195.23816,-37.1443 v -0.016 -0.016 -0.016 -0.016 0 -0.016 -0.016 -0.016 0 -0.016 -0.016 0 -0.016 0 -0.016 0 -0.016 0 l -0.016,-0.016 v -0.016 -0.016 0 l -0.016,-0.016 v -0.016 h -0.016 v -0.016 h -0.016 -0.016 v -0.016 h -0.016 -0.016 -0.016 v 0 h -0.016 -0.016 v -0.016 h -0.016 v 0 h -0.016 -0.016 v 0 h -0.016 -0.016 v 0 h -0.016 -0.016 -0.016 -0.016 -0.016 v 0 c -0.72,0.704 -1.728,0.72 -2.192,0.72 v 0.4 c 0.272,0 1.008,0 1.616,-0.32 v 5.68 c 0,0.368 0,0.512 -1.12,0.512 h -0.416 v 0.4 c 0.192,-0.016 1.568,-0.048 1.984,-0.048 0.336,0 1.744,0.032 2,0.048 v -0.4 h -0.432 c -1.12,0 -1.12,-0.144 -1.12,-0.512 z"
         inkscape:connector-curvature="0"
         style="font-style:normal;font-variant:normal;font-weight:normal;font-stretch:normal;letter-spacing:normal;word-spacing:normal;text-anchor:start;fill:#000000;fill-opacity:1;fill-rule:evenodd;stroke:#000000;stroke-width:0;stroke-linecap:butt;stroke-linejoin:miter;stroke-miterlimit:10.43299961;stroke-dasharray:none;stroke-dashoffset:0;stroke-opacity:1" />
    </g>
    <g
       id="g4635"
       transform="translate(57.153033,138.54456)">
      <path
         id="path4418"
         d="m 210.34216,-39.1283 2.864,-2.752 c 0.128,-0.128 0.976,-0.928 2.256,-0.944 v -0.496 c -0.4,0.048 -0.912,0.048 -1.344,0.048 -0.576,0 -1.488,0 -2.032,-0.048 v 0.496 c 0.64,0.016 0.736,0.384 0.736,0.528 0,0.256 -0.16,0.4 -0.288,0.512 l -4.976,4.752 v -5.04 c 0,-0.576 0.032,-0.752 1.264,-0.752 h 0.368 v -0.496 c -0.544,0.048 -1.728,0.048 -2.336,0.048 -0.608,0 -1.792,0 -2.352,-0.048 v 0.496 h 0.384 c 1.216,0 1.248,0.176 1.248,0.752 v 8.368 c 0,0.576 -0.032,0.752 -1.248,0.752 h -0.384 v 0.496 c 0.56,-0.064 1.728,-0.064 2.336,-0.064 0.608,0 1.808,0 2.352,0.064 v -0.496 h -0.368 c -1.232,0 -1.264,-0.176 -1.264,-0.752 v -2.784 l 1.84,-1.744 2.896,4.256 c 0.08,0.144 0.224,0.352 0.224,0.544 0,0.48 -0.608,0.48 -0.928,0.48 v 0.496 c 0.544,-0.064 1.664,-0.064 2.272,-0.064 0.56,0 1.168,0.016 1.824,0.064 v -0.496 c -0.848,0 -1.184,-0.064 -1.664,-0.768 z"
         inkscape:connector-curvature="0"
         style="font-style:normal;font-variant:normal;font-weight:normal;font-stretch:normal;letter-spacing:normal;word-spacing:normal;text-anchor:start;fill:#000000;fill-opacity:1;fill-rule:evenodd;stroke:#000000;stroke-width:0;stroke-linecap:butt;stroke-linejoin:miter;stroke-miterlimit:10.43299961;stroke-dasharray:none;stroke-dashoffset:0;stroke-opacity:1" />
      <g
         transform="matrix(1.5147,0,0,1.5147,-240.10872,-236.76767)"
         style="fill:#000000;fill-opacity:1"
         id="g4625">
        <use
           height="1052.3622"
           width="744.09448"
           xlink:href="#textext-cafcb1a5-6"
           x="301.49301"
           y="136.259"
           id="use4627" />
      </g>
    </g>
    <g
       style="fill:#000000;stroke-width:1.52757823"
       id="g1153"
       transform="matrix(0.65463099,0,0,0.65463099,120.13964,32.919616)">
      <g
         transform="matrix(2.333333,0,0,2.333333,-241.48719,-288.94884)"
         style="fill:#000000;fill-opacity:1;stroke-width:1.52757823"
         id="g1093">
        <path
           inkscape:connector-curvature="0"
           style="fill:#000000;stroke:none;stroke-width:0"
           d="m 4.5,-4.296875 c 0,-0.046875 -0.03125,-0.09375 -0.09375,-0.09375 -0.109375,0 -0.515625,0.390625 -0.671875,0.6875 C 3.515625,-4.25 3.125,-4.40625 2.796875,-4.40625 c -1.171875,0 -2.390625,1.46875 -2.390625,2.921875 0,0.96875 0.578125,1.59375 1.3125,1.59375 0.421875,0 0.8125,-0.234375 1.171875,-0.59375 -0.09375,0.34375 -0.421875,1.6875 -0.453125,1.78125 -0.078125,0.28125 -0.15625,0.3125 -0.71875,0.328125 -0.125,0 -0.21875,0 -0.21875,0.203125 0,0 0,0.109375 0.125,0.109375 0.3125,0 0.671875,-0.03125 1,-0.03125 0.328125,0 0.6875,0.03125 1.03125,0.03125 0.046875,0 0.171875,0 0.171875,-0.203125 C 3.828125,1.625 3.734375,1.625 3.5625,1.625 3.09375,1.625 3.09375,1.5625 3.09375,1.46875 3.09375,1.390625 3.109375,1.328125 3.125,1.25 Z m -2.75,4.1875 c -0.609375,0 -0.640625,-0.765625 -0.640625,-0.9375 0,-0.484375 0.28125,-1.5625 0.453125,-1.984375 0.3125,-0.734375 0.828125,-1.15625 1.234375,-1.15625 0.65625,0 0.796875,0.8125 0.796875,0.875 0,0.0625 -0.546875,2.25 -0.578125,2.28125 C 2.859375,-0.75 2.296875,-0.109375 1.75,-0.109375 Z m 0,0"
           transform="translate(148.712,134.765)"
           id="path1091" />
      </g>
      <g
         transform="matrix(2.333333,0,0,2.333333,-241.48719,-288.94884)"
         style="fill:#000000;fill-opacity:1;stroke-width:1.52757823"
         id="g1097">
        <path
           inkscape:connector-curvature="0"
           style="fill:#000000;stroke:none;stroke-width:0"
           d="M 3.515625,-1.265625 H 3.28125 c -0.015625,0.15625 -0.09375,0.5625 -0.1875,0.625 C 3.046875,-0.59375 2.515625,-0.59375 2.40625,-0.59375 H 1.125 c 0.734375,-0.640625 0.984375,-0.84375 1.390625,-1.171875 0.515625,-0.40625 1,-0.84375 1,-1.5 0,-0.84375 -0.734375,-1.359375 -1.625,-1.359375 -0.859375,0 -1.453125,0.609375 -1.453125,1.25 0,0.34375 0.296875,0.390625 0.375,0.390625 0.15625,0 0.359375,-0.125 0.359375,-0.375 0,-0.125 -0.046875,-0.375 -0.40625,-0.375 C 0.984375,-4.21875 1.453125,-4.375 1.78125,-4.375 c 0.703125,0 1.0625,0.546875 1.0625,1.109375 0,0.609375 -0.4375,1.078125 -0.65625,1.328125 L 0.515625,-0.265625 C 0.4375,-0.203125 0.4375,-0.1875 0.4375,0 h 2.875 z m 0,0"
           transform="translate(153.16,136.259)"
           id="path1095" />
      </g>
    </g>
    <g
       id="g1101"
       style="fill:#000000;fill-opacity:1;stroke-width:1.52757823"
       transform="matrix(1.5274721,0,0,1.5274721,-172.80929,-113.06946)">
      <path
         id="path1099"
         transform="translate(157.629,134.765)"
         d="m 3.015625,-3.234375 h 0.96875 c 0.75,0 0.828125,0.15625 0.828125,0.4375 0,0.078125 0,0.1875 -0.0625,0.5 C 4.71875,-2.25 4.71875,-2.21875 4.71875,-2.1875 c 0,0.078125 0.0625,0.109375 0.109375,0.109375 0.109375,0 0.109375,-0.03125 0.15625,-0.203125 L 5.53125,-4.453125 C 5.5625,-4.5625 5.5625,-4.578125 5.5625,-4.609375 5.5625,-4.625 5.546875,-4.71875 5.4375,-4.71875 5.34375,-4.71875 5.328125,-4.671875 5.296875,-4.5 5.078125,-3.734375 4.859375,-3.546875 4,-3.546875 H 3.09375 l 0.640625,-2.53125 C 3.828125,-6.4375 3.84375,-6.46875 4.28125,-6.46875 h 1.3125 c 1.21875,0 1.453125,0.328125 1.453125,1.09375 0,0.234375 0,0.265625 -0.03125,0.546875 C 7,-4.703125 7,-4.6875 7,-4.65625 c 0,0.046875 0.03125,0.125 0.125,0.125 0.109375,0 0.109375,-0.0625 0.125,-0.25 L 7.453125,-6.515625 C 7.484375,-6.78125 7.4375,-6.78125 7.1875,-6.78125 H 2.296875 c -0.1875,0 -0.296875,0 -0.296875,0.203125 0,0.109375 0.09375,0.109375 0.28125,0.109375 0.375,0 0.65625,0 0.65625,0.171875 0,0.046875 0,0.0625 -0.0625,0.25 L 1.5625,-0.78125 c -0.09375,0.390625 -0.109375,0.46875 -0.90625,0.46875 -0.171875,0 -0.28125,0 -0.28125,0.1875 C 0.375,0 0.5,0 0.53125,0 0.8125,0 1.5625,-0.03125 1.84375,-0.03125 2.171875,-0.03125 3,0 3.328125,0 3.421875,0 3.53125,0 3.53125,-0.1875 3.53125,-0.265625 3.484375,-0.296875 3.484375,-0.296875 3.453125,-0.3125 3.421875,-0.3125 3.203125,-0.3125 c -0.21875,0 -0.265625,0 -0.515625,-0.015625 -0.296875,-0.03125 -0.328125,-0.078125 -0.328125,-0.203125 0,-0.015625 0,-0.078125 0.046875,-0.21875 z m 0,0"
         style="fill:#000000;stroke:none;stroke-width:0"
         inkscape:connector-curvature="0" />
    </g>
  </g>
  <g
     inkscape:groupmode="layer"
     id="layer2"
     inkscape:label="versteck#"
     style="display:none"
     transform="translate(-0.50000009,2.1428593)">
    <g
       id="g5232"
       transform="matrix(0.765,0,0,0.765,60.359417,-178.40489)">
      <g
         transform="matrix(1.98,0,0,1.98,-377.21859,-97.644285)"
         style="fill:#000000;fill-opacity:1"
         id="g5054">
        <use
           height="1052.3622"
           width="744.09448"
           xlink:href="#textext-cafcb1a5-4"
           x="279.52899"
           y="134.765"
           id="use5056" />
      </g>
      <g
         transform="matrix(1.98,0,0,1.98,-377.21859,-97.644285)"
         style="fill:#000000;fill-opacity:1"
         id="g5058">
        <use
           height="1052.3622"
           width="744.09448"
           xlink:href="#textext-cafcb1a5-5"
           x="288.276"
           y="136.259"
           id="use5060" />
      </g>
    </g>
    <g
       id="g5238"
       transform="matrix(0.765,0,0,0.765,159.41723,-176.28357)">
      <g
         transform="matrix(1.98,0,0,1.98,-377.21859,-97.644285)"
         style="fill:#000000;fill-opacity:1"
         id="g5062">
        <use
           height="1052.3622"
           width="744.09448"
           xlink:href="#textext-cafcb1a5-4"
           x="292.745"
           y="134.765"
           id="use5064" />
      </g>
      <g
         transform="matrix(1.98,0,0,1.98,-377.21859,-97.644285)"
         style="fill:#000000;fill-opacity:1"
         id="g5066">
        <use
           height="1052.3622"
           width="744.09448"
           xlink:href="#textext-cafcb1a5-6"
           x="301.49301"
           y="136.259"
           id="use5068" />
      </g>
    </g>
    <g
       id="g3109"
       transform="translate(-88.26218,-35.062889)">
      <path
         style="fill:none;stroke:#000000;stroke-width:0.5;stroke-linecap:butt;stroke-linejoin:miter;stroke-miterlimit:4;stroke-dasharray:none;stroke-opacity:1;marker-start:none"
         d="m 28.694465,52.248365 5.760584,5.760585"
         id="path4639"
         inkscape:connector-curvature="0" />
      <path
         style="fill:none;stroke:#000000;stroke-width:1;stroke-linecap:butt;stroke-linejoin:miter;stroke-miterlimit:4;stroke-dasharray:none;stroke-opacity:1;marker-start:none"
         d="M 34.455049,57.762509 V 77.450015"
         id="path4619"
         inkscape:connector-curvature="0" />
      <path
         inkscape:connector-curvature="0"
         id="path4621"
         d="m 28.694465,71.448365 5.760584,5.760585"
         style="fill:none;stroke:#000000;stroke-width:0.5;stroke-linecap:butt;stroke-linejoin:miter;stroke-miterlimit:4;stroke-dasharray:none;stroke-opacity:1;marker-start:none" />
      <path
         inkscape:connector-curvature="0"
         id="path4625"
         d="m 28.694465,66.648365 5.760584,5.760585"
         style="fill:none;stroke:#000000;stroke-width:0.5;stroke-linecap:butt;stroke-linejoin:miter;stroke-miterlimit:4;stroke-dasharray:none;stroke-opacity:1;marker-start:none" />
      <path
         inkscape:connector-curvature="0"
         id="path4629"
         d="m 28.694465,61.848365 5.760584,5.760585"
         style="fill:none;stroke:#000000;stroke-width:0.5;stroke-linecap:butt;stroke-linejoin:miter;stroke-miterlimit:4;stroke-dasharray:none;stroke-opacity:1;marker-start:none" />
      <path
         inkscape:connector-curvature="0"
         id="path4633"
         d="m 28.694465,57.048365 5.760584,5.760585"
         style="fill:none;stroke:#000000;stroke-width:0.5;stroke-linecap:butt;stroke-linejoin:miter;stroke-miterlimit:4;stroke-dasharray:none;stroke-opacity:1;marker-start:none" />
    </g>
  </g>
</svg>
