<?xml version="1.0" encoding="utf-8" standalone="no"?>
<!DOCTYPE svg PUBLIC "-//W3C//DTD SVG 1.1//EN"
  "http://www.w3.org/Graphics/SVG/1.1/DTD/svg11.dtd">
<svg xmlns:xlink="http://www.w3.org/1999/xlink" width="571.5pt" height="670.5pt" viewBox="0 0 571.5 670.5" xmlns="http://www.w3.org/2000/svg" version="1.1">
 <metadata>
  <rdf:RDF xmlns:dc="http://purl.org/dc/elements/1.1/" xmlns:cc="http://creativecommons.org/ns#" xmlns:rdf="http://www.w3.org/1999/02/22-rdf-syntax-ns#">
   <cc:Work>
    <dc:type rdf:resource="http://purl.org/dc/dcmitype/StillImage"/>
    <dc:date>2023-09-24T17:46:36.391845</dc:date>
    <dc:format>image/svg+xml</dc:format>
    <dc:creator>
     <cc:Agent>
      <dc:title>Matplotlib v3.7.2, https://matplotlib.org/</dc:title>
     </cc:Agent>
    </dc:creator>
   </cc:Work>
  </rdf:RDF>
 </metadata>
 <defs>
  <style type="text/css">*{stroke-linejoin: round; stroke-linecap: butt}</style>
 </defs>
 <g id="figure_1">
  <g id="patch_1">
   <path d="M 0 670.5 
L 571.5 670.5 
L 571.5 0 
L 0 0 
L 0 670.5 
z
" style="fill: none"/>
  </g>
  <g id="axes_1">
   <g id="patch_2">
    <path d="M 371.25 105.75 
L 371.821175 105.745469 
L 372.392206 105.731876 
L 372.962949 105.709224 
L 373.533261 105.67752 
L 374.102998 105.636772 
L 374.672018 105.586989 
L 375.240175 105.528185 
L 375.807328 105.460373 
L 376.373334 105.383572 
L 376.93805 105.2978 
L 377.501334 105.203079 
L 378.063045 105.099433 
L 378.62304 104.986888 
L 379.181179 104.865472 
L 379.737322 104.735216 
L 380.291328 104.596153 
L 380.843057 104.448318 
L 381.392372 104.291747 
L 381.939134 104.126481 
L 382.483204 103.95256 
L 383.024447 103.770029 
L 383.562725 103.578934 
L 384.097904 103.379323 
L 384.629848 103.171246 
L 385.158425 102.954755 
L 385.683499 102.729904 
L 386.20494 102.496752 
L 386.722617 102.255355 
L 387.236398 102.005776 
L 387.746155 101.748076 
L 388.251759 101.482321 
L 388.753082 101.208578 
L 389.25 100.926915 
L 389.742386 100.637403 
L 390.230117 100.340115 
L 390.713069 100.035127 
L 391.191122 99.722515 
L 391.664155 99.402357 
L 392.132049 99.074734 
L 392.594685 98.739729 
L 393.051949 98.397426 
L 393.503724 98.047911 
L 393.949896 97.691273 
L 394.390354 97.3276 
L 394.824986 96.956985 
L 395.253684 96.57952 
L 395.676339 96.195302 
L 396.092844 95.804425 
L 396.503096 95.40699 
L 396.90699 95.003096 
L 397.304425 94.592844 
L 397.695302 94.176339 
L 398.07952 93.753684 
L 398.456985 93.324986 
L 398.8276 92.890354 
L 399.191273 92.449896 
L 399.547911 92.003724 
L 399.897426 91.551949 
L 400.239729 91.094685 
L 400.574734 90.632049 
L 400.902357 90.164155 
L 401.222515 89.691122 
L 401.535127 89.213069 
L 401.840115 88.730117 
L 402.137403 88.242386 
L 402.426915 87.75 
L 402.708578 87.253082 
L 402.982321 86.751759 
L 403.248076 86.246155 
L 403.505776 85.736398 
L 403.755355 85.222617 
L 403.996752 84.70494 
L 404.229904 84.183499 
L 404.454755 83.658425 
L 404.671246 83.129848 
L 404.879323 82.597904 
L 405.078934 82.062725 
L 405.270029 81.524447 
L 405.45256 80.983204 
L 405.626481 80.439134 
L 405.791747 79.892372 
L 405.948318 79.343057 
L 406.096153 78.791328 
L 406.235216 78.237322 
L 406.365472 77.681179 
L 406.486888 77.12304 
L 406.599433 76.563045 
L 406.703079 76.001334 
L 406.7978 75.43805 
L 406.883572 74.873334 
L 406.960373 74.307328 
L 407.028185 73.740175 
L 407.086989 73.172018 
L 407.136772 72.602998 
L 407.17752 72.033261 
L 407.209224 71.462949 
L 407.231876 70.892206 
L 407.245469 70.321175 
L 407.25 69.75 
L 407.25 69.75 
L 407.245469 69.178825 
L 407.231876 68.607794 
L 407.209224 68.037051 
L 407.17752 67.466739 
L 407.136772 66.897002 
L 407.086989 66.327982 
L 407.028185 65.759825 
L 406.960373 65.192672 
L 406.883572 64.626666 
L 406.7978 64.06195 
L 406.703079 63.498666 
L 406.599433 62.936955 
L 406.486888 62.37696 
L 406.365472 61.818821 
L 406.235216 61.262678 
L 406.096153 60.708672 
L 405.948318 60.156943 
L 405.791747 59.607628 
L 405.626481 59.060866 
L 405.45256 58.516796 
L 405.270029 57.975553 
L 405.078934 57.437275 
L 404.879323 56.902096 
L 404.671246 56.370152 
L 404.454755 55.841575 
L 404.229904 55.316501 
L 403.996752 54.79506 
L 403.755355 54.277383 
L 403.505776 53.763602 
L 403.248076 53.253845 
L 402.982321 52.748241 
L 402.708578 52.246918 
L 402.426915 51.75 
L 402.137403 51.257614 
L 401.840115 50.769883 
L 401.535127 50.286931 
L 401.222515 49.808878 
L 400.902357 49.335845 
L 400.574734 48.867951 
L 400.239729 48.405315 
L 399.897426 47.948051 
L 399.547911 47.496276 
L 399.191273 47.050104 
L 398.8276 46.609646 
L 398.456985 46.175014 
L 398.07952 45.746316 
L 397.695302 45.323661 
L 397.304425 44.907156 
L 396.90699 44.496904 
L 396.503096 44.09301 
L 396.092844 43.695575 
L 395.676339 43.304698 
L 395.253684 42.92048 
L 394.824986 42.543015 
L 394.390354 42.1724 
L 393.949896 41.808727 
L 393.503724 41.452089 
L 393.051949 41.102574 
L 392.594685 40.760271 
L 392.132049 40.425266 
L 391.664155 40.097643 
L 391.191122 39.777485 
L 390.713069 39.464873 
L 390.230117 39.159885 
L 389.742386 38.862597 
L 389.25 38.573085 
L 388.753082 38.291422 
L 388.251759 38.017679 
L 387.746155 37.751924 
L 387.236398 37.494224 
L 386.722617 37.244645 
L 386.20494 37.003248 
L 385.683499 36.770096 
L 385.158425 36.545245 
L 384.629848 36.328754 
L 384.097904 36.120677 
L 383.562725 35.921066 
L 383.024447 35.729971 
L 382.483204 35.54744 
L 381.939134 35.373519 
L 381.392372 35.208253 
L 380.843057 35.051682 
L 380.291328 34.903847 
L 379.737322 34.764784 
L 379.181179 34.634528 
L 378.62304 34.513112 
L 378.063045 34.400567 
L 377.501334 34.296921 
L 376.93805 34.2022 
L 376.373334 34.116428 
L 375.807328 34.039627 
L 375.240175 33.971815 
L 374.672018 33.913011 
L 374.102998 33.863228 
L 373.533261 33.82248 
L 372.962949 33.790776 
L 372.392206 33.768124 
L 371.821175 33.754531 
L 371.25 33.75 
L 263.25 33.75 
L 262.678825 33.754531 
L 262.107794 33.768124 
L 261.537051 33.790776 
L 260.966739 33.82248 
L 260.397002 33.863228 
L 259.827982 33.913011 
L 259.259825 33.971815 
L 258.692672 34.039627 
L 258.126666 34.116428 
L 257.56195 34.2022 
L 256.998666 34.296921 
L 256.436955 34.400567 
L 255.87696 34.513112 
L 255.318821 34.634528 
L 254.762678 34.764784 
L 254.208672 34.903847 
L 253.656943 35.051682 
L 253.107628 35.208253 
L 252.560866 35.373519 
L 252.016796 35.54744 
L 251.475553 35.729971 
L 250.937275 35.921066 
L 250.402096 36.120677 
L 249.870152 36.328754 
L 249.341575 36.545245 
L 248.816501 36.770096 
L 248.29506 37.003248 
L 247.777383 37.244645 
L 247.263602 37.494224 
L 246.753845 37.751924 
L 246.248241 38.017679 
L 245.746918 38.291422 
L 245.25 38.573085 
L 244.757614 38.862597 
L 244.269883 39.159885 
L 243.786931 39.464873 
L 243.308878 39.777485 
L 242.835845 40.097643 
L 242.367951 40.425266 
L 241.905315 40.760271 
L 241.448051 41.102574 
L 240.996276 41.452089 
L 240.550104 41.808727 
L 240.109646 42.1724 
L 239.675014 42.543015 
L 239.246316 42.92048 
L 238.823661 43.304698 
L 238.407156 43.695575 
L 237.996904 44.09301 
L 237.59301 44.496904 
L 237.195575 44.907156 
L 236.804698 45.323661 
L 236.42048 45.746316 
L 236.043015 46.175014 
L 235.6724 46.609646 
L 235.308727 47.050104 
L 234.952089 47.496276 
L 234.602574 47.948051 
L 234.260271 48.405315 
L 233.925266 48.867951 
L 233.597643 49.335845 
L 233.277485 49.808878 
L 232.964873 50.286931 
L 232.659885 50.769883 
L 232.362597 51.257614 
L 232.073085 51.75 
L 231.791422 52.246918 
L 231.517679 52.748241 
L 231.251924 53.253845 
L 230.994224 53.763602 
L 230.744645 54.277383 
L 230.503248 54.79506 
L 230.270096 55.316501 
L 230.045245 55.841575 
L 229.828754 56.370152 
L 229.620677 56.902096 
L 229.421066 57.437275 
L 229.229971 57.975553 
L 229.04744 58.516796 
L 228.873519 59.060866 
L 228.708253 59.607628 
L 228.551682 60.156943 
L 228.403847 60.708672 
L 228.264784 61.262678 
L 228.134528 61.818821 
L 228.013112 62.37696 
L 227.900567 62.936955 
L 227.796921 63.498666 
L 227.7022 64.06195 
L 227.616428 64.626666 
L 227.539627 65.192672 
L 227.471815 65.759825 
L 227.413011 66.327982 
L 227.363228 66.897002 
L 227.32248 67.466739 
L 227.290776 68.037051 
L 227.268124 68.607794 
L 227.254531 69.178825 
L 227.25 69.75 
L 227.25 69.75 
L 227.254531 70.321175 
L 227.268124 70.892206 
L 227.290776 71.462949 
L 227.32248 72.033261 
L 227.363228 72.602998 
L 227.413011 73.172018 
L 227.471815 73.740175 
L 227.539627 74.307328 
L 227.616428 74.873334 
L 227.7022 75.43805 
L 227.796921 76.001334 
L 227.900567 76.563045 
L 228.013112 77.12304 
L 228.134528 77.681179 
L 228.264784 78.237322 
L 228.403847 78.791328 
L 228.551682 79.343057 
L 228.708253 79.892372 
L 228.873519 80.439134 
L 229.04744 80.983204 
L 229.229971 81.524447 
L 229.421066 82.062725 
L 229.620677 82.597904 
L 229.828754 83.129848 
L 230.045245 83.658425 
L 230.270096 84.183499 
L 230.503248 84.70494 
L 230.744645 85.222617 
L 230.994224 85.736398 
L 231.251924 86.246155 
L 231.517679 86.751759 
L 231.791422 87.253082 
L 232.073085 87.75 
L 232.362597 88.242386 
L 232.659885 88.730117 
L 232.964873 89.213069 
L 233.277485 89.691122 
L 233.597643 90.164155 
L 233.925266 90.632049 
L 234.260271 91.094685 
L 234.602574 91.551949 
L 234.952089 92.003724 
L 235.308727 92.449896 
L 235.6724 92.890354 
L 236.043015 93.324986 
L 236.42048 93.753684 
L 236.804698 94.176339 
L 237.195575 94.592844 
L 237.59301 95.003096 
L 237.996904 95.40699 
L 238.407156 95.804425 
L 238.823661 96.195302 
L 239.246316 96.57952 
L 239.675014 96.956985 
L 240.109646 97.3276 
L 240.550104 97.691273 
L 240.996276 98.047911 
L 241.448051 98.397426 
L 241.905315 98.739729 
L 242.367951 99.074734 
L 242.835845 99.402357 
L 243.308878 99.722515 
L 243.786931 100.035127 
L 244.269883 100.340115 
L 244.757614 100.637403 
L 245.25 100.926915 
L 245.746918 101.208578 
L 246.248241 101.482321 
L 246.753845 101.748076 
L 247.263602 102.005776 
L 247.777383 102.255355 
L 248.29506 102.496752 
L 248.816501 102.729904 
L 249.341575 102.954755 
L 249.870152 103.171246 
L 250.402096 103.379323 
L 250.937275 103.578934 
L 251.475553 103.770029 
L 252.016796 103.95256 
L 252.560866 104.126481 
L 253.107628 104.291747 
L 253.656943 104.448318 
L 254.208672 104.596153 
L 254.762678 104.735216 
L 255.318821 104.865472 
L 255.87696 104.986888 
L 256.436955 105.099433 
L 256.998666 105.203079 
L 257.56195 105.2978 
L 258.126666 105.383572 
L 258.692672 105.460373 
L 259.259825 105.528185 
L 259.827982 105.586989 
L 260.397002 105.636772 
L 260.966739 105.67752 
L 261.537051 105.709224 
L 262.107794 105.731876 
L 262.678825 105.745469 
L 263.25 105.75 
L 371.25 105.75 
z
" clip-path="url(#pfdd3ab5dd3)" style="fill: none; stroke: #000000; stroke-width: 2; stroke-linecap: round"/>
   </g>
   <g id="patch_3">
    <path d="M 218.25 218.25 
L 317.25 141.75 
L 416.25 218.25 
L 317.25 294.75 
L 218.25 218.25 
z
" clip-path="url(#pfdd3ab5dd3)" style="fill: none; stroke: #000000; stroke-width: 2; stroke-linecap: round"/>
   </g>
   <g id="patch_4">
    <path d="M 380.25 636.75 
L 380.678381 636.746601 
L 381.106654 636.736407 
L 381.534712 636.719418 
L 381.962446 636.69564 
L 382.389749 636.665079 
L 382.816513 636.627742 
L 383.242631 636.583639 
L 383.667996 636.53278 
L 384.092501 636.475179 
L 384.516038 636.41085 
L 384.938501 636.339809 
L 385.359784 636.262075 
L 385.77978 636.177666 
L 386.198384 636.086604 
L 386.615491 635.988912 
L 387.030996 635.884615 
L 387.444793 635.773738 
L 387.856779 635.65631 
L 388.26685 635.532361 
L 388.674903 635.40192 
L 389.080835 635.265022 
L 389.484544 635.121701 
L 389.885928 634.971992 
L 390.284886 634.815934 
L 390.681318 634.653566 
L 391.075124 634.484928 
L 391.466205 634.310064 
L 391.854463 634.129017 
L 392.239799 633.941832 
L 392.622116 633.748557 
L 393.001319 633.549241 
L 393.377312 633.343933 
L 393.75 633.132686 
L 394.11929 632.915552 
L 394.485088 632.692587 
L 394.847302 632.463845 
L 395.205842 632.229386 
L 395.560616 631.989268 
L 395.911537 631.743551 
L 396.258514 631.492297 
L 396.601462 631.23557 
L 396.940293 630.973434 
L 397.274922 630.705955 
L 397.605265 630.4332 
L 397.93124 630.155239 
L 398.252763 629.87214 
L 398.569754 629.583976 
L 398.882133 629.290819 
L 399.189822 628.992743 
L 399.492743 628.689822 
L 399.790819 628.382133 
L 400.083976 628.069754 
L 400.37214 627.752763 
L 400.655239 627.43124 
L 400.9332 627.105265 
L 401.205955 626.774922 
L 401.473434 626.440293 
L 401.73557 626.101462 
L 401.992297 625.758514 
L 402.243551 625.411537 
L 402.489268 625.060616 
L 402.729386 624.705842 
L 402.963845 624.347302 
L 403.192587 623.985088 
L 403.415552 623.61929 
L 403.632686 623.25 
L 403.843933 622.877312 
L 404.049241 622.501319 
L 404.248557 622.122116 
L 404.441832 621.739799 
L 404.629017 621.354463 
L 404.810064 620.966205 
L 404.984928 620.575124 
L 405.153566 620.181318 
L 405.315934 619.784886 
L 405.471992 619.385928 
L 405.621701 618.984544 
L 405.765022 618.580835 
L 405.90192 618.174903 
L 406.032361 617.76685 
L 406.15631 617.356779 
L 406.273738 616.944793 
L 406.384615 616.530996 
L 406.488912 616.115491 
L 406.586604 615.698384 
L 406.677666 615.27978 
L 406.762075 614.859784 
L 406.839809 614.438501 
L 406.91085 614.016038 
L 406.975179 613.592501 
L 407.03278 613.167996 
L 407.083639 612.742631 
L 407.127742 612.316513 
L 407.165079 611.889749 
L 407.19564 611.462446 
L 407.219418 611.034712 
L 407.236407 610.606654 
L 407.246601 610.178381 
L 407.25 609.75 
L 407.25 609.75 
L 407.246601 609.321619 
L 407.236407 608.893346 
L 407.219418 608.465288 
L 407.19564 608.037554 
L 407.165079 607.610251 
L 407.127742 607.183487 
L 407.083639 606.757369 
L 407.03278 606.332004 
L 406.975179 605.907499 
L 406.91085 605.483962 
L 406.839809 605.061499 
L 406.762075 604.640216 
L 406.677666 604.22022 
L 406.586604 603.801616 
L 406.488912 603.384509 
L 406.384615 602.969004 
L 406.273738 602.555207 
L 406.15631 602.143221 
L 406.032361 601.73315 
L 405.90192 601.325097 
L 405.765022 600.919165 
L 405.621701 600.515456 
L 405.471992 600.114072 
L 405.315934 599.715114 
L 405.153566 599.318682 
L 404.984928 598.924876 
L 404.810064 598.533795 
L 404.629017 598.145537 
L 404.441832 597.760201 
L 404.248557 597.377884 
L 404.049241 596.998681 
L 403.843933 596.622688 
L 403.632686 596.25 
L 403.415552 595.88071 
L 403.192587 595.514912 
L 402.963845 595.152698 
L 402.729386 594.794158 
L 402.489268 594.439384 
L 402.243551 594.088463 
L 401.992297 593.741486 
L 401.73557 593.398538 
L 401.473434 593.059707 
L 401.205955 592.725078 
L 400.9332 592.394735 
L 400.655239 592.06876 
L 400.37214 591.747237 
L 400.083976 591.430246 
L 399.790819 591.117867 
L 399.492743 590.810178 
L 399.189822 590.507257 
L 398.882133 590.209181 
L 398.569754 589.916024 
L 398.252763 589.62786 
L 397.93124 589.344761 
L 397.605265 589.0668 
L 397.274922 588.794045 
L 396.940293 588.526566 
L 396.601462 588.26443 
L 396.258514 588.007703 
L 395.911537 587.756449 
L 395.560616 587.510732 
L 395.205842 587.270614 
L 394.847302 587.036155 
L 394.485088 586.807413 
L 394.11929 586.584448 
L 393.75 586.367314 
L 393.377312 586.156067 
L 393.001319 585.950759 
L 392.622116 585.751443 
L 392.239799 585.558168 
L 391.854463 585.370983 
L 391.466205 585.189936 
L 391.075124 585.015072 
L 390.681318 584.846434 
L 390.284886 584.684066 
L 389.885928 584.528008 
L 389.484544 584.378299 
L 389.080835 584.234978 
L 388.674903 584.09808 
L 388.26685 583.967639 
L 387.856779 583.84369 
L 387.444793 583.726262 
L 387.030996 583.615385 
L 386.615491 583.511088 
L 386.198384 583.413396 
L 385.77978 583.322334 
L 385.359784 583.237925 
L 384.938501 583.160191 
L 384.516038 583.08915 
L 384.092501 583.024821 
L 383.667996 582.96722 
L 383.242631 582.916361 
L 382.816513 582.872258 
L 382.389749 582.834921 
L 381.962446 582.80436 
L 381.534712 582.780582 
L 381.106654 582.763593 
L 380.678381 582.753399 
L 380.25 582.75 
L 254.25 582.75 
L 253.821619 582.753399 
L 253.393346 582.763593 
L 252.965288 582.780582 
L 252.537554 582.80436 
L 252.110251 582.834921 
L 251.683487 582.872258 
L 251.257369 582.916361 
L 250.832004 582.96722 
L 250.407499 583.024821 
L 249.983962 583.08915 
L 249.561499 583.160191 
L 249.140216 583.237925 
L 248.72022 583.322334 
L 248.301616 583.413396 
L 247.884509 583.511088 
L 247.469004 583.615385 
L 247.055207 583.726262 
L 246.643221 583.84369 
L 246.23315 583.967639 
L 245.825097 584.09808 
L 245.419165 584.234978 
L 245.015456 584.378299 
L 244.614072 584.528008 
L 244.215114 584.684066 
L 243.818682 584.846434 
L 243.424876 585.015072 
L 243.033795 585.189936 
L 242.645537 585.370983 
L 242.260201 585.558168 
L 241.877884 585.751443 
L 241.498681 585.950759 
L 241.122688 586.156067 
L 240.75 586.367314 
L 240.38071 586.584448 
L 240.014912 586.807413 
L 239.652698 587.036155 
L 239.294158 587.270614 
L 238.939384 587.510732 
L 238.588463 587.756449 
L 238.241486 588.007703 
L 237.898538 588.26443 
L 237.559707 588.526566 
L 237.225078 588.794045 
L 236.894735 589.0668 
L 236.56876 589.344761 
L 236.247237 589.62786 
L 235.930246 589.916024 
L 235.617867 590.209181 
L 235.310178 590.507257 
L 235.007257 590.810178 
L 234.709181 591.117867 
L 234.416024 591.430246 
L 234.12786 591.747237 
L 233.844761 592.06876 
L 233.5668 592.394735 
L 233.294045 592.725078 
L 233.026566 593.059707 
L 232.76443 593.398538 
L 232.507703 593.741486 
L 232.256449 594.088463 
L 232.010732 594.439384 
L 231.770614 594.794158 
L 231.536155 595.152698 
L 231.307413 595.514912 
L 231.084448 595.88071 
L 230.867314 596.25 
L 230.656067 596.622688 
L 230.450759 596.998681 
L 230.251443 597.377884 
L 230.058168 597.760201 
L 229.870983 598.145537 
L 229.689936 598.533795 
L 229.515072 598.924876 
L 229.346434 599.318682 
L 229.184066 599.715114 
L 229.028008 600.114072 
L 228.878299 600.515456 
L 228.734978 600.919165 
L 228.59808 601.325097 
L 228.467639 601.73315 
L 228.34369 602.143221 
L 228.226262 602.555207 
L 228.115385 602.969004 
L 228.011088 603.384509 
L 227.913396 603.801616 
L 227.822334 604.22022 
L 227.737925 604.640216 
L 227.660191 605.061499 
L 227.58915 605.483962 
L 227.524821 605.907499 
L 227.46722 606.332004 
L 227.416361 606.757369 
L 227.372258 607.183487 
L 227.334921 607.610251 
L 227.30436 608.037554 
L 227.280582 608.465288 
L 227.263593 608.893346 
L 227.253399 609.321619 
L 227.25 609.75 
L 227.25 609.75 
L 227.253399 610.178381 
L 227.263593 610.606654 
L 227.280582 611.034712 
L 227.30436 611.462446 
L 227.334921 611.889749 
L 227.372258 612.316513 
L 227.416361 612.742631 
L 227.46722 613.167996 
L 227.524821 613.592501 
L 227.58915 614.016038 
L 227.660191 614.438501 
L 227.737925 614.859784 
L 227.822334 615.27978 
L 227.913396 615.698384 
L 228.011088 616.115491 
L 228.115385 616.530996 
L 228.226262 616.944793 
L 228.34369 617.356779 
L 228.467639 617.76685 
L 228.59808 618.174903 
L 228.734978 618.580835 
L 228.878299 618.984544 
L 229.028008 619.385928 
L 229.184066 619.784886 
L 229.346434 620.181318 
L 229.515072 620.575124 
L 229.689936 620.966205 
L 229.870983 621.354463 
L 230.058168 621.739799 
L 230.251443 622.122116 
L 230.450759 622.501319 
L 230.656067 622.877312 
L 230.867314 623.25 
L 231.084448 623.61929 
L 231.307413 623.985088 
L 231.536155 624.347302 
L 231.770614 624.705842 
L 232.010732 625.060616 
L 232.256449 625.411537 
L 232.507703 625.758514 
L 232.76443 626.101462 
L 233.026566 626.440293 
L 233.294045 626.774922 
L 233.5668 627.105265 
L 233.844761 627.43124 
L 234.12786 627.752763 
L 234.416024 628.069754 
L 234.709181 628.382133 
L 235.007257 628.689822 
L 235.310178 628.992743 
L 235.617867 629.290819 
L 235.930246 629.583976 
L 236.247237 629.87214 
L 236.56876 630.155239 
L 236.894735 630.4332 
L 237.225078 630.705955 
L 237.559707 630.973434 
L 237.898538 631.23557 
L 238.241486 631.492297 
L 238.588463 631.743551 
L 238.939384 631.989268 
L 239.294158 632.229386 
L 239.652698 632.463845 
L 240.014912 632.692587 
L 240.38071 632.915552 
L 240.75 633.132686 
L 241.122688 633.343933 
L 241.498681 633.549241 
L 241.877884 633.748557 
L 242.260201 633.941832 
L 242.645537 634.129017 
L 243.033795 634.310064 
L 243.424876 634.484928 
L 243.818682 634.653566 
L 244.215114 634.815934 
L 244.614072 634.971992 
L 245.015456 635.121701 
L 245.419165 635.265022 
L 245.825097 635.40192 
L 246.23315 635.532361 
L 246.643221 635.65631 
L 247.055207 635.773738 
L 247.469004 635.884615 
L 247.884509 635.988912 
L 248.301616 636.086604 
L 248.72022 636.177666 
L 249.140216 636.262075 
L 249.561499 636.339809 
L 249.983962 636.41085 
L 250.407499 636.475179 
L 250.832004 636.53278 
L 251.257369 636.583639 
L 251.683487 636.627742 
L 252.110251 636.665079 
L 252.537554 636.69564 
L 252.965288 636.719418 
L 253.393346 636.736407 
L 253.821619 636.746601 
L 254.25 636.75 
L 380.25 636.75 
z
" clip-path="url(#pfdd3ab5dd3)" style="fill: none; stroke: #000000; stroke-width: 2; stroke-linecap: round"/>
   </g>
   <g id="line2d_1">
    <path d="M 317.25 105.75 
L 317.25 123.75 
L 317.25 132.75 
" clip-path="url(#pfdd3ab5dd3)" style="fill: none; stroke: #000000; stroke-width: 2; stroke-linecap: round"/>
   </g>
   <g id="patch_5">
    <path d="M 319.95 132.75 
L 317.25 141.75 
L 314.55 132.75 
z
" clip-path="url(#pfdd3ab5dd3)"/>
   </g>
   <g id="line2d_2">
    <path d="M 317.25 294.75 
L 317.25 321.75 
L 317.25 339.75 
" clip-path="url(#pfdd3ab5dd3)" style="fill: none; stroke: #000000; stroke-width: 2; stroke-linecap: round"/>
   </g>
   <g id="patch_6">
    <path d="M 319.95 339.75 
L 317.25 348.75 
L 314.55 339.75 
z
" clip-path="url(#pfdd3ab5dd3)"/>
   </g>
   <g id="line2d_3">
    <path d="M 245.25 380.25 
L 245.25 348.75 
L 389.25 348.75 
L 389.25 411.75 
L 245.25 411.75 
L 245.25 380.25 
" clip-path="url(#pfdd3ab5dd3)" style="fill: none; stroke: #000000; stroke-width: 2; stroke-linecap: round"/>
   </g>
   <g id="line2d_4">
    <path d="M 317.25 411.75 
L 317.25 438.75 
L 317.25 456.75 
" clip-path="url(#pfdd3ab5dd3)" style="fill: none; stroke: #000000; stroke-width: 2; stroke-linecap: round"/>
   </g>
   <g id="patch_7">
    <path d="M 319.95 456.75 
L 317.25 465.75 
L 314.55 456.75 
z
" clip-path="url(#pfdd3ab5dd3)"/>
   </g>
   <g id="line2d_5">
    <path d="M 227.25 497.25 
L 227.25 465.75 
L 407.25 465.75 
L 407.25 528.75 
L 227.25 528.75 
L 227.25 497.25 
" clip-path="url(#pfdd3ab5dd3)" style="fill: none; stroke: #000000; stroke-width: 2; stroke-linecap: round"/>
   </g>
   <g id="line2d_6">
    <path d="M 317.25 528.75 
L 317.25 555.75 
L 317.25 573.75 
" clip-path="url(#pfdd3ab5dd3)" style="fill: none; stroke: #000000; stroke-width: 2; stroke-linecap: round"/>
   </g>
   <g id="patch_8">
    <path d="M 319.95 573.75 
L 317.25 582.75 
L 314.55 573.75 
z
" clip-path="url(#pfdd3ab5dd3)"/>
   </g>
   <g id="line2d_7">
    <path d="M 416.25 218.25 
L 542.25 218.25 
L 542.25 380.25 
L 398.25 380.25 
" clip-path="url(#pfdd3ab5dd3)" style="fill: none; stroke: #000000; stroke-width: 2; stroke-linecap: round"/>
   </g>
   <g id="patch_9">
    <path d="M 398.25 382.95 
L 389.25 380.25 
L 398.25 377.55 
z
" clip-path="url(#pfdd3ab5dd3)"/>
   </g>
   <g id="line2d_8">
    <path d="M 29.25 380.25 
L 29.25 348.75 
L 209.25 348.75 
L 209.25 411.75 
L 29.25 411.75 
L 29.25 380.25 
" clip-path="url(#pfdd3ab5dd3)" style="fill: none; stroke: #000000; stroke-width: 2; stroke-linecap: round"/>
   </g>
   <g id="line2d_9">
    <path d="M 218.25 218.25 
L 119.25 218.25 
L 119.25 339.75 
" clip-path="url(#pfdd3ab5dd3)" style="fill: none; stroke: #000000; stroke-width: 2; stroke-linecap: round"/>
   </g>
   <g id="patch_10">
    <path d="M 121.95 339.75 
L 119.25 348.75 
L 116.55 339.75 
z
" clip-path="url(#pfdd3ab5dd3)"/>
   </g>
   <g id="line2d_10">
    <path d="M 119.25 411.75 
L 119.25 609.75 
L 218.25 609.75 
" clip-path="url(#pfdd3ab5dd3)" style="fill: none; stroke: #000000; stroke-width: 2; stroke-linecap: round"/>
   </g>
   <g id="patch_11">
    <path d="M 218.25 607.05 
L 227.25 609.75 
L 218.25 612.45 
z
" clip-path="url(#pfdd3ab5dd3)"/>
   </g>
   <g id="text_1">
    <!-- Ich möchte Python -->
    <g transform="translate(258.766602 59.201953) scale(0.125 -0.125)">
     <defs>
      <path id="DejaVuSans-49" d="M 628 4666 
L 1259 4666 
L 1259 0 
L 628 0 
L 628 4666 
z
" transform="scale(0.015625)"/>
      <path id="DejaVuSans-63" d="M 3122 3366 
L 3122 2828 
Q 2878 2963 2633 3030 
Q 2388 3097 2138 3097 
Q 1578 3097 1268 2742 
Q 959 2388 959 1747 
Q 959 1106 1268 751 
Q 1578 397 2138 397 
Q 2388 397 2633 464 
Q 2878 531 3122 666 
L 3122 134 
Q 2881 22 2623 -34 
Q 2366 -91 2075 -91 
Q 1284 -91 818 406 
Q 353 903 353 1747 
Q 353 2603 823 3093 
Q 1294 3584 2113 3584 
Q 2378 3584 2631 3529 
Q 2884 3475 3122 3366 
z
" transform="scale(0.015625)"/>
      <path id="DejaVuSans-68" d="M 3513 2113 
L 3513 0 
L 2938 0 
L 2938 2094 
Q 2938 2591 2744 2837 
Q 2550 3084 2163 3084 
Q 1697 3084 1428 2787 
Q 1159 2491 1159 1978 
L 1159 0 
L 581 0 
L 581 4863 
L 1159 4863 
L 1159 2956 
Q 1366 3272 1645 3428 
Q 1925 3584 2291 3584 
Q 2894 3584 3203 3211 
Q 3513 2838 3513 2113 
z
" transform="scale(0.015625)"/>
      <path id="DejaVuSans-20" transform="scale(0.015625)"/>
      <path id="DejaVuSans-6d" d="M 3328 2828 
Q 3544 3216 3844 3400 
Q 4144 3584 4550 3584 
Q 5097 3584 5394 3201 
Q 5691 2819 5691 2113 
L 5691 0 
L 5113 0 
L 5113 2094 
Q 5113 2597 4934 2840 
Q 4756 3084 4391 3084 
Q 3944 3084 3684 2787 
Q 3425 2491 3425 1978 
L 3425 0 
L 2847 0 
L 2847 2094 
Q 2847 2600 2669 2842 
Q 2491 3084 2119 3084 
Q 1678 3084 1418 2786 
Q 1159 2488 1159 1978 
L 1159 0 
L 581 0 
L 581 3500 
L 1159 3500 
L 1159 2956 
Q 1356 3278 1631 3431 
Q 1906 3584 2284 3584 
Q 2666 3584 2933 3390 
Q 3200 3197 3328 2828 
z
" transform="scale(0.015625)"/>
      <path id="DejaVuSans-f6" d="M 1959 3097 
Q 1497 3097 1228 2736 
Q 959 2375 959 1747 
Q 959 1119 1226 758 
Q 1494 397 1959 397 
Q 2419 397 2687 759 
Q 2956 1122 2956 1747 
Q 2956 2369 2687 2733 
Q 2419 3097 1959 3097 
z
M 1959 3584 
Q 2709 3584 3137 3096 
Q 3566 2609 3566 1747 
Q 3566 888 3137 398 
Q 2709 -91 1959 -91 
Q 1206 -91 779 398 
Q 353 888 353 1747 
Q 353 2609 779 3096 
Q 1206 3584 1959 3584 
z
M 2254 4850 
L 2888 4850 
L 2888 4219 
L 2254 4219 
L 2254 4850 
z
M 1032 4850 
L 1666 4850 
L 1666 4219 
L 1032 4219 
L 1032 4850 
z
" transform="scale(0.015625)"/>
      <path id="DejaVuSans-74" d="M 1172 4494 
L 1172 3500 
L 2356 3500 
L 2356 3053 
L 1172 3053 
L 1172 1153 
Q 1172 725 1289 603 
Q 1406 481 1766 481 
L 2356 481 
L 2356 0 
L 1766 0 
Q 1100 0 847 248 
Q 594 497 594 1153 
L 594 3053 
L 172 3053 
L 172 3500 
L 594 3500 
L 594 4494 
L 1172 4494 
z
" transform="scale(0.015625)"/>
      <path id="DejaVuSans-65" d="M 3597 1894 
L 3597 1613 
L 953 1613 
Q 991 1019 1311 708 
Q 1631 397 2203 397 
Q 2534 397 2845 478 
Q 3156 559 3463 722 
L 3463 178 
Q 3153 47 2828 -22 
Q 2503 -91 2169 -91 
Q 1331 -91 842 396 
Q 353 884 353 1716 
Q 353 2575 817 3079 
Q 1281 3584 2069 3584 
Q 2775 3584 3186 3129 
Q 3597 2675 3597 1894 
z
M 3022 2063 
Q 3016 2534 2758 2815 
Q 2500 3097 2075 3097 
Q 1594 3097 1305 2825 
Q 1016 2553 972 2059 
L 3022 2063 
z
" transform="scale(0.015625)"/>
      <path id="DejaVuSans-50" d="M 1259 4147 
L 1259 2394 
L 2053 2394 
Q 2494 2394 2734 2622 
Q 2975 2850 2975 3272 
Q 2975 3691 2734 3919 
Q 2494 4147 2053 4147 
L 1259 4147 
z
M 628 4666 
L 2053 4666 
Q 2838 4666 3239 4311 
Q 3641 3956 3641 3272 
Q 3641 2581 3239 2228 
Q 2838 1875 2053 1875 
L 1259 1875 
L 1259 0 
L 628 0 
L 628 4666 
z
" transform="scale(0.015625)"/>
      <path id="DejaVuSans-79" d="M 2059 -325 
Q 1816 -950 1584 -1140 
Q 1353 -1331 966 -1331 
L 506 -1331 
L 506 -850 
L 844 -850 
Q 1081 -850 1212 -737 
Q 1344 -625 1503 -206 
L 1606 56 
L 191 3500 
L 800 3500 
L 1894 763 
L 2988 3500 
L 3597 3500 
L 2059 -325 
z
" transform="scale(0.015625)"/>
      <path id="DejaVuSans-6f" d="M 1959 3097 
Q 1497 3097 1228 2736 
Q 959 2375 959 1747 
Q 959 1119 1226 758 
Q 1494 397 1959 397 
Q 2419 397 2687 759 
Q 2956 1122 2956 1747 
Q 2956 2369 2687 2733 
Q 2419 3097 1959 3097 
z
M 1959 3584 
Q 2709 3584 3137 3096 
Q 3566 2609 3566 1747 
Q 3566 888 3137 398 
Q 2709 -91 1959 -91 
Q 1206 -91 779 398 
Q 353 888 353 1747 
Q 353 2609 779 3096 
Q 1206 3584 1959 3584 
z
" transform="scale(0.015625)"/>
      <path id="DejaVuSans-6e" d="M 3513 2113 
L 3513 0 
L 2938 0 
L 2938 2094 
Q 2938 2591 2744 2837 
Q 2550 3084 2163 3084 
Q 1697 3084 1428 2787 
Q 1159 2491 1159 1978 
L 1159 0 
L 581 0 
L 581 3500 
L 1159 3500 
L 1159 2956 
Q 1366 3272 1645 3428 
Q 1925 3584 2291 3584 
Q 2894 3584 3203 3211 
Q 3513 2838 3513 2113 
z
" transform="scale(0.015625)"/>
     </defs>
     <use xlink:href="#DejaVuSans-49"/>
     <use xlink:href="#DejaVuSans-63" x="29.492188"/>
     <use xlink:href="#DejaVuSans-68" x="84.472656"/>
     <use xlink:href="#DejaVuSans-20" x="147.851562"/>
     <use xlink:href="#DejaVuSans-6d" x="179.638672"/>
     <use xlink:href="#DejaVuSans-f6" x="277.050781"/>
     <use xlink:href="#DejaVuSans-63" x="338.232422"/>
     <use xlink:href="#DejaVuSans-68" x="393.212891"/>
     <use xlink:href="#DejaVuSans-74" x="456.591797"/>
     <use xlink:href="#DejaVuSans-65" x="495.800781"/>
     <use xlink:href="#DejaVuSans-20" x="557.324219"/>
     <use xlink:href="#DejaVuSans-50" x="589.111328"/>
     <use xlink:href="#DejaVuSans-79" x="649.414062"/>
     <use xlink:href="#DejaVuSans-74" x="708.59375"/>
     <use xlink:href="#DejaVuSans-68" x="747.802734"/>
     <use xlink:href="#DejaVuSans-6f" x="811.181641"/>
     <use xlink:href="#DejaVuSans-6e" x="872.363281"/>
    </g>
    <!--  auf meinem Computer -->
    <g transform="translate(244.665039 73.199219) scale(0.125 -0.125)">
     <defs>
      <path id="DejaVuSans-61" d="M 2194 1759 
Q 1497 1759 1228 1600 
Q 959 1441 959 1056 
Q 959 750 1161 570 
Q 1363 391 1709 391 
Q 2188 391 2477 730 
Q 2766 1069 2766 1631 
L 2766 1759 
L 2194 1759 
z
M 3341 1997 
L 3341 0 
L 2766 0 
L 2766 531 
Q 2569 213 2275 61 
Q 1981 -91 1556 -91 
Q 1019 -91 701 211 
Q 384 513 384 1019 
Q 384 1609 779 1909 
Q 1175 2209 1959 2209 
L 2766 2209 
L 2766 2266 
Q 2766 2663 2505 2880 
Q 2244 3097 1772 3097 
Q 1472 3097 1187 3025 
Q 903 2953 641 2809 
L 641 3341 
Q 956 3463 1253 3523 
Q 1550 3584 1831 3584 
Q 2591 3584 2966 3190 
Q 3341 2797 3341 1997 
z
" transform="scale(0.015625)"/>
      <path id="DejaVuSans-75" d="M 544 1381 
L 544 3500 
L 1119 3500 
L 1119 1403 
Q 1119 906 1312 657 
Q 1506 409 1894 409 
Q 2359 409 2629 706 
Q 2900 1003 2900 1516 
L 2900 3500 
L 3475 3500 
L 3475 0 
L 2900 0 
L 2900 538 
Q 2691 219 2414 64 
Q 2138 -91 1772 -91 
Q 1169 -91 856 284 
Q 544 659 544 1381 
z
M 1991 3584 
L 1991 3584 
z
" transform="scale(0.015625)"/>
      <path id="DejaVuSans-66" d="M 2375 4863 
L 2375 4384 
L 1825 4384 
Q 1516 4384 1395 4259 
Q 1275 4134 1275 3809 
L 1275 3500 
L 2222 3500 
L 2222 3053 
L 1275 3053 
L 1275 0 
L 697 0 
L 697 3053 
L 147 3053 
L 147 3500 
L 697 3500 
L 697 3744 
Q 697 4328 969 4595 
Q 1241 4863 1831 4863 
L 2375 4863 
z
" transform="scale(0.015625)"/>
      <path id="DejaVuSans-69" d="M 603 3500 
L 1178 3500 
L 1178 0 
L 603 0 
L 603 3500 
z
M 603 4863 
L 1178 4863 
L 1178 4134 
L 603 4134 
L 603 4863 
z
" transform="scale(0.015625)"/>
      <path id="DejaVuSans-43" d="M 4122 4306 
L 4122 3641 
Q 3803 3938 3442 4084 
Q 3081 4231 2675 4231 
Q 1875 4231 1450 3742 
Q 1025 3253 1025 2328 
Q 1025 1406 1450 917 
Q 1875 428 2675 428 
Q 3081 428 3442 575 
Q 3803 722 4122 1019 
L 4122 359 
Q 3791 134 3420 21 
Q 3050 -91 2638 -91 
Q 1578 -91 968 557 
Q 359 1206 359 2328 
Q 359 3453 968 4101 
Q 1578 4750 2638 4750 
Q 3056 4750 3426 4639 
Q 3797 4528 4122 4306 
z
" transform="scale(0.015625)"/>
      <path id="DejaVuSans-70" d="M 1159 525 
L 1159 -1331 
L 581 -1331 
L 581 3500 
L 1159 3500 
L 1159 2969 
Q 1341 3281 1617 3432 
Q 1894 3584 2278 3584 
Q 2916 3584 3314 3078 
Q 3713 2572 3713 1747 
Q 3713 922 3314 415 
Q 2916 -91 2278 -91 
Q 1894 -91 1617 61 
Q 1341 213 1159 525 
z
M 3116 1747 
Q 3116 2381 2855 2742 
Q 2594 3103 2138 3103 
Q 1681 3103 1420 2742 
Q 1159 2381 1159 1747 
Q 1159 1113 1420 752 
Q 1681 391 2138 391 
Q 2594 391 2855 752 
Q 3116 1113 3116 1747 
z
" transform="scale(0.015625)"/>
      <path id="DejaVuSans-72" d="M 2631 2963 
Q 2534 3019 2420 3045 
Q 2306 3072 2169 3072 
Q 1681 3072 1420 2755 
Q 1159 2438 1159 1844 
L 1159 0 
L 581 0 
L 581 3500 
L 1159 3500 
L 1159 2956 
Q 1341 3275 1631 3429 
Q 1922 3584 2338 3584 
Q 2397 3584 2469 3576 
Q 2541 3569 2628 3553 
L 2631 2963 
z
" transform="scale(0.015625)"/>
     </defs>
     <use xlink:href="#DejaVuSans-20"/>
     <use xlink:href="#DejaVuSans-61" x="31.787109"/>
     <use xlink:href="#DejaVuSans-75" x="93.066406"/>
     <use xlink:href="#DejaVuSans-66" x="156.445312"/>
     <use xlink:href="#DejaVuSans-20" x="191.650391"/>
     <use xlink:href="#DejaVuSans-6d" x="223.4375"/>
     <use xlink:href="#DejaVuSans-65" x="320.849609"/>
     <use xlink:href="#DejaVuSans-69" x="382.373047"/>
     <use xlink:href="#DejaVuSans-6e" x="410.15625"/>
     <use xlink:href="#DejaVuSans-65" x="473.535156"/>
     <use xlink:href="#DejaVuSans-6d" x="535.058594"/>
     <use xlink:href="#DejaVuSans-20" x="632.470703"/>
     <use xlink:href="#DejaVuSans-43" x="664.257812"/>
     <use xlink:href="#DejaVuSans-6f" x="734.082031"/>
     <use xlink:href="#DejaVuSans-6d" x="795.263672"/>
     <use xlink:href="#DejaVuSans-70" x="892.675781"/>
     <use xlink:href="#DejaVuSans-75" x="956.152344"/>
     <use xlink:href="#DejaVuSans-74" x="1019.53125"/>
     <use xlink:href="#DejaVuSans-65" x="1058.740234"/>
     <use xlink:href="#DejaVuSans-72" x="1120.263672"/>
    </g>
    <!-- installieren -->
    <g transform="translate(282.726563 87.196484) scale(0.125 -0.125)">
     <defs>
      <path id="DejaVuSans-73" d="M 2834 3397 
L 2834 2853 
Q 2591 2978 2328 3040 
Q 2066 3103 1784 3103 
Q 1356 3103 1142 2972 
Q 928 2841 928 2578 
Q 928 2378 1081 2264 
Q 1234 2150 1697 2047 
L 1894 2003 
Q 2506 1872 2764 1633 
Q 3022 1394 3022 966 
Q 3022 478 2636 193 
Q 2250 -91 1575 -91 
Q 1294 -91 989 -36 
Q 684 19 347 128 
L 347 722 
Q 666 556 975 473 
Q 1284 391 1588 391 
Q 1994 391 2212 530 
Q 2431 669 2431 922 
Q 2431 1156 2273 1281 
Q 2116 1406 1581 1522 
L 1381 1569 
Q 847 1681 609 1914 
Q 372 2147 372 2553 
Q 372 3047 722 3315 
Q 1072 3584 1716 3584 
Q 2034 3584 2315 3537 
Q 2597 3491 2834 3397 
z
" transform="scale(0.015625)"/>
      <path id="DejaVuSans-6c" d="M 603 4863 
L 1178 4863 
L 1178 0 
L 603 0 
L 603 4863 
z
" transform="scale(0.015625)"/>
     </defs>
     <use xlink:href="#DejaVuSans-69"/>
     <use xlink:href="#DejaVuSans-6e" x="27.783203"/>
     <use xlink:href="#DejaVuSans-73" x="91.162109"/>
     <use xlink:href="#DejaVuSans-74" x="143.261719"/>
     <use xlink:href="#DejaVuSans-61" x="182.470703"/>
     <use xlink:href="#DejaVuSans-6c" x="243.75"/>
     <use xlink:href="#DejaVuSans-6c" x="271.533203"/>
     <use xlink:href="#DejaVuSans-69" x="299.316406"/>
     <use xlink:href="#DejaVuSans-65" x="327.099609"/>
     <use xlink:href="#DejaVuSans-72" x="388.623047"/>
     <use xlink:href="#DejaVuSans-65" x="427.486328"/>
     <use xlink:href="#DejaVuSans-6e" x="489.009766"/>
    </g>
   </g>
   <g id="text_2">
    <!-- irgendwas -->
    <g transform="translate(321.93 308.928047) scale(0.125 -0.125)">
     <defs>
      <path id="DejaVuSans-67" d="M 2906 1791 
Q 2906 2416 2648 2759 
Q 2391 3103 1925 3103 
Q 1463 3103 1205 2759 
Q 947 2416 947 1791 
Q 947 1169 1205 825 
Q 1463 481 1925 481 
Q 2391 481 2648 825 
Q 2906 1169 2906 1791 
z
M 3481 434 
Q 3481 -459 3084 -895 
Q 2688 -1331 1869 -1331 
Q 1566 -1331 1297 -1286 
Q 1028 -1241 775 -1147 
L 775 -588 
Q 1028 -725 1275 -790 
Q 1522 -856 1778 -856 
Q 2344 -856 2625 -561 
Q 2906 -266 2906 331 
L 2906 616 
Q 2728 306 2450 153 
Q 2172 0 1784 0 
Q 1141 0 747 490 
Q 353 981 353 1791 
Q 353 2603 747 3093 
Q 1141 3584 1784 3584 
Q 2172 3584 2450 3431 
Q 2728 3278 2906 2969 
L 2906 3500 
L 3481 3500 
L 3481 434 
z
" transform="scale(0.015625)"/>
      <path id="DejaVuSans-64" d="M 2906 2969 
L 2906 4863 
L 3481 4863 
L 3481 0 
L 2906 0 
L 2906 525 
Q 2725 213 2448 61 
Q 2172 -91 1784 -91 
Q 1150 -91 751 415 
Q 353 922 353 1747 
Q 353 2572 751 3078 
Q 1150 3584 1784 3584 
Q 2172 3584 2448 3432 
Q 2725 3281 2906 2969 
z
M 947 1747 
Q 947 1113 1208 752 
Q 1469 391 1925 391 
Q 2381 391 2643 752 
Q 2906 1113 2906 1747 
Q 2906 2381 2643 2742 
Q 2381 3103 1925 3103 
Q 1469 3103 1208 2742 
Q 947 2381 947 1747 
z
" transform="scale(0.015625)"/>
      <path id="DejaVuSans-77" d="M 269 3500 
L 844 3500 
L 1563 769 
L 2278 3500 
L 2956 3500 
L 3675 769 
L 4391 3500 
L 4966 3500 
L 4050 0 
L 3372 0 
L 2619 2869 
L 1863 0 
L 1184 0 
L 269 3500 
z
" transform="scale(0.015625)"/>
     </defs>
     <use xlink:href="#DejaVuSans-69"/>
     <use xlink:href="#DejaVuSans-72" x="27.783203"/>
     <use xlink:href="#DejaVuSans-67" x="67.146484"/>
     <use xlink:href="#DejaVuSans-65" x="130.623047"/>
     <use xlink:href="#DejaVuSans-6e" x="192.146484"/>
     <use xlink:href="#DejaVuSans-64" x="255.525391"/>
     <use xlink:href="#DejaVuSans-77" x="319.001953"/>
     <use xlink:href="#DejaVuSans-61" x="400.789062"/>
     <use xlink:href="#DejaVuSans-73" x="462.068359"/>
    </g>
    <!-- funktioniert nicht -->
    <g transform="translate(321.93 322.925312) scale(0.125 -0.125)">
     <defs>
      <path id="DejaVuSans-6b" d="M 581 4863 
L 1159 4863 
L 1159 1991 
L 2875 3500 
L 3609 3500 
L 1753 1863 
L 3688 0 
L 2938 0 
L 1159 1709 
L 1159 0 
L 581 0 
L 581 4863 
z
" transform="scale(0.015625)"/>
     </defs>
     <use xlink:href="#DejaVuSans-66"/>
     <use xlink:href="#DejaVuSans-75" x="35.205078"/>
     <use xlink:href="#DejaVuSans-6e" x="98.583984"/>
     <use xlink:href="#DejaVuSans-6b" x="161.962891"/>
     <use xlink:href="#DejaVuSans-74" x="219.873047"/>
     <use xlink:href="#DejaVuSans-69" x="259.082031"/>
     <use xlink:href="#DejaVuSans-6f" x="286.865234"/>
     <use xlink:href="#DejaVuSans-6e" x="348.046875"/>
     <use xlink:href="#DejaVuSans-69" x="411.425781"/>
     <use xlink:href="#DejaVuSans-65" x="439.208984"/>
     <use xlink:href="#DejaVuSans-72" x="500.732422"/>
     <use xlink:href="#DejaVuSans-74" x="541.845703"/>
     <use xlink:href="#DejaVuSans-20" x="581.054688"/>
     <use xlink:href="#DejaVuSans-6e" x="612.841797"/>
     <use xlink:href="#DejaVuSans-69" x="676.220703"/>
     <use xlink:href="#DejaVuSans-63" x="704.003906"/>
     <use xlink:href="#DejaVuSans-68" x="758.984375"/>
     <use xlink:href="#DejaVuSans-74" x="822.363281"/>
    </g>
   </g>
   <g id="text_3">
    <!-- nein, scheint -->
    <g transform="translate(420.93 196.973125) scale(0.125 -0.125)">
     <defs>
      <path id="DejaVuSans-2c" d="M 750 794 
L 1409 794 
L 1409 256 
L 897 -744 
L 494 -744 
L 750 256 
L 750 794 
z
" transform="scale(0.015625)"/>
     </defs>
     <use xlink:href="#DejaVuSans-6e"/>
     <use xlink:href="#DejaVuSans-65" x="63.378906"/>
     <use xlink:href="#DejaVuSans-69" x="124.902344"/>
     <use xlink:href="#DejaVuSans-6e" x="152.685547"/>
     <use xlink:href="#DejaVuSans-2c" x="216.064453"/>
     <use xlink:href="#DejaVuSans-20" x="247.851562"/>
     <use xlink:href="#DejaVuSans-73" x="279.638672"/>
     <use xlink:href="#DejaVuSans-63" x="331.738281"/>
     <use xlink:href="#DejaVuSans-68" x="386.71875"/>
     <use xlink:href="#DejaVuSans-65" x="450.097656"/>
     <use xlink:href="#DejaVuSans-69" x="511.621094"/>
     <use xlink:href="#DejaVuSans-6e" x="539.404297"/>
     <use xlink:href="#DejaVuSans-74" x="602.783203"/>
    </g>
    <!-- mir zu kompliziert -->
    <g transform="translate(420.93 210.970391) scale(0.125 -0.125)">
     <defs>
      <path id="DejaVuSans-7a" d="M 353 3500 
L 3084 3500 
L 3084 2975 
L 922 459 
L 3084 459 
L 3084 0 
L 275 0 
L 275 525 
L 2438 3041 
L 353 3041 
L 353 3500 
z
" transform="scale(0.015625)"/>
     </defs>
     <use xlink:href="#DejaVuSans-6d"/>
     <use xlink:href="#DejaVuSans-69" x="97.412109"/>
     <use xlink:href="#DejaVuSans-72" x="125.195312"/>
     <use xlink:href="#DejaVuSans-20" x="166.308594"/>
     <use xlink:href="#DejaVuSans-7a" x="198.095703"/>
     <use xlink:href="#DejaVuSans-75" x="250.585938"/>
     <use xlink:href="#DejaVuSans-20" x="313.964844"/>
     <use xlink:href="#DejaVuSans-6b" x="345.751953"/>
     <use xlink:href="#DejaVuSans-6f" x="400.037109"/>
     <use xlink:href="#DejaVuSans-6d" x="461.21875"/>
     <use xlink:href="#DejaVuSans-70" x="558.630859"/>
     <use xlink:href="#DejaVuSans-6c" x="622.107422"/>
     <use xlink:href="#DejaVuSans-69" x="649.890625"/>
     <use xlink:href="#DejaVuSans-7a" x="677.673828"/>
     <use xlink:href="#DejaVuSans-69" x="730.164062"/>
     <use xlink:href="#DejaVuSans-65" x="757.947266"/>
     <use xlink:href="#DejaVuSans-72" x="819.470703"/>
     <use xlink:href="#DejaVuSans-74" x="860.583984"/>
    </g>
   </g>
   <g id="text_4">
    <!-- ja, keine -->
    <g transform="translate(160.929375 196.973125) scale(0.125 -0.125)">
     <defs>
      <path id="DejaVuSans-6a" d="M 603 3500 
L 1178 3500 
L 1178 -63 
Q 1178 -731 923 -1031 
Q 669 -1331 103 -1331 
L -116 -1331 
L -116 -844 
L 38 -844 
Q 366 -844 484 -692 
Q 603 -541 603 -63 
L 603 3500 
z
M 603 4863 
L 1178 4863 
L 1178 4134 
L 603 4134 
L 603 4863 
z
" transform="scale(0.015625)"/>
     </defs>
     <use xlink:href="#DejaVuSans-6a"/>
     <use xlink:href="#DejaVuSans-61" x="27.783203"/>
     <use xlink:href="#DejaVuSans-2c" x="89.0625"/>
     <use xlink:href="#DejaVuSans-20" x="120.849609"/>
     <use xlink:href="#DejaVuSans-6b" x="152.636719"/>
     <use xlink:href="#DejaVuSans-65" x="206.921875"/>
     <use xlink:href="#DejaVuSans-69" x="268.445312"/>
     <use xlink:href="#DejaVuSans-6e" x="296.228516"/>
     <use xlink:href="#DejaVuSans-65" x="359.607422"/>
    </g>
    <!-- Probleme -->
    <g transform="translate(154.778984 210.970391) scale(0.125 -0.125)">
     <defs>
      <path id="DejaVuSans-62" d="M 3116 1747 
Q 3116 2381 2855 2742 
Q 2594 3103 2138 3103 
Q 1681 3103 1420 2742 
Q 1159 2381 1159 1747 
Q 1159 1113 1420 752 
Q 1681 391 2138 391 
Q 2594 391 2855 752 
Q 3116 1113 3116 1747 
z
M 1159 2969 
Q 1341 3281 1617 3432 
Q 1894 3584 2278 3584 
Q 2916 3584 3314 3078 
Q 3713 2572 3713 1747 
Q 3713 922 3314 415 
Q 2916 -91 2278 -91 
Q 1894 -91 1617 61 
Q 1341 213 1159 525 
L 1159 0 
L 581 0 
L 581 4863 
L 1159 4863 
L 1159 2969 
z
" transform="scale(0.015625)"/>
     </defs>
     <use xlink:href="#DejaVuSans-50"/>
     <use xlink:href="#DejaVuSans-72" x="58.552734"/>
     <use xlink:href="#DejaVuSans-6f" x="97.416016"/>
     <use xlink:href="#DejaVuSans-62" x="158.597656"/>
     <use xlink:href="#DejaVuSans-6c" x="222.074219"/>
     <use xlink:href="#DejaVuSans-65" x="249.857422"/>
     <use xlink:href="#DejaVuSans-6d" x="311.380859"/>
     <use xlink:href="#DejaVuSans-65" x="408.792969"/>
    </g>
   </g>
   <g id="text_5">
    <!-- Ich installiere -->
    <g transform="translate(275.459961 207.701953) scale(0.125 -0.125)">
     <use xlink:href="#DejaVuSans-49"/>
     <use xlink:href="#DejaVuSans-63" x="29.492188"/>
     <use xlink:href="#DejaVuSans-68" x="84.472656"/>
     <use xlink:href="#DejaVuSans-20" x="147.851562"/>
     <use xlink:href="#DejaVuSans-69" x="179.638672"/>
     <use xlink:href="#DejaVuSans-6e" x="207.421875"/>
     <use xlink:href="#DejaVuSans-73" x="270.800781"/>
     <use xlink:href="#DejaVuSans-74" x="322.900391"/>
     <use xlink:href="#DejaVuSans-61" x="362.109375"/>
     <use xlink:href="#DejaVuSans-6c" x="423.388672"/>
     <use xlink:href="#DejaVuSans-6c" x="451.171875"/>
     <use xlink:href="#DejaVuSans-69" x="478.955078"/>
     <use xlink:href="#DejaVuSans-65" x="506.738281"/>
     <use xlink:href="#DejaVuSans-72" x="568.261719"/>
     <use xlink:href="#DejaVuSans-65" x="607.125"/>
    </g>
    <!-- Jupyter Notebook z.B. -->
    <g transform="translate(249.368164 221.699219) scale(0.125 -0.125)">
     <defs>
      <path id="DejaVuSans-4a" d="M 628 4666 
L 1259 4666 
L 1259 325 
Q 1259 -519 939 -900 
Q 619 -1281 -91 -1281 
L -331 -1281 
L -331 -750 
L -134 -750 
Q 284 -750 456 -515 
Q 628 -281 628 325 
L 628 4666 
z
" transform="scale(0.015625)"/>
      <path id="DejaVuSans-4e" d="M 628 4666 
L 1478 4666 
L 3547 763 
L 3547 4666 
L 4159 4666 
L 4159 0 
L 3309 0 
L 1241 3903 
L 1241 0 
L 628 0 
L 628 4666 
z
" transform="scale(0.015625)"/>
      <path id="DejaVuSans-2e" d="M 684 794 
L 1344 794 
L 1344 0 
L 684 0 
L 684 794 
z
" transform="scale(0.015625)"/>
      <path id="DejaVuSans-42" d="M 1259 2228 
L 1259 519 
L 2272 519 
Q 2781 519 3026 730 
Q 3272 941 3272 1375 
Q 3272 1813 3026 2020 
Q 2781 2228 2272 2228 
L 1259 2228 
z
M 1259 4147 
L 1259 2741 
L 2194 2741 
Q 2656 2741 2882 2914 
Q 3109 3088 3109 3444 
Q 3109 3797 2882 3972 
Q 2656 4147 2194 4147 
L 1259 4147 
z
M 628 4666 
L 2241 4666 
Q 2963 4666 3353 4366 
Q 3744 4066 3744 3513 
Q 3744 3084 3544 2831 
Q 3344 2578 2956 2516 
Q 3422 2416 3680 2098 
Q 3938 1781 3938 1306 
Q 3938 681 3513 340 
Q 3088 0 2303 0 
L 628 0 
L 628 4666 
z
" transform="scale(0.015625)"/>
     </defs>
     <use xlink:href="#DejaVuSans-4a"/>
     <use xlink:href="#DejaVuSans-75" x="29.492188"/>
     <use xlink:href="#DejaVuSans-70" x="92.871094"/>
     <use xlink:href="#DejaVuSans-79" x="156.347656"/>
     <use xlink:href="#DejaVuSans-74" x="215.527344"/>
     <use xlink:href="#DejaVuSans-65" x="254.736328"/>
     <use xlink:href="#DejaVuSans-72" x="316.259766"/>
     <use xlink:href="#DejaVuSans-20" x="357.373047"/>
     <use xlink:href="#DejaVuSans-4e" x="389.160156"/>
     <use xlink:href="#DejaVuSans-6f" x="463.964844"/>
     <use xlink:href="#DejaVuSans-74" x="525.146484"/>
     <use xlink:href="#DejaVuSans-65" x="564.355469"/>
     <use xlink:href="#DejaVuSans-62" x="625.878906"/>
     <use xlink:href="#DejaVuSans-6f" x="689.355469"/>
     <use xlink:href="#DejaVuSans-6f" x="750.537109"/>
     <use xlink:href="#DejaVuSans-6b" x="811.71875"/>
     <use xlink:href="#DejaVuSans-20" x="869.628906"/>
     <use xlink:href="#DejaVuSans-7a" x="901.416016"/>
     <use xlink:href="#DejaVuSans-2e" x="953.90625"/>
     <use xlink:href="#DejaVuSans-42" x="985.693359"/>
     <use xlink:href="#DejaVuSans-2e" x="1054.296875"/>
    </g>
    <!--  via Anaconda -->
    <g transform="translate(272.925781 235.696484) scale(0.125 -0.125)">
     <defs>
      <path id="DejaVuSans-76" d="M 191 3500 
L 800 3500 
L 1894 563 
L 2988 3500 
L 3597 3500 
L 2284 0 
L 1503 0 
L 191 3500 
z
" transform="scale(0.015625)"/>
      <path id="DejaVuSans-41" d="M 2188 4044 
L 1331 1722 
L 3047 1722 
L 2188 4044 
z
M 1831 4666 
L 2547 4666 
L 4325 0 
L 3669 0 
L 3244 1197 
L 1141 1197 
L 716 0 
L 50 0 
L 1831 4666 
z
" transform="scale(0.015625)"/>
     </defs>
     <use xlink:href="#DejaVuSans-20"/>
     <use xlink:href="#DejaVuSans-76" x="31.787109"/>
     <use xlink:href="#DejaVuSans-69" x="90.966797"/>
     <use xlink:href="#DejaVuSans-61" x="118.75"/>
     <use xlink:href="#DejaVuSans-20" x="180.029297"/>
     <use xlink:href="#DejaVuSans-41" x="211.816406"/>
     <use xlink:href="#DejaVuSans-6e" x="280.224609"/>
     <use xlink:href="#DejaVuSans-61" x="343.603516"/>
     <use xlink:href="#DejaVuSans-63" x="404.882812"/>
     <use xlink:href="#DejaVuSans-6f" x="459.863281"/>
     <use xlink:href="#DejaVuSans-6e" x="521.044922"/>
     <use xlink:href="#DejaVuSans-64" x="584.423828"/>
     <use xlink:href="#DejaVuSans-61" x="647.900391"/>
    </g>
   </g>
   <g id="text_6">
    <!-- Ich installiere -->
    <g transform="translate(275.459961 369.701953) scale(0.125 -0.125)">
     <use xlink:href="#DejaVuSans-49"/>
     <use xlink:href="#DejaVuSans-63" x="29.492188"/>
     <use xlink:href="#DejaVuSans-68" x="84.472656"/>
     <use xlink:href="#DejaVuSans-20" x="147.851562"/>
     <use xlink:href="#DejaVuSans-69" x="179.638672"/>
     <use xlink:href="#DejaVuSans-6e" x="207.421875"/>
     <use xlink:href="#DejaVuSans-73" x="270.800781"/>
     <use xlink:href="#DejaVuSans-74" x="322.900391"/>
     <use xlink:href="#DejaVuSans-61" x="362.109375"/>
     <use xlink:href="#DejaVuSans-6c" x="423.388672"/>
     <use xlink:href="#DejaVuSans-6c" x="451.171875"/>
     <use xlink:href="#DejaVuSans-69" x="478.955078"/>
     <use xlink:href="#DejaVuSans-65" x="506.738281"/>
     <use xlink:href="#DejaVuSans-72" x="568.261719"/>
     <use xlink:href="#DejaVuSans-65" x="607.125"/>
    </g>
    <!-- Thonny für die -->
    <g transform="translate(271.773438 383.699219) scale(0.125 -0.125)">
     <defs>
      <path id="DejaVuSans-54" d="M -19 4666 
L 3928 4666 
L 3928 4134 
L 2272 4134 
L 2272 0 
L 1638 0 
L 1638 4134 
L -19 4134 
L -19 4666 
z
" transform="scale(0.015625)"/>
      <path id="DejaVuSans-fc" d="M 544 1381 
L 544 3500 
L 1119 3500 
L 1119 1403 
Q 1119 906 1312 657 
Q 1506 409 1894 409 
Q 2359 409 2629 706 
Q 2900 1003 2900 1516 
L 2900 3500 
L 3475 3500 
L 3475 0 
L 2900 0 
L 2900 538 
Q 2691 219 2414 64 
Q 2138 -91 1772 -91 
Q 1169 -91 856 284 
Q 544 659 544 1381 
z
M 1991 3584 
L 1991 3584 
z
M 2278 4850 
L 2912 4850 
L 2912 4219 
L 2278 4219 
L 2278 4850 
z
M 1056 4850 
L 1690 4850 
L 1690 4219 
L 1056 4219 
L 1056 4850 
z
" transform="scale(0.015625)"/>
     </defs>
     <use xlink:href="#DejaVuSans-54"/>
     <use xlink:href="#DejaVuSans-68" x="61.083984"/>
     <use xlink:href="#DejaVuSans-6f" x="124.462891"/>
     <use xlink:href="#DejaVuSans-6e" x="185.644531"/>
     <use xlink:href="#DejaVuSans-6e" x="249.023438"/>
     <use xlink:href="#DejaVuSans-79" x="312.402344"/>
     <use xlink:href="#DejaVuSans-20" x="371.582031"/>
     <use xlink:href="#DejaVuSans-66" x="403.369141"/>
     <use xlink:href="#DejaVuSans-fc" x="438.574219"/>
     <use xlink:href="#DejaVuSans-72" x="501.953125"/>
     <use xlink:href="#DejaVuSans-20" x="543.066406"/>
     <use xlink:href="#DejaVuSans-64" x="574.853516"/>
     <use xlink:href="#DejaVuSans-69" x="638.330078"/>
     <use xlink:href="#DejaVuSans-65" x="666.113281"/>
    </g>
    <!-- Vorbereitung -->
    <g transform="translate(276.901367 397.696484) scale(0.125 -0.125)">
     <defs>
      <path id="DejaVuSans-56" d="M 1831 0 
L 50 4666 
L 709 4666 
L 2188 738 
L 3669 4666 
L 4325 4666 
L 2547 0 
L 1831 0 
z
" transform="scale(0.015625)"/>
     </defs>
     <use xlink:href="#DejaVuSans-56"/>
     <use xlink:href="#DejaVuSans-6f" x="60.658203"/>
     <use xlink:href="#DejaVuSans-72" x="121.839844"/>
     <use xlink:href="#DejaVuSans-62" x="162.953125"/>
     <use xlink:href="#DejaVuSans-65" x="226.429688"/>
     <use xlink:href="#DejaVuSans-72" x="287.953125"/>
     <use xlink:href="#DejaVuSans-65" x="326.816406"/>
     <use xlink:href="#DejaVuSans-69" x="388.339844"/>
     <use xlink:href="#DejaVuSans-74" x="416.123047"/>
     <use xlink:href="#DejaVuSans-75" x="455.332031"/>
     <use xlink:href="#DejaVuSans-6e" x="518.710938"/>
     <use xlink:href="#DejaVuSans-67" x="582.089844"/>
    </g>
   </g>
   <g id="text_7">
    <!-- Begleitete  -->
    <g transform="translate(283.251953 486.701953) scale(0.125 -0.125)">
     <use xlink:href="#DejaVuSans-42"/>
     <use xlink:href="#DejaVuSans-65" x="68.603516"/>
     <use xlink:href="#DejaVuSans-67" x="130.126953"/>
     <use xlink:href="#DejaVuSans-6c" x="193.603516"/>
     <use xlink:href="#DejaVuSans-65" x="221.386719"/>
     <use xlink:href="#DejaVuSans-69" x="282.910156"/>
     <use xlink:href="#DejaVuSans-74" x="310.693359"/>
     <use xlink:href="#DejaVuSans-65" x="349.902344"/>
     <use xlink:href="#DejaVuSans-74" x="411.425781"/>
     <use xlink:href="#DejaVuSans-65" x="450.634766"/>
     <use xlink:href="#DejaVuSans-20" x="512.158203"/>
    </g>
    <!-- Jupyter-Installation -->
    <g transform="translate(258.441406 500.699219) scale(0.125 -0.125)">
     <defs>
      <path id="DejaVuSans-2d" d="M 313 2009 
L 1997 2009 
L 1997 1497 
L 313 1497 
L 313 2009 
z
" transform="scale(0.015625)"/>
     </defs>
     <use xlink:href="#DejaVuSans-4a"/>
     <use xlink:href="#DejaVuSans-75" x="29.492188"/>
     <use xlink:href="#DejaVuSans-70" x="92.871094"/>
     <use xlink:href="#DejaVuSans-79" x="156.347656"/>
     <use xlink:href="#DejaVuSans-74" x="215.527344"/>
     <use xlink:href="#DejaVuSans-65" x="254.736328"/>
     <use xlink:href="#DejaVuSans-72" x="316.259766"/>
     <use xlink:href="#DejaVuSans-2d" x="350.998047"/>
     <use xlink:href="#DejaVuSans-49" x="387.082031"/>
     <use xlink:href="#DejaVuSans-6e" x="416.574219"/>
     <use xlink:href="#DejaVuSans-73" x="479.953125"/>
     <use xlink:href="#DejaVuSans-74" x="532.052734"/>
     <use xlink:href="#DejaVuSans-61" x="571.261719"/>
     <use xlink:href="#DejaVuSans-6c" x="632.541016"/>
     <use xlink:href="#DejaVuSans-6c" x="660.324219"/>
     <use xlink:href="#DejaVuSans-61" x="688.107422"/>
     <use xlink:href="#DejaVuSans-74" x="749.386719"/>
     <use xlink:href="#DejaVuSans-69" x="788.595703"/>
     <use xlink:href="#DejaVuSans-6f" x="816.378906"/>
     <use xlink:href="#DejaVuSans-6e" x="877.560547"/>
    </g>
    <!-- am 1. Kurstag -->
    <g transform="translate(273.576172 514.696484) scale(0.125 -0.125)">
     <defs>
      <path id="DejaVuSans-31" d="M 794 531 
L 1825 531 
L 1825 4091 
L 703 3866 
L 703 4441 
L 1819 4666 
L 2450 4666 
L 2450 531 
L 3481 531 
L 3481 0 
L 794 0 
L 794 531 
z
" transform="scale(0.015625)"/>
      <path id="DejaVuSans-4b" d="M 628 4666 
L 1259 4666 
L 1259 2694 
L 3353 4666 
L 4166 4666 
L 1850 2491 
L 4331 0 
L 3500 0 
L 1259 2247 
L 1259 0 
L 628 0 
L 628 4666 
z
" transform="scale(0.015625)"/>
     </defs>
     <use xlink:href="#DejaVuSans-61"/>
     <use xlink:href="#DejaVuSans-6d" x="61.279297"/>
     <use xlink:href="#DejaVuSans-20" x="158.691406"/>
     <use xlink:href="#DejaVuSans-31" x="190.478516"/>
     <use xlink:href="#DejaVuSans-2e" x="254.101562"/>
     <use xlink:href="#DejaVuSans-20" x="285.888672"/>
     <use xlink:href="#DejaVuSans-4b" x="317.675781"/>
     <use xlink:href="#DejaVuSans-75" x="378.251953"/>
     <use xlink:href="#DejaVuSans-72" x="441.630859"/>
     <use xlink:href="#DejaVuSans-73" x="482.744141"/>
     <use xlink:href="#DejaVuSans-74" x="534.84375"/>
     <use xlink:href="#DejaVuSans-61" x="574.052734"/>
     <use xlink:href="#DejaVuSans-67" x="635.332031"/>
    </g>
   </g>
   <g id="text_8">
    <!-- Wir nutzen -->
    <g transform="translate(283.459961 599.201953) scale(0.125 -0.125)">
     <defs>
      <path id="DejaVuSans-57" d="M 213 4666 
L 850 4666 
L 1831 722 
L 2809 4666 
L 3519 4666 
L 4500 722 
L 5478 4666 
L 6119 4666 
L 4947 0 
L 4153 0 
L 3169 4050 
L 2175 0 
L 1381 0 
L 213 4666 
z
" transform="scale(0.015625)"/>
     </defs>
     <use xlink:href="#DejaVuSans-57"/>
     <use xlink:href="#DejaVuSans-69" x="96.626953"/>
     <use xlink:href="#DejaVuSans-72" x="124.410156"/>
     <use xlink:href="#DejaVuSans-20" x="165.523438"/>
     <use xlink:href="#DejaVuSans-6e" x="197.310547"/>
     <use xlink:href="#DejaVuSans-75" x="260.689453"/>
     <use xlink:href="#DejaVuSans-74" x="324.068359"/>
     <use xlink:href="#DejaVuSans-7a" x="363.277344"/>
     <use xlink:href="#DejaVuSans-65" x="415.767578"/>
     <use xlink:href="#DejaVuSans-6e" x="477.291016"/>
    </g>
    <!-- Jupyter Notebook -->
    <g transform="translate(262.895508 613.199219) scale(0.125 -0.125)">
     <use xlink:href="#DejaVuSans-4a"/>
     <use xlink:href="#DejaVuSans-75" x="29.492188"/>
     <use xlink:href="#DejaVuSans-70" x="92.871094"/>
     <use xlink:href="#DejaVuSans-79" x="156.347656"/>
     <use xlink:href="#DejaVuSans-74" x="215.527344"/>
     <use xlink:href="#DejaVuSans-65" x="254.736328"/>
     <use xlink:href="#DejaVuSans-72" x="316.259766"/>
     <use xlink:href="#DejaVuSans-20" x="357.373047"/>
     <use xlink:href="#DejaVuSans-4e" x="389.160156"/>
     <use xlink:href="#DejaVuSans-6f" x="463.964844"/>
     <use xlink:href="#DejaVuSans-74" x="525.146484"/>
     <use xlink:href="#DejaVuSans-65" x="564.355469"/>
     <use xlink:href="#DejaVuSans-62" x="625.878906"/>
     <use xlink:href="#DejaVuSans-6f" x="689.355469"/>
     <use xlink:href="#DejaVuSans-6f" x="750.537109"/>
     <use xlink:href="#DejaVuSans-6b" x="811.71875"/>
    </g>
    <!-- im Kurs -->
    <g transform="translate(293.867188 627.196484) scale(0.125 -0.125)">
     <use xlink:href="#DejaVuSans-69"/>
     <use xlink:href="#DejaVuSans-6d" x="27.783203"/>
     <use xlink:href="#DejaVuSans-20" x="125.195312"/>
     <use xlink:href="#DejaVuSans-4b" x="156.982422"/>
     <use xlink:href="#DejaVuSans-75" x="217.558594"/>
     <use xlink:href="#DejaVuSans-72" x="280.9375"/>
     <use xlink:href="#DejaVuSans-73" x="322.050781"/>
    </g>
   </g>
   <g id="text_9">
    <!-- Ich nutze Jupyter -->
    <g transform="translate(66.201172 369.701953) scale(0.125 -0.125)">
     <use xlink:href="#DejaVuSans-49"/>
     <use xlink:href="#DejaVuSans-63" x="29.492188"/>
     <use xlink:href="#DejaVuSans-68" x="84.472656"/>
     <use xlink:href="#DejaVuSans-20" x="147.851562"/>
     <use xlink:href="#DejaVuSans-6e" x="179.638672"/>
     <use xlink:href="#DejaVuSans-75" x="243.017578"/>
     <use xlink:href="#DejaVuSans-74" x="306.396484"/>
     <use xlink:href="#DejaVuSans-7a" x="345.605469"/>
     <use xlink:href="#DejaVuSans-65" x="398.095703"/>
     <use xlink:href="#DejaVuSans-20" x="459.619141"/>
     <use xlink:href="#DejaVuSans-4a" x="491.40625"/>
     <use xlink:href="#DejaVuSans-75" x="520.898438"/>
     <use xlink:href="#DejaVuSans-70" x="584.277344"/>
     <use xlink:href="#DejaVuSans-79" x="647.753906"/>
     <use xlink:href="#DejaVuSans-74" x="706.933594"/>
     <use xlink:href="#DejaVuSans-65" x="746.142578"/>
     <use xlink:href="#DejaVuSans-72" x="807.666016"/>
    </g>
    <!-- Notebook für -->
    <g transform="translate(78.501953 383.699219) scale(0.125 -0.125)">
     <use xlink:href="#DejaVuSans-4e"/>
     <use xlink:href="#DejaVuSans-6f" x="74.804688"/>
     <use xlink:href="#DejaVuSans-74" x="135.986328"/>
     <use xlink:href="#DejaVuSans-65" x="175.195312"/>
     <use xlink:href="#DejaVuSans-62" x="236.71875"/>
     <use xlink:href="#DejaVuSans-6f" x="300.195312"/>
     <use xlink:href="#DejaVuSans-6f" x="361.376953"/>
     <use xlink:href="#DejaVuSans-6b" x="422.558594"/>
     <use xlink:href="#DejaVuSans-20" x="480.46875"/>
     <use xlink:href="#DejaVuSans-66" x="512.255859"/>
     <use xlink:href="#DejaVuSans-fc" x="547.460938"/>
     <use xlink:href="#DejaVuSans-72" x="610.839844"/>
    </g>
    <!-- die Vorbereitung -->
    <g transform="translate(67.365234 397.696484) scale(0.125 -0.125)">
     <use xlink:href="#DejaVuSans-64"/>
     <use xlink:href="#DejaVuSans-69" x="63.476562"/>
     <use xlink:href="#DejaVuSans-65" x="91.259766"/>
     <use xlink:href="#DejaVuSans-20" x="152.783203"/>
     <use xlink:href="#DejaVuSans-56" x="184.570312"/>
     <use xlink:href="#DejaVuSans-6f" x="245.228516"/>
     <use xlink:href="#DejaVuSans-72" x="306.410156"/>
     <use xlink:href="#DejaVuSans-62" x="347.523438"/>
     <use xlink:href="#DejaVuSans-65" x="411"/>
     <use xlink:href="#DejaVuSans-72" x="472.523438"/>
     <use xlink:href="#DejaVuSans-65" x="511.386719"/>
     <use xlink:href="#DejaVuSans-69" x="572.910156"/>
     <use xlink:href="#DejaVuSans-74" x="600.693359"/>
     <use xlink:href="#DejaVuSans-75" x="639.902344"/>
     <use xlink:href="#DejaVuSans-6e" x="703.28125"/>
     <use xlink:href="#DejaVuSans-67" x="766.660156"/>
    </g>
   </g>
  </g>
 </g>
 <defs>
  <clipPath id="pfdd3ab5dd3">
   <rect x="3.6" y="3.6" width="564.3" height="663.3"/>
  </clipPath>
 </defs>
</svg>
