<?xml version="1.0" encoding="utf-8" standalone="no"?>
<!DOCTYPE svg PUBLIC "-//W3C//DTD SVG 1.1//EN"
  "http://www.w3.org/Graphics/SVG/1.1/DTD/svg11.dtd">
<svg xmlns:xlink="http://www.w3.org/1999/xlink" width="680.4pt" height="640.8pt" viewBox="0 0 680.4 640.8" xmlns="http://www.w3.org/2000/svg" version="1.1">
 <metadata>
  <rdf:RDF xmlns:dc="http://purl.org/dc/elements/1.1/" xmlns:cc="http://creativecommons.org/ns#" xmlns:rdf="http://www.w3.org/1999/02/22-rdf-syntax-ns#">
   <cc:Work>
    <dc:type rdf:resource="http://purl.org/dc/dcmitype/StillImage"/>
    <dc:date>2023-06-19T00:28:14.856355</dc:date>
    <dc:format>image/svg+xml</dc:format>
    <dc:creator>
     <cc:Agent>
      <dc:title>Matplotlib v3.7.1, https://matplotlib.org/</dc:title>
     </cc:Agent>
    </dc:creator>
   </cc:Work>
  </rdf:RDF>
 </metadata>
 <defs>
  <style type="text/css">*{stroke-linejoin: round; stroke-linecap: butt}</style>
 </defs>
 <g id="figure_1">
  <g id="patch_1">
   <path d="M 0 640.8 
L 680.4 640.8 
L 680.4 0 
L 0 0 
L 0 640.8 
z
" style="fill: none"/>
  </g>
  <g id="axes_1">
   <g id="patch_2">
    <path d="M 250.2 86.4 
L 250.628381 86.396601 
L 251.056654 86.386407 
L 251.484712 86.369418 
L 251.912446 86.34564 
L 252.339749 86.315079 
L 252.766513 86.277742 
L 253.192631 86.233639 
L 253.617996 86.18278 
L 254.042501 86.125179 
L 254.466038 86.06085 
L 254.888501 85.989809 
L 255.309784 85.912075 
L 255.72978 85.827666 
L 256.148384 85.736604 
L 256.565491 85.638912 
L 256.980996 85.534615 
L 257.394793 85.423738 
L 257.806779 85.30631 
L 258.21685 85.182361 
L 258.624903 85.05192 
L 259.030835 84.915022 
L 259.434544 84.771701 
L 259.835928 84.621992 
L 260.234886 84.465934 
L 260.631318 84.303566 
L 261.025124 84.134928 
L 261.416205 83.960064 
L 261.804463 83.779017 
L 262.189799 83.591832 
L 262.572116 83.398557 
L 262.951319 83.199241 
L 263.327312 82.993933 
L 263.7 82.782686 
L 264.06929 82.565552 
L 264.435088 82.342587 
L 264.797302 82.113845 
L 265.155842 81.879386 
L 265.510616 81.639268 
L 265.861537 81.393551 
L 266.208514 81.142297 
L 266.551462 80.88557 
L 266.890293 80.623434 
L 267.224922 80.355955 
L 267.555265 80.0832 
L 267.88124 79.805239 
L 268.202763 79.52214 
L 268.519754 79.233976 
L 268.832133 78.940819 
L 269.139822 78.642743 
L 269.442743 78.339822 
L 269.740819 78.032133 
L 270.033976 77.719754 
L 270.32214 77.402763 
L 270.605239 77.08124 
L 270.8832 76.755265 
L 271.155955 76.424922 
L 271.423434 76.090293 
L 271.68557 75.751462 
L 271.942297 75.408514 
L 272.193551 75.061537 
L 272.439268 74.710616 
L 272.679386 74.355842 
L 272.913845 73.997302 
L 273.142587 73.635088 
L 273.365552 73.26929 
L 273.582686 72.9 
L 273.793933 72.527312 
L 273.999241 72.151319 
L 274.198557 71.772116 
L 274.391832 71.389799 
L 274.579017 71.004463 
L 274.760064 70.616205 
L 274.934928 70.225124 
L 275.103566 69.831318 
L 275.265934 69.434886 
L 275.421992 69.035928 
L 275.571701 68.634544 
L 275.715022 68.230835 
L 275.85192 67.824903 
L 275.982361 67.41685 
L 276.10631 67.006779 
L 276.223738 66.594793 
L 276.334615 66.180996 
L 276.438912 65.765491 
L 276.536604 65.348384 
L 276.627666 64.92978 
L 276.712075 64.509784 
L 276.789809 64.088501 
L 276.86085 63.666038 
L 276.925179 63.242501 
L 276.98278 62.817996 
L 277.033639 62.392631 
L 277.077742 61.966513 
L 277.115079 61.539749 
L 277.14564 61.112446 
L 277.169418 60.684712 
L 277.186407 60.256654 
L 277.196601 59.828381 
L 277.2 59.4 
L 277.2 59.4 
L 277.196601 58.971619 
L 277.186407 58.543346 
L 277.169418 58.115288 
L 277.14564 57.687554 
L 277.115079 57.260251 
L 277.077742 56.833487 
L 277.033639 56.407369 
L 276.98278 55.982004 
L 276.925179 55.557499 
L 276.86085 55.133962 
L 276.789809 54.711499 
L 276.712075 54.290216 
L 276.627666 53.87022 
L 276.536604 53.451616 
L 276.438912 53.034509 
L 276.334615 52.619004 
L 276.223738 52.205207 
L 276.10631 51.793221 
L 275.982361 51.38315 
L 275.85192 50.975097 
L 275.715022 50.569165 
L 275.571701 50.165456 
L 275.421992 49.764072 
L 275.265934 49.365114 
L 275.103566 48.968682 
L 274.934928 48.574876 
L 274.760064 48.183795 
L 274.579017 47.795537 
L 274.391832 47.410201 
L 274.198557 47.027884 
L 273.999241 46.648681 
L 273.793933 46.272688 
L 273.582686 45.9 
L 273.365552 45.53071 
L 273.142587 45.164912 
L 272.913845 44.802698 
L 272.679386 44.444158 
L 272.439268 44.089384 
L 272.193551 43.738463 
L 271.942297 43.391486 
L 271.68557 43.048538 
L 271.423434 42.709707 
L 271.155955 42.375078 
L 270.8832 42.044735 
L 270.605239 41.71876 
L 270.32214 41.397237 
L 270.033976 41.080246 
L 269.740819 40.767867 
L 269.442743 40.460178 
L 269.139822 40.157257 
L 268.832133 39.859181 
L 268.519754 39.566024 
L 268.202763 39.27786 
L 267.88124 38.994761 
L 267.555265 38.7168 
L 267.224922 38.444045 
L 266.890293 38.176566 
L 266.551462 37.91443 
L 266.208514 37.657703 
L 265.861537 37.406449 
L 265.510616 37.160732 
L 265.155842 36.920614 
L 264.797302 36.686155 
L 264.435088 36.457413 
L 264.06929 36.234448 
L 263.7 36.017314 
L 263.327312 35.806067 
L 262.951319 35.600759 
L 262.572116 35.401443 
L 262.189799 35.208168 
L 261.804463 35.020983 
L 261.416205 34.839936 
L 261.025124 34.665072 
L 260.631318 34.496434 
L 260.234886 34.334066 
L 259.835928 34.178008 
L 259.434544 34.028299 
L 259.030835 33.884978 
L 258.624903 33.74808 
L 258.21685 33.617639 
L 257.806779 33.49369 
L 257.394793 33.376262 
L 256.980996 33.265385 
L 256.565491 33.161088 
L 256.148384 33.063396 
L 255.72978 32.972334 
L 255.309784 32.887925 
L 254.888501 32.810191 
L 254.466038 32.73915 
L 254.042501 32.674821 
L 253.617996 32.61722 
L 253.192631 32.566361 
L 252.766513 32.522258 
L 252.339749 32.484921 
L 251.912446 32.45436 
L 251.484712 32.430582 
L 251.056654 32.413593 
L 250.628381 32.403399 
L 250.2 32.4 
L 124.2 32.4 
L 123.771619 32.403399 
L 123.343346 32.413593 
L 122.915288 32.430582 
L 122.487554 32.45436 
L 122.060251 32.484921 
L 121.633487 32.522258 
L 121.207369 32.566361 
L 120.782004 32.61722 
L 120.357499 32.674821 
L 119.933962 32.73915 
L 119.511499 32.810191 
L 119.090216 32.887925 
L 118.67022 32.972334 
L 118.251616 33.063396 
L 117.834509 33.161088 
L 117.419004 33.265385 
L 117.005207 33.376262 
L 116.593221 33.49369 
L 116.18315 33.617639 
L 115.775097 33.74808 
L 115.369165 33.884978 
L 114.965456 34.028299 
L 114.564072 34.178008 
L 114.165114 34.334066 
L 113.768682 34.496434 
L 113.374876 34.665072 
L 112.983795 34.839936 
L 112.595537 35.020983 
L 112.210201 35.208168 
L 111.827884 35.401443 
L 111.448681 35.600759 
L 111.072688 35.806067 
L 110.7 36.017314 
L 110.33071 36.234448 
L 109.964912 36.457413 
L 109.602698 36.686155 
L 109.244158 36.920614 
L 108.889384 37.160732 
L 108.538463 37.406449 
L 108.191486 37.657703 
L 107.848538 37.91443 
L 107.509707 38.176566 
L 107.175078 38.444045 
L 106.844735 38.7168 
L 106.51876 38.994761 
L 106.197237 39.27786 
L 105.880246 39.566024 
L 105.567867 39.859181 
L 105.260178 40.157257 
L 104.957257 40.460178 
L 104.659181 40.767867 
L 104.366024 41.080246 
L 104.07786 41.397237 
L 103.794761 41.71876 
L 103.5168 42.044735 
L 103.244045 42.375078 
L 102.976566 42.709707 
L 102.71443 43.048538 
L 102.457703 43.391486 
L 102.206449 43.738463 
L 101.960732 44.089384 
L 101.720614 44.444158 
L 101.486155 44.802698 
L 101.257413 45.164912 
L 101.034448 45.53071 
L 100.817314 45.9 
L 100.606067 46.272688 
L 100.400759 46.648681 
L 100.201443 47.027884 
L 100.008168 47.410201 
L 99.820983 47.795537 
L 99.639936 48.183795 
L 99.465072 48.574876 
L 99.296434 48.968682 
L 99.134066 49.365114 
L 98.978008 49.764072 
L 98.828299 50.165456 
L 98.684978 50.569165 
L 98.54808 50.975097 
L 98.417639 51.38315 
L 98.29369 51.793221 
L 98.176262 52.205207 
L 98.065385 52.619004 
L 97.961088 53.034509 
L 97.863396 53.451616 
L 97.772334 53.87022 
L 97.687925 54.290216 
L 97.610191 54.711499 
L 97.53915 55.133962 
L 97.474821 55.557499 
L 97.41722 55.982004 
L 97.366361 56.407369 
L 97.322258 56.833487 
L 97.284921 57.260251 
L 97.25436 57.687554 
L 97.230582 58.115288 
L 97.213593 58.543346 
L 97.203399 58.971619 
L 97.2 59.4 
L 97.2 59.4 
L 97.203399 59.828381 
L 97.213593 60.256654 
L 97.230582 60.684712 
L 97.25436 61.112446 
L 97.284921 61.539749 
L 97.322258 61.966513 
L 97.366361 62.392631 
L 97.41722 62.817996 
L 97.474821 63.242501 
L 97.53915 63.666038 
L 97.610191 64.088501 
L 97.687925 64.509784 
L 97.772334 64.92978 
L 97.863396 65.348384 
L 97.961088 65.765491 
L 98.065385 66.180996 
L 98.176262 66.594793 
L 98.29369 67.006779 
L 98.417639 67.41685 
L 98.54808 67.824903 
L 98.684978 68.230835 
L 98.828299 68.634544 
L 98.978008 69.035928 
L 99.134066 69.434886 
L 99.296434 69.831318 
L 99.465072 70.225124 
L 99.639936 70.616205 
L 99.820983 71.004463 
L 100.008168 71.389799 
L 100.201443 71.772116 
L 100.400759 72.151319 
L 100.606067 72.527312 
L 100.817314 72.9 
L 101.034448 73.26929 
L 101.257413 73.635088 
L 101.486155 73.997302 
L 101.720614 74.355842 
L 101.960732 74.710616 
L 102.206449 75.061537 
L 102.457703 75.408514 
L 102.71443 75.751462 
L 102.976566 76.090293 
L 103.244045 76.424922 
L 103.5168 76.755265 
L 103.794761 77.08124 
L 104.07786 77.402763 
L 104.366024 77.719754 
L 104.659181 78.032133 
L 104.957257 78.339822 
L 105.260178 78.642743 
L 105.567867 78.940819 
L 105.880246 79.233976 
L 106.197237 79.52214 
L 106.51876 79.805239 
L 106.844735 80.0832 
L 107.175078 80.355955 
L 107.509707 80.623434 
L 107.848538 80.88557 
L 108.191486 81.142297 
L 108.538463 81.393551 
L 108.889384 81.639268 
L 109.244158 81.879386 
L 109.602698 82.113845 
L 109.964912 82.342587 
L 110.33071 82.565552 
L 110.7 82.782686 
L 111.072688 82.993933 
L 111.448681 83.199241 
L 111.827884 83.398557 
L 112.210201 83.591832 
L 112.595537 83.779017 
L 112.983795 83.960064 
L 113.374876 84.134928 
L 113.768682 84.303566 
L 114.165114 84.465934 
L 114.564072 84.621992 
L 114.965456 84.771701 
L 115.369165 84.915022 
L 115.775097 85.05192 
L 116.18315 85.182361 
L 116.593221 85.30631 
L 117.005207 85.423738 
L 117.419004 85.534615 
L 117.834509 85.638912 
L 118.251616 85.736604 
L 118.67022 85.827666 
L 119.090216 85.912075 
L 119.511499 85.989809 
L 119.933962 86.06085 
L 120.357499 86.125179 
L 120.782004 86.18278 
L 121.207369 86.233639 
L 121.633487 86.277742 
L 122.060251 86.315079 
L 122.487554 86.34564 
L 122.915288 86.369418 
L 123.343346 86.386407 
L 123.771619 86.396601 
L 124.2 86.4 
L 250.2 86.4 
z
" clip-path="url(#pd4ceb4155e)" style="fill: none; stroke: #000000; stroke-width: 2; stroke-linecap: round"/>
   </g>
   <g id="patch_3">
    <path d="M 88.2 194.4 
L 187.2 122.4 
L 286.2 194.4 
L 187.2 266.4 
L 88.2 194.4 
z
" clip-path="url(#pd4ceb4155e)" style="fill: none; stroke: #000000; stroke-width: 2; stroke-linecap: round"/>
   </g>
   <g id="patch_4">
    <path d="M 115.2 446.4 
L 187.2 392.4 
L 259.2 446.4 
L 187.2 500.4 
L 115.2 446.4 
z
" clip-path="url(#pd4ceb4155e)" style="fill: none; stroke: #000000; stroke-width: 2; stroke-linecap: round"/>
   </g>
   <g id="patch_5">
    <path d="M 538.2 446.4 
L 592.2 396 
L 646.2 446.4 
L 592.2 496.8 
L 538.2 446.4 
z
" clip-path="url(#pd4ceb4155e)" style="fill: none; stroke: #000000; stroke-width: 2; stroke-linecap: round"/>
   </g>
   <g id="patch_6">
    <path d="M 250.2 608.4 
L 250.628381 608.396601 
L 251.056654 608.386407 
L 251.484712 608.369418 
L 251.912446 608.34564 
L 252.339749 608.315079 
L 252.766513 608.277742 
L 253.192631 608.233639 
L 253.617996 608.18278 
L 254.042501 608.125179 
L 254.466038 608.06085 
L 254.888501 607.989809 
L 255.309784 607.912075 
L 255.72978 607.827666 
L 256.148384 607.736604 
L 256.565491 607.638912 
L 256.980996 607.534615 
L 257.394793 607.423738 
L 257.806779 607.30631 
L 258.21685 607.182361 
L 258.624903 607.05192 
L 259.030835 606.915022 
L 259.434544 606.771701 
L 259.835928 606.621992 
L 260.234886 606.465934 
L 260.631318 606.303566 
L 261.025124 606.134928 
L 261.416205 605.960064 
L 261.804463 605.779017 
L 262.189799 605.591832 
L 262.572116 605.398557 
L 262.951319 605.199241 
L 263.327312 604.993933 
L 263.7 604.782686 
L 264.06929 604.565552 
L 264.435088 604.342587 
L 264.797302 604.113845 
L 265.155842 603.879386 
L 265.510616 603.639268 
L 265.861537 603.393551 
L 266.208514 603.142297 
L 266.551462 602.88557 
L 266.890293 602.623434 
L 267.224922 602.355955 
L 267.555265 602.0832 
L 267.88124 601.805239 
L 268.202763 601.52214 
L 268.519754 601.233976 
L 268.832133 600.940819 
L 269.139822 600.642743 
L 269.442743 600.339822 
L 269.740819 600.032133 
L 270.033976 599.719754 
L 270.32214 599.402763 
L 270.605239 599.08124 
L 270.8832 598.755265 
L 271.155955 598.424922 
L 271.423434 598.090293 
L 271.68557 597.751462 
L 271.942297 597.408514 
L 272.193551 597.061537 
L 272.439268 596.710616 
L 272.679386 596.355842 
L 272.913845 595.997302 
L 273.142587 595.635088 
L 273.365552 595.26929 
L 273.582686 594.9 
L 273.793933 594.527312 
L 273.999241 594.151319 
L 274.198557 593.772116 
L 274.391832 593.389799 
L 274.579017 593.004463 
L 274.760064 592.616205 
L 274.934928 592.225124 
L 275.103566 591.831318 
L 275.265934 591.434886 
L 275.421992 591.035928 
L 275.571701 590.634544 
L 275.715022 590.230835 
L 275.85192 589.824903 
L 275.982361 589.41685 
L 276.10631 589.006779 
L 276.223738 588.594793 
L 276.334615 588.180996 
L 276.438912 587.765491 
L 276.536604 587.348384 
L 276.627666 586.92978 
L 276.712075 586.509784 
L 276.789809 586.088501 
L 276.86085 585.666038 
L 276.925179 585.242501 
L 276.98278 584.817996 
L 277.033639 584.392631 
L 277.077742 583.966513 
L 277.115079 583.539749 
L 277.14564 583.112446 
L 277.169418 582.684712 
L 277.186407 582.256654 
L 277.196601 581.828381 
L 277.2 581.4 
L 277.2 581.4 
L 277.196601 580.971619 
L 277.186407 580.543346 
L 277.169418 580.115288 
L 277.14564 579.687554 
L 277.115079 579.260251 
L 277.077742 578.833487 
L 277.033639 578.407369 
L 276.98278 577.982004 
L 276.925179 577.557499 
L 276.86085 577.133962 
L 276.789809 576.711499 
L 276.712075 576.290216 
L 276.627666 575.87022 
L 276.536604 575.451616 
L 276.438912 575.034509 
L 276.334615 574.619004 
L 276.223738 574.205207 
L 276.10631 573.793221 
L 275.982361 573.38315 
L 275.85192 572.975097 
L 275.715022 572.569165 
L 275.571701 572.165456 
L 275.421992 571.764072 
L 275.265934 571.365114 
L 275.103566 570.968682 
L 274.934928 570.574876 
L 274.760064 570.183795 
L 274.579017 569.795537 
L 274.391832 569.410201 
L 274.198557 569.027884 
L 273.999241 568.648681 
L 273.793933 568.272688 
L 273.582686 567.9 
L 273.365552 567.53071 
L 273.142587 567.164912 
L 272.913845 566.802698 
L 272.679386 566.444158 
L 272.439268 566.089384 
L 272.193551 565.738463 
L 271.942297 565.391486 
L 271.68557 565.048538 
L 271.423434 564.709707 
L 271.155955 564.375078 
L 270.8832 564.044735 
L 270.605239 563.71876 
L 270.32214 563.397237 
L 270.033976 563.080246 
L 269.740819 562.767867 
L 269.442743 562.460178 
L 269.139822 562.157257 
L 268.832133 561.859181 
L 268.519754 561.566024 
L 268.202763 561.27786 
L 267.88124 560.994761 
L 267.555265 560.7168 
L 267.224922 560.444045 
L 266.890293 560.176566 
L 266.551462 559.91443 
L 266.208514 559.657703 
L 265.861537 559.406449 
L 265.510616 559.160732 
L 265.155842 558.920614 
L 264.797302 558.686155 
L 264.435088 558.457413 
L 264.06929 558.234448 
L 263.7 558.017314 
L 263.327312 557.806067 
L 262.951319 557.600759 
L 262.572116 557.401443 
L 262.189799 557.208168 
L 261.804463 557.020983 
L 261.416205 556.839936 
L 261.025124 556.665072 
L 260.631318 556.496434 
L 260.234886 556.334066 
L 259.835928 556.178008 
L 259.434544 556.028299 
L 259.030835 555.884978 
L 258.624903 555.74808 
L 258.21685 555.617639 
L 257.806779 555.49369 
L 257.394793 555.376262 
L 256.980996 555.265385 
L 256.565491 555.161088 
L 256.148384 555.063396 
L 255.72978 554.972334 
L 255.309784 554.887925 
L 254.888501 554.810191 
L 254.466038 554.73915 
L 254.042501 554.674821 
L 253.617996 554.61722 
L 253.192631 554.566361 
L 252.766513 554.522258 
L 252.339749 554.484921 
L 251.912446 554.45436 
L 251.484712 554.430582 
L 251.056654 554.413593 
L 250.628381 554.403399 
L 250.2 554.4 
L 124.2 554.4 
L 123.771619 554.403399 
L 123.343346 554.413593 
L 122.915288 554.430582 
L 122.487554 554.45436 
L 122.060251 554.484921 
L 121.633487 554.522258 
L 121.207369 554.566361 
L 120.782004 554.61722 
L 120.357499 554.674821 
L 119.933962 554.73915 
L 119.511499 554.810191 
L 119.090216 554.887925 
L 118.67022 554.972334 
L 118.251616 555.063396 
L 117.834509 555.161088 
L 117.419004 555.265385 
L 117.005207 555.376262 
L 116.593221 555.49369 
L 116.18315 555.617639 
L 115.775097 555.74808 
L 115.369165 555.884978 
L 114.965456 556.028299 
L 114.564072 556.178008 
L 114.165114 556.334066 
L 113.768682 556.496434 
L 113.374876 556.665072 
L 112.983795 556.839936 
L 112.595537 557.020983 
L 112.210201 557.208168 
L 111.827884 557.401443 
L 111.448681 557.600759 
L 111.072688 557.806067 
L 110.7 558.017314 
L 110.33071 558.234448 
L 109.964912 558.457413 
L 109.602698 558.686155 
L 109.244158 558.920614 
L 108.889384 559.160732 
L 108.538463 559.406449 
L 108.191486 559.657703 
L 107.848538 559.91443 
L 107.509707 560.176566 
L 107.175078 560.444045 
L 106.844735 560.7168 
L 106.51876 560.994761 
L 106.197237 561.27786 
L 105.880246 561.566024 
L 105.567867 561.859181 
L 105.260178 562.157257 
L 104.957257 562.460178 
L 104.659181 562.767867 
L 104.366024 563.080246 
L 104.07786 563.397237 
L 103.794761 563.71876 
L 103.5168 564.044735 
L 103.244045 564.375078 
L 102.976566 564.709707 
L 102.71443 565.048538 
L 102.457703 565.391486 
L 102.206449 565.738463 
L 101.960732 566.089384 
L 101.720614 566.444158 
L 101.486155 566.802698 
L 101.257413 567.164912 
L 101.034448 567.53071 
L 100.817314 567.9 
L 100.606067 568.272688 
L 100.400759 568.648681 
L 100.201443 569.027884 
L 100.008168 569.410201 
L 99.820983 569.795537 
L 99.639936 570.183795 
L 99.465072 570.574876 
L 99.296434 570.968682 
L 99.134066 571.365114 
L 98.978008 571.764072 
L 98.828299 572.165456 
L 98.684978 572.569165 
L 98.54808 572.975097 
L 98.417639 573.38315 
L 98.29369 573.793221 
L 98.176262 574.205207 
L 98.065385 574.619004 
L 97.961088 575.034509 
L 97.863396 575.451616 
L 97.772334 575.87022 
L 97.687925 576.290216 
L 97.610191 576.711499 
L 97.53915 577.133962 
L 97.474821 577.557499 
L 97.41722 577.982004 
L 97.366361 578.407369 
L 97.322258 578.833487 
L 97.284921 579.260251 
L 97.25436 579.687554 
L 97.230582 580.115288 
L 97.213593 580.543346 
L 97.203399 580.971619 
L 97.2 581.4 
L 97.2 581.4 
L 97.203399 581.828381 
L 97.213593 582.256654 
L 97.230582 582.684712 
L 97.25436 583.112446 
L 97.284921 583.539749 
L 97.322258 583.966513 
L 97.366361 584.392631 
L 97.41722 584.817996 
L 97.474821 585.242501 
L 97.53915 585.666038 
L 97.610191 586.088501 
L 97.687925 586.509784 
L 97.772334 586.92978 
L 97.863396 587.348384 
L 97.961088 587.765491 
L 98.065385 588.180996 
L 98.176262 588.594793 
L 98.29369 589.006779 
L 98.417639 589.41685 
L 98.54808 589.824903 
L 98.684978 590.230835 
L 98.828299 590.634544 
L 98.978008 591.035928 
L 99.134066 591.434886 
L 99.296434 591.831318 
L 99.465072 592.225124 
L 99.639936 592.616205 
L 99.820983 593.004463 
L 100.008168 593.389799 
L 100.201443 593.772116 
L 100.400759 594.151319 
L 100.606067 594.527312 
L 100.817314 594.9 
L 101.034448 595.26929 
L 101.257413 595.635088 
L 101.486155 595.997302 
L 101.720614 596.355842 
L 101.960732 596.710616 
L 102.206449 597.061537 
L 102.457703 597.408514 
L 102.71443 597.751462 
L 102.976566 598.090293 
L 103.244045 598.424922 
L 103.5168 598.755265 
L 103.794761 599.08124 
L 104.07786 599.402763 
L 104.366024 599.719754 
L 104.659181 600.032133 
L 104.957257 600.339822 
L 105.260178 600.642743 
L 105.567867 600.940819 
L 105.880246 601.233976 
L 106.197237 601.52214 
L 106.51876 601.805239 
L 106.844735 602.0832 
L 107.175078 602.355955 
L 107.509707 602.623434 
L 107.848538 602.88557 
L 108.191486 603.142297 
L 108.538463 603.393551 
L 108.889384 603.639268 
L 109.244158 603.879386 
L 109.602698 604.113845 
L 109.964912 604.342587 
L 110.33071 604.565552 
L 110.7 604.782686 
L 111.072688 604.993933 
L 111.448681 605.199241 
L 111.827884 605.398557 
L 112.210201 605.591832 
L 112.595537 605.779017 
L 112.983795 605.960064 
L 113.374876 606.134928 
L 113.768682 606.303566 
L 114.165114 606.465934 
L 114.564072 606.621992 
L 114.965456 606.771701 
L 115.369165 606.915022 
L 115.775097 607.05192 
L 116.18315 607.182361 
L 116.593221 607.30631 
L 117.005207 607.423738 
L 117.419004 607.534615 
L 117.834509 607.638912 
L 118.251616 607.736604 
L 118.67022 607.827666 
L 119.090216 607.912075 
L 119.511499 607.989809 
L 119.933962 608.06085 
L 120.357499 608.125179 
L 120.782004 608.18278 
L 121.207369 608.233639 
L 121.633487 608.277742 
L 122.060251 608.315079 
L 122.487554 608.34564 
L 122.915288 608.369418 
L 123.343346 608.386407 
L 123.771619 608.396601 
L 124.2 608.4 
L 250.2 608.4 
z
" clip-path="url(#pd4ceb4155e)" style="fill: none; stroke: #000000; stroke-width: 2; stroke-linecap: round"/>
   </g>
   <g id="line2d_1">
    <path d="M 187.2 86.4 
L 187.2 104.4 
L 187.2 113.4 
" clip-path="url(#pd4ceb4155e)" style="fill: none; stroke: #000000; stroke-width: 2; stroke-linecap: round"/>
   </g>
   <g id="patch_7">
    <path d="M 189.9 113.4 
L 187.2 122.4 
L 184.5 113.4 
z
" clip-path="url(#pd4ceb4155e)"/>
   </g>
   <g id="line2d_2">
    <path d="M 187.2 266.4 
L 187.2 284.4 
L 187.2 293.4 
" clip-path="url(#pd4ceb4155e)" style="fill: none; stroke: #000000; stroke-width: 2; stroke-linecap: round"/>
   </g>
   <g id="patch_8">
    <path d="M 189.9 293.4 
L 187.2 302.4 
L 184.5 293.4 
z
" clip-path="url(#pd4ceb4155e)"/>
   </g>
   <g id="line2d_3">
    <path d="M 115.2 329.4 
L 115.2 302.4 
L 259.2 302.4 
L 259.2 356.4 
L 115.2 356.4 
L 115.2 329.4 
" clip-path="url(#pd4ceb4155e)" style="fill: none; stroke: #000000; stroke-width: 2; stroke-linecap: round"/>
   </g>
   <g id="line2d_4">
    <path d="M 88.2 194.4 
L 34.2 194.4 
L 34.2 329.4 
L 106.2 329.4 
" clip-path="url(#pd4ceb4155e)" style="fill: none; stroke: #000000; stroke-width: 2; stroke-linecap: round"/>
   </g>
   <g id="patch_9">
    <path d="M 106.2 326.7 
L 115.2 329.4 
L 106.2 332.1 
z
" clip-path="url(#pd4ceb4155e)"/>
   </g>
   <g id="line2d_5">
    <path d="M 286.2 194.4 
L 313.2 194.4 
L 331.2 194.4 
" clip-path="url(#pd4ceb4155e)" style="fill: none; stroke: #000000; stroke-width: 2; stroke-linecap: round"/>
   </g>
   <g id="patch_10">
    <path d="M 331.2 191.7 
L 340.2 194.4 
L 331.2 197.1 
z
" clip-path="url(#pd4ceb4155e)"/>
   </g>
   <g id="line2d_6">
    <path d="M 340.2 194.4 
L 340.2 167.4 
L 484.2 167.4 
L 484.2 221.4 
L 340.2 221.4 
L 340.2 194.4 
" clip-path="url(#pd4ceb4155e)" style="fill: none; stroke: #000000; stroke-width: 2; stroke-linecap: round"/>
   </g>
   <g id="line2d_7">
    <path d="M 412.2 221.4 
L 412.2 329.4 
L 268.2 329.4 
" clip-path="url(#pd4ceb4155e)" style="fill: none; stroke: #000000; stroke-width: 2; stroke-linecap: round"/>
   </g>
   <g id="patch_11">
    <path d="M 268.2 332.1 
L 259.2 329.4 
L 268.2 326.7 
z
" clip-path="url(#pd4ceb4155e)"/>
   </g>
   <g id="line2d_8">
    <path d="M 187.2 356.4 
L 187.2 374.4 
L 187.2 383.4 
" clip-path="url(#pd4ceb4155e)" style="fill: none; stroke: #000000; stroke-width: 2; stroke-linecap: round"/>
   </g>
   <g id="patch_12">
    <path d="M 189.9 383.4 
L 187.2 392.4 
L 184.5 383.4 
z
" clip-path="url(#pd4ceb4155e)"/>
   </g>
   <g id="line2d_9">
    <path d="M 259.2 446.4 
L 299.7 446.4 
L 331.2 446.4 
" clip-path="url(#pd4ceb4155e)" style="fill: none; stroke: #000000; stroke-width: 2; stroke-linecap: round"/>
   </g>
   <g id="patch_13">
    <path d="M 331.2 443.7 
L 340.2 446.4 
L 331.2 449.1 
z
" clip-path="url(#pd4ceb4155e)"/>
   </g>
   <g id="line2d_10">
    <path d="M 340.2 446.4 
L 340.2 414.9 
L 484.2 414.9 
L 484.2 477.9 
L 340.2 477.9 
L 340.2 446.4 
" clip-path="url(#pd4ceb4155e)" style="fill: none; stroke: #000000; stroke-width: 2; stroke-linecap: round"/>
   </g>
   <g id="line2d_11">
    <path d="M 484.2 446.4 
L 529.2 446.4 
" clip-path="url(#pd4ceb4155e)" style="fill: none; stroke: #000000; stroke-width: 2; stroke-linecap: round"/>
   </g>
   <g id="patch_14">
    <path d="M 529.2 443.7 
L 538.2 446.4 
L 529.2 449.1 
z
" clip-path="url(#pd4ceb4155e)"/>
   </g>
   <g id="line2d_12">
    <path d="M 484.2 446.4 
L 529.2 446.4 
" clip-path="url(#pd4ceb4155e)" style="fill: none; stroke: #000000; stroke-width: 2; stroke-linecap: round"/>
   </g>
   <g id="patch_15">
    <path d="M 529.2 443.7 
L 538.2 446.4 
L 529.2 449.1 
z
" clip-path="url(#pd4ceb4155e)"/>
   </g>
   <g id="line2d_13">
    <path d="M 187.2 500.4 
L 187.2 513.9 
L 187.2 527.4 
" clip-path="url(#pd4ceb4155e)" style="fill: none; stroke: #000000; stroke-width: 2; stroke-linecap: round"/>
   </g>
   <g id="line2d_14">
    <path d="M 187.2 527.4 
L 263.7 527.4 
L 331.2 527.4 
" clip-path="url(#pd4ceb4155e)" style="fill: none; stroke: #000000; stroke-width: 2; stroke-linecap: round"/>
   </g>
   <g id="patch_16">
    <path d="M 331.2 524.7 
L 340.2 527.4 
L 331.2 530.1 
z
" clip-path="url(#pd4ceb4155e)"/>
   </g>
   <g id="line2d_15">
    <path d="M 340.2 527.4 
L 340.2 495.9 
L 484.2 495.9 
L 484.2 558.9 
L 340.2 558.9 
L 340.2 527.4 
" clip-path="url(#pd4ceb4155e)" style="fill: none; stroke: #000000; stroke-width: 2; stroke-linecap: round"/>
   </g>
   <g id="line2d_16">
    <path d="M 484.2 527.4 
L 511.2 527.4 
L 511.2 446.4 
L 529.2 446.4 
" clip-path="url(#pd4ceb4155e)" style="fill: none; stroke: #000000; stroke-width: 2; stroke-linecap: round"/>
   </g>
   <g id="patch_17">
    <path d="M 529.2 443.7 
L 538.2 446.4 
L 529.2 449.1 
z
" clip-path="url(#pd4ceb4155e)"/>
   </g>
   <g id="line2d_17">
    <path d="M 115.2 446.4 
L 61.2 446.4 
L 61.2 581.4 
L 88.2 581.4 
" clip-path="url(#pd4ceb4155e)" style="fill: none; stroke: #000000; stroke-width: 2; stroke-linecap: round"/>
   </g>
   <g id="patch_18">
    <path d="M 88.2 578.7 
L 97.2 581.4 
L 88.2 584.1 
z
" clip-path="url(#pd4ceb4155e)"/>
   </g>
   <g id="line2d_18">
    <path d="M 592.2 396 
L 592.2 194.4 
L 493.2 194.4 
" clip-path="url(#pd4ceb4155e)" style="fill: none; stroke: #000000; stroke-width: 2; stroke-linecap: round"/>
   </g>
   <g id="patch_19">
    <path d="M 493.2 197.1 
L 484.2 194.4 
L 493.2 191.7 
z
" clip-path="url(#pd4ceb4155e)"/>
   </g>
   <g id="line2d_19">
    <path d="M 592.2 496.8 
L 592.2 581.4 
L 286.2 581.4 
" clip-path="url(#pd4ceb4155e)" style="fill: none; stroke: #000000; stroke-width: 2; stroke-linecap: round"/>
   </g>
   <g id="patch_20">
    <path d="M 286.2 584.1 
L 277.2 581.4 
L 286.2 578.7 
z
" clip-path="url(#pd4ceb4155e)"/>
   </g>
   <g id="text_1">
    <!-- Ich möchte am -->
    <g transform="translate(140.462695 55.850586) scale(0.125 -0.125)">
     <defs>
      <path id="DejaVuSans-49" d="M 628 4666 
L 1259 4666 
L 1259 0 
L 628 0 
L 628 4666 
z
" transform="scale(0.015625)"/>
      <path id="DejaVuSans-63" d="M 3122 3366 
L 3122 2828 
Q 2878 2963 2633 3030 
Q 2388 3097 2138 3097 
Q 1578 3097 1268 2742 
Q 959 2388 959 1747 
Q 959 1106 1268 751 
Q 1578 397 2138 397 
Q 2388 397 2633 464 
Q 2878 531 3122 666 
L 3122 134 
Q 2881 22 2623 -34 
Q 2366 -91 2075 -91 
Q 1284 -91 818 406 
Q 353 903 353 1747 
Q 353 2603 823 3093 
Q 1294 3584 2113 3584 
Q 2378 3584 2631 3529 
Q 2884 3475 3122 3366 
z
" transform="scale(0.015625)"/>
      <path id="DejaVuSans-68" d="M 3513 2113 
L 3513 0 
L 2938 0 
L 2938 2094 
Q 2938 2591 2744 2837 
Q 2550 3084 2163 3084 
Q 1697 3084 1428 2787 
Q 1159 2491 1159 1978 
L 1159 0 
L 581 0 
L 581 4863 
L 1159 4863 
L 1159 2956 
Q 1366 3272 1645 3428 
Q 1925 3584 2291 3584 
Q 2894 3584 3203 3211 
Q 3513 2838 3513 2113 
z
" transform="scale(0.015625)"/>
      <path id="DejaVuSans-20" transform="scale(0.015625)"/>
      <path id="DejaVuSans-6d" d="M 3328 2828 
Q 3544 3216 3844 3400 
Q 4144 3584 4550 3584 
Q 5097 3584 5394 3201 
Q 5691 2819 5691 2113 
L 5691 0 
L 5113 0 
L 5113 2094 
Q 5113 2597 4934 2840 
Q 4756 3084 4391 3084 
Q 3944 3084 3684 2787 
Q 3425 2491 3425 1978 
L 3425 0 
L 2847 0 
L 2847 2094 
Q 2847 2600 2669 2842 
Q 2491 3084 2119 3084 
Q 1678 3084 1418 2786 
Q 1159 2488 1159 1978 
L 1159 0 
L 581 0 
L 581 3500 
L 1159 3500 
L 1159 2956 
Q 1356 3278 1631 3431 
Q 1906 3584 2284 3584 
Q 2666 3584 2933 3390 
Q 3200 3197 3328 2828 
z
" transform="scale(0.015625)"/>
      <path id="DejaVuSans-f6" d="M 1959 3097 
Q 1497 3097 1228 2736 
Q 959 2375 959 1747 
Q 959 1119 1226 758 
Q 1494 397 1959 397 
Q 2419 397 2687 759 
Q 2956 1122 2956 1747 
Q 2956 2369 2687 2733 
Q 2419 3097 1959 3097 
z
M 1959 3584 
Q 2709 3584 3137 3096 
Q 3566 2609 3566 1747 
Q 3566 888 3137 398 
Q 2709 -91 1959 -91 
Q 1206 -91 779 398 
Q 353 888 353 1747 
Q 353 2609 779 3096 
Q 1206 3584 1959 3584 
z
M 2254 4850 
L 2888 4850 
L 2888 4219 
L 2254 4219 
L 2254 4850 
z
M 1032 4850 
L 1666 4850 
L 1666 4219 
L 1032 4219 
L 1032 4850 
z
" transform="scale(0.015625)"/>
      <path id="DejaVuSans-74" d="M 1172 4494 
L 1172 3500 
L 2356 3500 
L 2356 3053 
L 1172 3053 
L 1172 1153 
Q 1172 725 1289 603 
Q 1406 481 1766 481 
L 2356 481 
L 2356 0 
L 1766 0 
Q 1100 0 847 248 
Q 594 497 594 1153 
L 594 3053 
L 172 3053 
L 172 3500 
L 594 3500 
L 594 4494 
L 1172 4494 
z
" transform="scale(0.015625)"/>
      <path id="DejaVuSans-65" d="M 3597 1894 
L 3597 1613 
L 953 1613 
Q 991 1019 1311 708 
Q 1631 397 2203 397 
Q 2534 397 2845 478 
Q 3156 559 3463 722 
L 3463 178 
Q 3153 47 2828 -22 
Q 2503 -91 2169 -91 
Q 1331 -91 842 396 
Q 353 884 353 1716 
Q 353 2575 817 3079 
Q 1281 3584 2069 3584 
Q 2775 3584 3186 3129 
Q 3597 2675 3597 1894 
z
M 3022 2063 
Q 3016 2534 2758 2815 
Q 2500 3097 2075 3097 
Q 1594 3097 1305 2825 
Q 1016 2553 972 2059 
L 3022 2063 
z
" transform="scale(0.015625)"/>
      <path id="DejaVuSans-61" d="M 2194 1759 
Q 1497 1759 1228 1600 
Q 959 1441 959 1056 
Q 959 750 1161 570 
Q 1363 391 1709 391 
Q 2188 391 2477 730 
Q 2766 1069 2766 1631 
L 2766 1759 
L 2194 1759 
z
M 3341 1997 
L 3341 0 
L 2766 0 
L 2766 531 
Q 2569 213 2275 61 
Q 1981 -91 1556 -91 
Q 1019 -91 701 211 
Q 384 513 384 1019 
Q 384 1609 779 1909 
Q 1175 2209 1959 2209 
L 2766 2209 
L 2766 2266 
Q 2766 2663 2505 2880 
Q 2244 3097 1772 3097 
Q 1472 3097 1187 3025 
Q 903 2953 641 2809 
L 641 3341 
Q 956 3463 1253 3523 
Q 1550 3584 1831 3584 
Q 2591 3584 2966 3190 
Q 3341 2797 3341 1997 
z
" transform="scale(0.015625)"/>
     </defs>
     <use xlink:href="#DejaVuSans-49"/>
     <use xlink:href="#DejaVuSans-63" x="29.492188"/>
     <use xlink:href="#DejaVuSans-68" x="84.472656"/>
     <use xlink:href="#DejaVuSans-20" x="147.851562"/>
     <use xlink:href="#DejaVuSans-6d" x="179.638672"/>
     <use xlink:href="#DejaVuSans-f6" x="277.050781"/>
     <use xlink:href="#DejaVuSans-63" x="338.232422"/>
     <use xlink:href="#DejaVuSans-68" x="393.212891"/>
     <use xlink:href="#DejaVuSans-74" x="456.591797"/>
     <use xlink:href="#DejaVuSans-65" x="495.800781"/>
     <use xlink:href="#DejaVuSans-20" x="557.324219"/>
     <use xlink:href="#DejaVuSans-61" x="589.111328"/>
     <use xlink:href="#DejaVuSans-6d" x="650.390625"/>
    </g>
    <!--  Kurs teilnehmen -->
    <g transform="translate(134.224414 69.847852) scale(0.125 -0.125)">
     <defs>
      <path id="DejaVuSans-4b" d="M 628 4666 
L 1259 4666 
L 1259 2694 
L 3353 4666 
L 4166 4666 
L 1850 2491 
L 4331 0 
L 3500 0 
L 1259 2247 
L 1259 0 
L 628 0 
L 628 4666 
z
" transform="scale(0.015625)"/>
      <path id="DejaVuSans-75" d="M 544 1381 
L 544 3500 
L 1119 3500 
L 1119 1403 
Q 1119 906 1312 657 
Q 1506 409 1894 409 
Q 2359 409 2629 706 
Q 2900 1003 2900 1516 
L 2900 3500 
L 3475 3500 
L 3475 0 
L 2900 0 
L 2900 538 
Q 2691 219 2414 64 
Q 2138 -91 1772 -91 
Q 1169 -91 856 284 
Q 544 659 544 1381 
z
M 1991 3584 
L 1991 3584 
z
" transform="scale(0.015625)"/>
      <path id="DejaVuSans-72" d="M 2631 2963 
Q 2534 3019 2420 3045 
Q 2306 3072 2169 3072 
Q 1681 3072 1420 2755 
Q 1159 2438 1159 1844 
L 1159 0 
L 581 0 
L 581 3500 
L 1159 3500 
L 1159 2956 
Q 1341 3275 1631 3429 
Q 1922 3584 2338 3584 
Q 2397 3584 2469 3576 
Q 2541 3569 2628 3553 
L 2631 2963 
z
" transform="scale(0.015625)"/>
      <path id="DejaVuSans-73" d="M 2834 3397 
L 2834 2853 
Q 2591 2978 2328 3040 
Q 2066 3103 1784 3103 
Q 1356 3103 1142 2972 
Q 928 2841 928 2578 
Q 928 2378 1081 2264 
Q 1234 2150 1697 2047 
L 1894 2003 
Q 2506 1872 2764 1633 
Q 3022 1394 3022 966 
Q 3022 478 2636 193 
Q 2250 -91 1575 -91 
Q 1294 -91 989 -36 
Q 684 19 347 128 
L 347 722 
Q 666 556 975 473 
Q 1284 391 1588 391 
Q 1994 391 2212 530 
Q 2431 669 2431 922 
Q 2431 1156 2273 1281 
Q 2116 1406 1581 1522 
L 1381 1569 
Q 847 1681 609 1914 
Q 372 2147 372 2553 
Q 372 3047 722 3315 
Q 1072 3584 1716 3584 
Q 2034 3584 2315 3537 
Q 2597 3491 2834 3397 
z
" transform="scale(0.015625)"/>
      <path id="DejaVuSans-69" d="M 603 3500 
L 1178 3500 
L 1178 0 
L 603 0 
L 603 3500 
z
M 603 4863 
L 1178 4863 
L 1178 4134 
L 603 4134 
L 603 4863 
z
" transform="scale(0.015625)"/>
      <path id="DejaVuSans-6c" d="M 603 4863 
L 1178 4863 
L 1178 0 
L 603 0 
L 603 4863 
z
" transform="scale(0.015625)"/>
      <path id="DejaVuSans-6e" d="M 3513 2113 
L 3513 0 
L 2938 0 
L 2938 2094 
Q 2938 2591 2744 2837 
Q 2550 3084 2163 3084 
Q 1697 3084 1428 2787 
Q 1159 2491 1159 1978 
L 1159 0 
L 581 0 
L 581 3500 
L 1159 3500 
L 1159 2956 
Q 1366 3272 1645 3428 
Q 1925 3584 2291 3584 
Q 2894 3584 3203 3211 
Q 3513 2838 3513 2113 
z
" transform="scale(0.015625)"/>
     </defs>
     <use xlink:href="#DejaVuSans-20"/>
     <use xlink:href="#DejaVuSans-4b" x="31.787109"/>
     <use xlink:href="#DejaVuSans-75" x="92.363281"/>
     <use xlink:href="#DejaVuSans-72" x="155.742188"/>
     <use xlink:href="#DejaVuSans-73" x="196.855469"/>
     <use xlink:href="#DejaVuSans-20" x="248.955078"/>
     <use xlink:href="#DejaVuSans-74" x="280.742188"/>
     <use xlink:href="#DejaVuSans-65" x="319.951172"/>
     <use xlink:href="#DejaVuSans-69" x="381.474609"/>
     <use xlink:href="#DejaVuSans-6c" x="409.257812"/>
     <use xlink:href="#DejaVuSans-6e" x="437.041016"/>
     <use xlink:href="#DejaVuSans-65" x="500.419922"/>
     <use xlink:href="#DejaVuSans-68" x="561.943359"/>
     <use xlink:href="#DejaVuSans-6d" x="625.322266"/>
     <use xlink:href="#DejaVuSans-65" x="722.734375"/>
     <use xlink:href="#DejaVuSans-6e" x="784.257812"/>
    </g>
   </g>
   <g id="text_2">
    <!-- vielleicht -->
    <g transform="translate(191.88 280.578047) scale(0.125 -0.125)">
     <defs>
      <path id="DejaVuSans-76" d="M 191 3500 
L 800 3500 
L 1894 563 
L 2988 3500 
L 3597 3500 
L 2284 0 
L 1503 0 
L 191 3500 
z
" transform="scale(0.015625)"/>
     </defs>
     <use xlink:href="#DejaVuSans-76"/>
     <use xlink:href="#DejaVuSans-69" x="59.179688"/>
     <use xlink:href="#DejaVuSans-65" x="86.962891"/>
     <use xlink:href="#DejaVuSans-6c" x="148.486328"/>
     <use xlink:href="#DejaVuSans-6c" x="176.269531"/>
     <use xlink:href="#DejaVuSans-65" x="204.052734"/>
     <use xlink:href="#DejaVuSans-69" x="265.576172"/>
     <use xlink:href="#DejaVuSans-63" x="293.359375"/>
     <use xlink:href="#DejaVuSans-68" x="348.339844"/>
     <use xlink:href="#DejaVuSans-74" x="411.71875"/>
    </g>
   </g>
   <g id="text_3">
    <!-- nein -->
    <g transform="translate(290.88 187.120391) scale(0.125 -0.125)">
     <use xlink:href="#DejaVuSans-6e"/>
     <use xlink:href="#DejaVuSans-65" x="63.378906"/>
     <use xlink:href="#DejaVuSans-69" x="124.902344"/>
     <use xlink:href="#DejaVuSans-6e" x="152.685547"/>
    </g>
   </g>
   <g id="text_4">
    <!-- ja -->
    <g transform="translate(72.387187 187.120391) scale(0.125 -0.125)">
     <defs>
      <path id="DejaVuSans-6a" d="M 603 3500 
L 1178 3500 
L 1178 -63 
Q 1178 -731 923 -1031 
Q 669 -1331 103 -1331 
L -116 -1331 
L -116 -844 
L 38 -844 
Q 366 -844 484 -692 
Q 603 -541 603 -63 
L 603 3500 
z
M 603 4863 
L 1178 4863 
L 1178 4134 
L 603 4134 
L 603 4863 
z
" transform="scale(0.015625)"/>
     </defs>
     <use xlink:href="#DejaVuSans-6a"/>
     <use xlink:href="#DejaVuSans-61" x="27.783203"/>
    </g>
   </g>
   <g id="text_5">
    <!-- Ich habe -->
    <g transform="translate(160.367969 183.851953) scale(0.125 -0.125)">
     <defs>
      <path id="DejaVuSans-62" d="M 3116 1747 
Q 3116 2381 2855 2742 
Q 2594 3103 2138 3103 
Q 1681 3103 1420 2742 
Q 1159 2381 1159 1747 
Q 1159 1113 1420 752 
Q 1681 391 2138 391 
Q 2594 391 2855 752 
Q 3116 1113 3116 1747 
z
M 1159 2969 
Q 1341 3281 1617 3432 
Q 1894 3584 2278 3584 
Q 2916 3584 3314 3078 
Q 3713 2572 3713 1747 
Q 3713 922 3314 415 
Q 2916 -91 2278 -91 
Q 1894 -91 1617 61 
Q 1341 213 1159 525 
L 1159 0 
L 581 0 
L 581 4863 
L 1159 4863 
L 1159 2969 
z
" transform="scale(0.015625)"/>
     </defs>
     <use xlink:href="#DejaVuSans-49"/>
     <use xlink:href="#DejaVuSans-63" x="29.492188"/>
     <use xlink:href="#DejaVuSans-68" x="84.472656"/>
     <use xlink:href="#DejaVuSans-20" x="147.851562"/>
     <use xlink:href="#DejaVuSans-68" x="179.638672"/>
     <use xlink:href="#DejaVuSans-61" x="243.017578"/>
     <use xlink:href="#DejaVuSans-62" x="304.296875"/>
     <use xlink:href="#DejaVuSans-65" x="367.773438"/>
    </g>
    <!-- Grundkenntnisse -->
    <g transform="translate(134.233203 197.849219) scale(0.125 -0.125)">
     <defs>
      <path id="DejaVuSans-47" d="M 3809 666 
L 3809 1919 
L 2778 1919 
L 2778 2438 
L 4434 2438 
L 4434 434 
Q 4069 175 3628 42 
Q 3188 -91 2688 -91 
Q 1594 -91 976 548 
Q 359 1188 359 2328 
Q 359 3472 976 4111 
Q 1594 4750 2688 4750 
Q 3144 4750 3555 4637 
Q 3966 4525 4313 4306 
L 4313 3634 
Q 3963 3931 3569 4081 
Q 3175 4231 2741 4231 
Q 1884 4231 1454 3753 
Q 1025 3275 1025 2328 
Q 1025 1384 1454 906 
Q 1884 428 2741 428 
Q 3075 428 3337 486 
Q 3600 544 3809 666 
z
" transform="scale(0.015625)"/>
      <path id="DejaVuSans-64" d="M 2906 2969 
L 2906 4863 
L 3481 4863 
L 3481 0 
L 2906 0 
L 2906 525 
Q 2725 213 2448 61 
Q 2172 -91 1784 -91 
Q 1150 -91 751 415 
Q 353 922 353 1747 
Q 353 2572 751 3078 
Q 1150 3584 1784 3584 
Q 2172 3584 2448 3432 
Q 2725 3281 2906 2969 
z
M 947 1747 
Q 947 1113 1208 752 
Q 1469 391 1925 391 
Q 2381 391 2643 752 
Q 2906 1113 2906 1747 
Q 2906 2381 2643 2742 
Q 2381 3103 1925 3103 
Q 1469 3103 1208 2742 
Q 947 2381 947 1747 
z
" transform="scale(0.015625)"/>
      <path id="DejaVuSans-6b" d="M 581 4863 
L 1159 4863 
L 1159 1991 
L 2875 3500 
L 3609 3500 
L 1753 1863 
L 3688 0 
L 2938 0 
L 1159 1709 
L 1159 0 
L 581 0 
L 581 4863 
z
" transform="scale(0.015625)"/>
     </defs>
     <use xlink:href="#DejaVuSans-47"/>
     <use xlink:href="#DejaVuSans-72" x="77.490234"/>
     <use xlink:href="#DejaVuSans-75" x="118.603516"/>
     <use xlink:href="#DejaVuSans-6e" x="181.982422"/>
     <use xlink:href="#DejaVuSans-64" x="245.361328"/>
     <use xlink:href="#DejaVuSans-6b" x="308.837891"/>
     <use xlink:href="#DejaVuSans-65" x="363.123047"/>
     <use xlink:href="#DejaVuSans-6e" x="424.646484"/>
     <use xlink:href="#DejaVuSans-6e" x="488.025391"/>
     <use xlink:href="#DejaVuSans-74" x="551.404297"/>
     <use xlink:href="#DejaVuSans-6e" x="590.613281"/>
     <use xlink:href="#DejaVuSans-69" x="653.992188"/>
     <use xlink:href="#DejaVuSans-73" x="681.775391"/>
     <use xlink:href="#DejaVuSans-73" x="733.875"/>
     <use xlink:href="#DejaVuSans-65" x="785.974609"/>
    </g>
    <!-- in Python -->
    <g transform="translate(157.852344 211.846484) scale(0.125 -0.125)">
     <defs>
      <path id="DejaVuSans-50" d="M 1259 4147 
L 1259 2394 
L 2053 2394 
Q 2494 2394 2734 2622 
Q 2975 2850 2975 3272 
Q 2975 3691 2734 3919 
Q 2494 4147 2053 4147 
L 1259 4147 
z
M 628 4666 
L 2053 4666 
Q 2838 4666 3239 4311 
Q 3641 3956 3641 3272 
Q 3641 2581 3239 2228 
Q 2838 1875 2053 1875 
L 1259 1875 
L 1259 0 
L 628 0 
L 628 4666 
z
" transform="scale(0.015625)"/>
      <path id="DejaVuSans-79" d="M 2059 -325 
Q 1816 -950 1584 -1140 
Q 1353 -1331 966 -1331 
L 506 -1331 
L 506 -850 
L 844 -850 
Q 1081 -850 1212 -737 
Q 1344 -625 1503 -206 
L 1606 56 
L 191 3500 
L 800 3500 
L 1894 763 
L 2988 3500 
L 3597 3500 
L 2059 -325 
z
" transform="scale(0.015625)"/>
      <path id="DejaVuSans-6f" d="M 1959 3097 
Q 1497 3097 1228 2736 
Q 959 2375 959 1747 
Q 959 1119 1226 758 
Q 1494 397 1959 397 
Q 2419 397 2687 759 
Q 2956 1122 2956 1747 
Q 2956 2369 2687 2733 
Q 2419 3097 1959 3097 
z
M 1959 3584 
Q 2709 3584 3137 3096 
Q 3566 2609 3566 1747 
Q 3566 888 3137 398 
Q 2709 -91 1959 -91 
Q 1206 -91 779 398 
Q 353 888 353 1747 
Q 353 2609 779 3096 
Q 1206 3584 1959 3584 
z
" transform="scale(0.015625)"/>
     </defs>
     <use xlink:href="#DejaVuSans-69"/>
     <use xlink:href="#DejaVuSans-6e" x="27.783203"/>
     <use xlink:href="#DejaVuSans-20" x="91.162109"/>
     <use xlink:href="#DejaVuSans-50" x="122.949219"/>
     <use xlink:href="#DejaVuSans-79" x="183.251953"/>
     <use xlink:href="#DejaVuSans-74" x="242.431641"/>
     <use xlink:href="#DejaVuSans-68" x="281.640625"/>
     <use xlink:href="#DejaVuSans-6f" x="345.019531"/>
     <use xlink:href="#DejaVuSans-6e" x="406.201172"/>
    </g>
   </g>
   <g id="text_6">
    <!-- Quiz -->
    <g transform="translate(173.302539 325.850586) scale(0.125 -0.125)">
     <defs>
      <path id="DejaVuSans-51" d="M 2522 4238 
Q 1834 4238 1429 3725 
Q 1025 3213 1025 2328 
Q 1025 1447 1429 934 
Q 1834 422 2522 422 
Q 3209 422 3611 934 
Q 4013 1447 4013 2328 
Q 4013 3213 3611 3725 
Q 3209 4238 2522 4238 
z
M 3406 84 
L 4238 -825 
L 3475 -825 
L 2784 -78 
Q 2681 -84 2626 -87 
Q 2572 -91 2522 -91 
Q 1538 -91 948 567 
Q 359 1225 359 2328 
Q 359 3434 948 4092 
Q 1538 4750 2522 4750 
Q 3503 4750 4090 4092 
Q 4678 3434 4678 2328 
Q 4678 1516 4351 937 
Q 4025 359 3406 84 
z
" transform="scale(0.015625)"/>
      <path id="DejaVuSans-7a" d="M 353 3500 
L 3084 3500 
L 3084 2975 
L 922 459 
L 3084 459 
L 3084 0 
L 275 0 
L 275 525 
L 2438 3041 
L 353 3041 
L 353 3500 
z
" transform="scale(0.015625)"/>
     </defs>
     <use xlink:href="#DejaVuSans-51"/>
     <use xlink:href="#DejaVuSans-75" x="78.710938"/>
     <use xlink:href="#DejaVuSans-69" x="142.089844"/>
     <use xlink:href="#DejaVuSans-7a" x="169.873047"/>
    </g>
    <!-- durchführen -->
    <g transform="translate(149.087695 339.847852) scale(0.125 -0.125)">
     <defs>
      <path id="DejaVuSans-66" d="M 2375 4863 
L 2375 4384 
L 1825 4384 
Q 1516 4384 1395 4259 
Q 1275 4134 1275 3809 
L 1275 3500 
L 2222 3500 
L 2222 3053 
L 1275 3053 
L 1275 0 
L 697 0 
L 697 3053 
L 147 3053 
L 147 3500 
L 697 3500 
L 697 3744 
Q 697 4328 969 4595 
Q 1241 4863 1831 4863 
L 2375 4863 
z
" transform="scale(0.015625)"/>
      <path id="DejaVuSans-fc" d="M 544 1381 
L 544 3500 
L 1119 3500 
L 1119 1403 
Q 1119 906 1312 657 
Q 1506 409 1894 409 
Q 2359 409 2629 706 
Q 2900 1003 2900 1516 
L 2900 3500 
L 3475 3500 
L 3475 0 
L 2900 0 
L 2900 538 
Q 2691 219 2414 64 
Q 2138 -91 1772 -91 
Q 1169 -91 856 284 
Q 544 659 544 1381 
z
M 1991 3584 
L 1991 3584 
z
M 2278 4850 
L 2912 4850 
L 2912 4219 
L 2278 4219 
L 2278 4850 
z
M 1056 4850 
L 1690 4850 
L 1690 4219 
L 1056 4219 
L 1056 4850 
z
" transform="scale(0.015625)"/>
     </defs>
     <use xlink:href="#DejaVuSans-64"/>
     <use xlink:href="#DejaVuSans-75" x="63.476562"/>
     <use xlink:href="#DejaVuSans-72" x="126.855469"/>
     <use xlink:href="#DejaVuSans-63" x="165.71875"/>
     <use xlink:href="#DejaVuSans-68" x="220.699219"/>
     <use xlink:href="#DejaVuSans-66" x="284.078125"/>
     <use xlink:href="#DejaVuSans-fc" x="319.283203"/>
     <use xlink:href="#DejaVuSans-68" x="382.662109"/>
     <use xlink:href="#DejaVuSans-72" x="446.041016"/>
     <use xlink:href="#DejaVuSans-65" x="484.904297"/>
     <use xlink:href="#DejaVuSans-6e" x="546.427734"/>
    </g>
   </g>
   <g id="text_7">
    <!-- Ein Tutorial -->
    <g transform="translate(377.587695 190.850586) scale(0.125 -0.125)">
     <defs>
      <path id="DejaVuSans-45" d="M 628 4666 
L 3578 4666 
L 3578 4134 
L 1259 4134 
L 1259 2753 
L 3481 2753 
L 3481 2222 
L 1259 2222 
L 1259 531 
L 3634 531 
L 3634 0 
L 628 0 
L 628 4666 
z
" transform="scale(0.015625)"/>
      <path id="DejaVuSans-54" d="M -19 4666 
L 3928 4666 
L 3928 4134 
L 2272 4134 
L 2272 0 
L 1638 0 
L 1638 4134 
L -19 4134 
L -19 4666 
z
" transform="scale(0.015625)"/>
     </defs>
     <use xlink:href="#DejaVuSans-45"/>
     <use xlink:href="#DejaVuSans-69" x="63.183594"/>
     <use xlink:href="#DejaVuSans-6e" x="90.966797"/>
     <use xlink:href="#DejaVuSans-20" x="154.345703"/>
     <use xlink:href="#DejaVuSans-54" x="186.132812"/>
     <use xlink:href="#DejaVuSans-75" x="232.091797"/>
     <use xlink:href="#DejaVuSans-74" x="295.470703"/>
     <use xlink:href="#DejaVuSans-6f" x="334.679688"/>
     <use xlink:href="#DejaVuSans-72" x="395.861328"/>
     <use xlink:href="#DejaVuSans-69" x="436.974609"/>
     <use xlink:href="#DejaVuSans-61" x="464.757812"/>
     <use xlink:href="#DejaVuSans-6c" x="526.037109"/>
    </g>
    <!-- durcharbeiten -->
    <g transform="translate(368.239062 204.847852) scale(0.125 -0.125)">
     <use xlink:href="#DejaVuSans-64"/>
     <use xlink:href="#DejaVuSans-75" x="63.476562"/>
     <use xlink:href="#DejaVuSans-72" x="126.855469"/>
     <use xlink:href="#DejaVuSans-63" x="165.71875"/>
     <use xlink:href="#DejaVuSans-68" x="220.699219"/>
     <use xlink:href="#DejaVuSans-61" x="284.078125"/>
     <use xlink:href="#DejaVuSans-72" x="345.357422"/>
     <use xlink:href="#DejaVuSans-62" x="386.470703"/>
     <use xlink:href="#DejaVuSans-65" x="449.947266"/>
     <use xlink:href="#DejaVuSans-69" x="511.470703"/>
     <use xlink:href="#DejaVuSans-74" x="539.253906"/>
     <use xlink:href="#DejaVuSans-65" x="578.462891"/>
     <use xlink:href="#DejaVuSans-6e" x="639.986328"/>
    </g>
   </g>
   <g id="text_8">
    <!-- 90% ≥ Q ≥ 70% -->
    <g transform="translate(191.88 514.578047) scale(0.125 -0.125)">
     <defs>
      <path id="DejaVuSans-39" d="M 703 97 
L 703 672 
Q 941 559 1184 500 
Q 1428 441 1663 441 
Q 2288 441 2617 861 
Q 2947 1281 2994 2138 
Q 2813 1869 2534 1725 
Q 2256 1581 1919 1581 
Q 1219 1581 811 2004 
Q 403 2428 403 3163 
Q 403 3881 828 4315 
Q 1253 4750 1959 4750 
Q 2769 4750 3195 4129 
Q 3622 3509 3622 2328 
Q 3622 1225 3098 567 
Q 2575 -91 1691 -91 
Q 1453 -91 1209 -44 
Q 966 3 703 97 
z
M 1959 2075 
Q 2384 2075 2632 2365 
Q 2881 2656 2881 3163 
Q 2881 3666 2632 3958 
Q 2384 4250 1959 4250 
Q 1534 4250 1286 3958 
Q 1038 3666 1038 3163 
Q 1038 2656 1286 2365 
Q 1534 2075 1959 2075 
z
" transform="scale(0.015625)"/>
      <path id="DejaVuSans-30" d="M 2034 4250 
Q 1547 4250 1301 3770 
Q 1056 3291 1056 2328 
Q 1056 1369 1301 889 
Q 1547 409 2034 409 
Q 2525 409 2770 889 
Q 3016 1369 3016 2328 
Q 3016 3291 2770 3770 
Q 2525 4250 2034 4250 
z
M 2034 4750 
Q 2819 4750 3233 4129 
Q 3647 3509 3647 2328 
Q 3647 1150 3233 529 
Q 2819 -91 2034 -91 
Q 1250 -91 836 529 
Q 422 1150 422 2328 
Q 422 3509 836 4129 
Q 1250 4750 2034 4750 
z
" transform="scale(0.015625)"/>
      <path id="DejaVuSans-25" d="M 4653 2053 
Q 4381 2053 4226 1822 
Q 4072 1591 4072 1178 
Q 4072 772 4226 539 
Q 4381 306 4653 306 
Q 4919 306 5073 539 
Q 5228 772 5228 1178 
Q 5228 1588 5073 1820 
Q 4919 2053 4653 2053 
z
M 4653 2450 
Q 5147 2450 5437 2106 
Q 5728 1763 5728 1178 
Q 5728 594 5436 251 
Q 5144 -91 4653 -91 
Q 4153 -91 3862 251 
Q 3572 594 3572 1178 
Q 3572 1766 3864 2108 
Q 4156 2450 4653 2450 
z
M 1428 4353 
Q 1159 4353 1004 4120 
Q 850 3888 850 3481 
Q 850 3069 1003 2837 
Q 1156 2606 1428 2606 
Q 1700 2606 1854 2837 
Q 2009 3069 2009 3481 
Q 2009 3884 1853 4118 
Q 1697 4353 1428 4353 
z
M 4250 4750 
L 4750 4750 
L 1831 -91 
L 1331 -91 
L 4250 4750 
z
M 1428 4750 
Q 1922 4750 2215 4408 
Q 2509 4066 2509 3481 
Q 2509 2891 2217 2550 
Q 1925 2209 1428 2209 
Q 931 2209 642 2551 
Q 353 2894 353 3481 
Q 353 4063 643 4406 
Q 934 4750 1428 4750 
z
" transform="scale(0.015625)"/>
      <path id="DejaVuSans-2265" d="M 678 3175 
L 678 3725 
L 4684 2578 
L 4684 2047 
L 678 897 
L 678 1453 
L 3681 2309 
L 678 3175 
z
M 4684 531 
L 4684 0 
L 678 0 
L 678 531 
L 4684 531 
z
" transform="scale(0.015625)"/>
      <path id="DejaVuSans-37" d="M 525 4666 
L 3525 4666 
L 3525 4397 
L 1831 0 
L 1172 0 
L 2766 4134 
L 525 4134 
L 525 4666 
z
" transform="scale(0.015625)"/>
     </defs>
     <use xlink:href="#DejaVuSans-39"/>
     <use xlink:href="#DejaVuSans-30" x="63.623047"/>
     <use xlink:href="#DejaVuSans-25" x="127.246094"/>
     <use xlink:href="#DejaVuSans-20" x="222.265625"/>
     <use xlink:href="#DejaVuSans-2265" x="254.052734"/>
     <use xlink:href="#DejaVuSans-20" x="337.841797"/>
     <use xlink:href="#DejaVuSans-51" x="369.628906"/>
     <use xlink:href="#DejaVuSans-20" x="448.339844"/>
     <use xlink:href="#DejaVuSans-2265" x="480.126953"/>
     <use xlink:href="#DejaVuSans-20" x="563.916016"/>
     <use xlink:href="#DejaVuSans-37" x="595.703125"/>
     <use xlink:href="#DejaVuSans-30" x="659.326172"/>
     <use xlink:href="#DejaVuSans-25" x="722.949219"/>
    </g>
   </g>
   <g id="text_9">
    <!-- Q ≤ 70% -->
    <g transform="translate(263.88 439.120391) scale(0.125 -0.125)">
     <defs>
      <path id="DejaVuSans-2264" d="M 4684 3175 
L 1684 2309 
L 4684 1453 
L 4684 897 
L 678 2047 
L 678 2578 
L 4684 3725 
L 4684 3175 
z
M 678 531 
L 4684 531 
L 4684 0 
L 678 0 
L 678 531 
z
" transform="scale(0.015625)"/>
     </defs>
     <use xlink:href="#DejaVuSans-51"/>
     <use xlink:href="#DejaVuSans-20" x="78.710938"/>
     <use xlink:href="#DejaVuSans-2264" x="110.498047"/>
     <use xlink:href="#DejaVuSans-20" x="194.287109"/>
     <use xlink:href="#DejaVuSans-37" x="226.074219"/>
     <use xlink:href="#DejaVuSans-30" x="289.697266"/>
     <use xlink:href="#DejaVuSans-25" x="353.320312"/>
    </g>
   </g>
   <g id="text_10">
    <!-- Q ≥ 90% -->
    <g transform="translate(54.477031 439.120391) scale(0.125 -0.125)">
     <use xlink:href="#DejaVuSans-51"/>
     <use xlink:href="#DejaVuSans-20" x="78.710938"/>
     <use xlink:href="#DejaVuSans-2265" x="110.498047"/>
     <use xlink:href="#DejaVuSans-20" x="194.287109"/>
     <use xlink:href="#DejaVuSans-39" x="226.074219"/>
     <use xlink:href="#DejaVuSans-30" x="289.697266"/>
     <use xlink:href="#DejaVuSans-25" x="353.320312"/>
    </g>
   </g>
   <g id="text_11">
    <!-- Quote Q -->
    <g transform="translate(161.292773 435.851953) scale(0.125 -0.125)">
     <use xlink:href="#DejaVuSans-51"/>
     <use xlink:href="#DejaVuSans-75" x="78.710938"/>
     <use xlink:href="#DejaVuSans-6f" x="142.089844"/>
     <use xlink:href="#DejaVuSans-74" x="203.271484"/>
     <use xlink:href="#DejaVuSans-65" x="242.480469"/>
     <use xlink:href="#DejaVuSans-20" x="304.003906"/>
     <use xlink:href="#DejaVuSans-51" x="335.791016"/>
    </g>
    <!-- richtiger Auf- -->
    <g transform="translate(146.593555 449.849219) scale(0.125 -0.125)">
     <defs>
      <path id="DejaVuSans-67" d="M 2906 1791 
Q 2906 2416 2648 2759 
Q 2391 3103 1925 3103 
Q 1463 3103 1205 2759 
Q 947 2416 947 1791 
Q 947 1169 1205 825 
Q 1463 481 1925 481 
Q 2391 481 2648 825 
Q 2906 1169 2906 1791 
z
M 3481 434 
Q 3481 -459 3084 -895 
Q 2688 -1331 1869 -1331 
Q 1566 -1331 1297 -1286 
Q 1028 -1241 775 -1147 
L 775 -588 
Q 1028 -725 1275 -790 
Q 1522 -856 1778 -856 
Q 2344 -856 2625 -561 
Q 2906 -266 2906 331 
L 2906 616 
Q 2728 306 2450 153 
Q 2172 0 1784 0 
Q 1141 0 747 490 
Q 353 981 353 1791 
Q 353 2603 747 3093 
Q 1141 3584 1784 3584 
Q 2172 3584 2450 3431 
Q 2728 3278 2906 2969 
L 2906 3500 
L 3481 3500 
L 3481 434 
z
" transform="scale(0.015625)"/>
      <path id="DejaVuSans-41" d="M 2188 4044 
L 1331 1722 
L 3047 1722 
L 2188 4044 
z
M 1831 4666 
L 2547 4666 
L 4325 0 
L 3669 0 
L 3244 1197 
L 1141 1197 
L 716 0 
L 50 0 
L 1831 4666 
z
" transform="scale(0.015625)"/>
      <path id="DejaVuSans-2d" d="M 313 2009 
L 1997 2009 
L 1997 1497 
L 313 1497 
L 313 2009 
z
" transform="scale(0.015625)"/>
     </defs>
     <use xlink:href="#DejaVuSans-72"/>
     <use xlink:href="#DejaVuSans-69" x="41.113281"/>
     <use xlink:href="#DejaVuSans-63" x="68.896484"/>
     <use xlink:href="#DejaVuSans-68" x="123.876953"/>
     <use xlink:href="#DejaVuSans-74" x="187.255859"/>
     <use xlink:href="#DejaVuSans-69" x="226.464844"/>
     <use xlink:href="#DejaVuSans-67" x="254.248047"/>
     <use xlink:href="#DejaVuSans-65" x="317.724609"/>
     <use xlink:href="#DejaVuSans-72" x="379.248047"/>
     <use xlink:href="#DejaVuSans-20" x="420.361328"/>
     <use xlink:href="#DejaVuSans-41" x="452.148438"/>
     <use xlink:href="#DejaVuSans-75" x="520.556641"/>
     <use xlink:href="#DejaVuSans-66" x="583.935547"/>
     <use xlink:href="#DejaVuSans-2d" x="613.640625"/>
    </g>
    <!-- gaben -->
    <g transform="translate(167.627734 463.846484) scale(0.125 -0.125)">
     <use xlink:href="#DejaVuSans-67"/>
     <use xlink:href="#DejaVuSans-61" x="63.476562"/>
     <use xlink:href="#DejaVuSans-62" x="124.755859"/>
     <use xlink:href="#DejaVuSans-65" x="188.232422"/>
     <use xlink:href="#DejaVuSans-6e" x="249.755859"/>
    </g>
   </g>
   <g id="text_12">
    <!-- ich werde im Kurs -->
    <g transform="translate(356.480273 435.851953) scale(0.125 -0.125)">
     <defs>
      <path id="DejaVuSans-77" d="M 269 3500 
L 844 3500 
L 1563 769 
L 2278 3500 
L 2956 3500 
L 3675 769 
L 4391 3500 
L 4966 3500 
L 4050 0 
L 3372 0 
L 2619 2869 
L 1863 0 
L 1184 0 
L 269 3500 
z
" transform="scale(0.015625)"/>
     </defs>
     <use xlink:href="#DejaVuSans-69"/>
     <use xlink:href="#DejaVuSans-63" x="27.783203"/>
     <use xlink:href="#DejaVuSans-68" x="82.763672"/>
     <use xlink:href="#DejaVuSans-20" x="146.142578"/>
     <use xlink:href="#DejaVuSans-77" x="177.929688"/>
     <use xlink:href="#DejaVuSans-65" x="259.716797"/>
     <use xlink:href="#DejaVuSans-72" x="321.240234"/>
     <use xlink:href="#DejaVuSans-64" x="360.603516"/>
     <use xlink:href="#DejaVuSans-65" x="424.080078"/>
     <use xlink:href="#DejaVuSans-20" x="485.603516"/>
     <use xlink:href="#DejaVuSans-69" x="517.390625"/>
     <use xlink:href="#DejaVuSans-6d" x="545.173828"/>
     <use xlink:href="#DejaVuSans-20" x="642.585938"/>
     <use xlink:href="#DejaVuSans-4b" x="674.373047"/>
     <use xlink:href="#DejaVuSans-75" x="734.949219"/>
     <use xlink:href="#DejaVuSans-72" x="798.328125"/>
     <use xlink:href="#DejaVuSans-73" x="839.441406"/>
    </g>
    <!-- ziemlich sicher -->
    <g transform="translate(365.588672 449.849219) scale(0.125 -0.125)">
     <use xlink:href="#DejaVuSans-7a"/>
     <use xlink:href="#DejaVuSans-69" x="52.490234"/>
     <use xlink:href="#DejaVuSans-65" x="80.273438"/>
     <use xlink:href="#DejaVuSans-6d" x="141.796875"/>
     <use xlink:href="#DejaVuSans-6c" x="239.208984"/>
     <use xlink:href="#DejaVuSans-69" x="266.992188"/>
     <use xlink:href="#DejaVuSans-63" x="294.775391"/>
     <use xlink:href="#DejaVuSans-68" x="349.755859"/>
     <use xlink:href="#DejaVuSans-20" x="413.134766"/>
     <use xlink:href="#DejaVuSans-73" x="444.921875"/>
     <use xlink:href="#DejaVuSans-69" x="497.021484"/>
     <use xlink:href="#DejaVuSans-63" x="524.804688"/>
     <use xlink:href="#DejaVuSans-68" x="579.785156"/>
     <use xlink:href="#DejaVuSans-65" x="643.164062"/>
     <use xlink:href="#DejaVuSans-72" x="704.6875"/>
    </g>
    <!-- abgehängt -->
    <g transform="translate(378.41875 463.846484) scale(0.125 -0.125)">
     <defs>
      <path id="DejaVuSans-e4" d="M 2194 1759 
Q 1497 1759 1228 1600 
Q 959 1441 959 1056 
Q 959 750 1161 570 
Q 1363 391 1709 391 
Q 2188 391 2477 730 
Q 2766 1069 2766 1631 
L 2766 1759 
L 2194 1759 
z
M 3341 1997 
L 3341 0 
L 2766 0 
L 2766 531 
Q 2569 213 2275 61 
Q 1981 -91 1556 -91 
Q 1019 -91 701 211 
Q 384 513 384 1019 
Q 384 1609 779 1909 
Q 1175 2209 1959 2209 
L 2766 2209 
L 2766 2266 
Q 2766 2663 2505 2880 
Q 2244 3097 1772 3097 
Q 1472 3097 1187 3025 
Q 903 2953 641 2809 
L 641 3341 
Q 956 3463 1253 3523 
Q 1550 3584 1831 3584 
Q 2591 3584 2966 3190 
Q 3341 2797 3341 1997 
z
M 2150 4850 
L 2784 4850 
L 2784 4219 
L 2150 4219 
L 2150 4850 
z
M 928 4850 
L 1562 4850 
L 1562 4219 
L 928 4219 
L 928 4850 
z
" transform="scale(0.015625)"/>
     </defs>
     <use xlink:href="#DejaVuSans-61"/>
     <use xlink:href="#DejaVuSans-62" x="61.279297"/>
     <use xlink:href="#DejaVuSans-67" x="124.755859"/>
     <use xlink:href="#DejaVuSans-65" x="188.232422"/>
     <use xlink:href="#DejaVuSans-68" x="249.755859"/>
     <use xlink:href="#DejaVuSans-e4" x="313.134766"/>
     <use xlink:href="#DejaVuSans-6e" x="374.414062"/>
     <use xlink:href="#DejaVuSans-67" x="437.792969"/>
     <use xlink:href="#DejaVuSans-74" x="501.269531"/>
    </g>
   </g>
   <g id="text_13">
    <!-- nein -->
    <g transform="translate(596.88 388.720391) scale(0.125 -0.125)">
     <use xlink:href="#DejaVuSans-6e"/>
     <use xlink:href="#DejaVuSans-65" x="63.378906"/>
     <use xlink:href="#DejaVuSans-69" x="124.902344"/>
     <use xlink:href="#DejaVuSans-6e" x="152.685547"/>
    </g>
   </g>
   <g id="text_14">
    <!-- ja -->
    <g transform="translate(596.88 510.978047) scale(0.125 -0.125)">
     <use xlink:href="#DejaVuSans-6a"/>
     <use xlink:href="#DejaVuSans-61" x="27.783203"/>
    </g>
   </g>
   <g id="text_15">
    <!-- Damit -->
    <g transform="translate(573.283008 435.851953) scale(0.125 -0.125)">
     <defs>
      <path id="DejaVuSans-44" d="M 1259 4147 
L 1259 519 
L 2022 519 
Q 2988 519 3436 956 
Q 3884 1394 3884 2338 
Q 3884 3275 3436 3711 
Q 2988 4147 2022 4147 
L 1259 4147 
z
M 628 4666 
L 1925 4666 
Q 3281 4666 3915 4102 
Q 4550 3538 4550 2338 
Q 4550 1131 3912 565 
Q 3275 0 1925 0 
L 628 0 
L 628 4666 
z
" transform="scale(0.015625)"/>
     </defs>
     <use xlink:href="#DejaVuSans-44"/>
     <use xlink:href="#DejaVuSans-61" x="77.001953"/>
     <use xlink:href="#DejaVuSans-6d" x="138.28125"/>
     <use xlink:href="#DejaVuSans-69" x="235.693359"/>
     <use xlink:href="#DejaVuSans-74" x="263.476562"/>
    </g>
    <!-- kann ich -->
    <g transform="translate(565.818164 449.849219) scale(0.125 -0.125)">
     <use xlink:href="#DejaVuSans-6b"/>
     <use xlink:href="#DejaVuSans-61" x="56.160156"/>
     <use xlink:href="#DejaVuSans-6e" x="117.439453"/>
     <use xlink:href="#DejaVuSans-6e" x="180.818359"/>
     <use xlink:href="#DejaVuSans-20" x="244.197266"/>
     <use xlink:href="#DejaVuSans-69" x="275.984375"/>
     <use xlink:href="#DejaVuSans-63" x="303.767578"/>
     <use xlink:href="#DejaVuSans-68" x="358.748047"/>
    </g>
    <!-- leben -->
    <g transform="translate(574.843555 463.846484) scale(0.125 -0.125)">
     <use xlink:href="#DejaVuSans-6c"/>
     <use xlink:href="#DejaVuSans-65" x="27.783203"/>
     <use xlink:href="#DejaVuSans-62" x="89.306641"/>
     <use xlink:href="#DejaVuSans-65" x="152.783203"/>
     <use xlink:href="#DejaVuSans-6e" x="214.306641"/>
    </g>
   </g>
   <g id="text_16">
    <!-- ich werde im Kurs -->
    <g transform="translate(356.480273 516.851953) scale(0.125 -0.125)">
     <use xlink:href="#DejaVuSans-69"/>
     <use xlink:href="#DejaVuSans-63" x="27.783203"/>
     <use xlink:href="#DejaVuSans-68" x="82.763672"/>
     <use xlink:href="#DejaVuSans-20" x="146.142578"/>
     <use xlink:href="#DejaVuSans-77" x="177.929688"/>
     <use xlink:href="#DejaVuSans-65" x="259.716797"/>
     <use xlink:href="#DejaVuSans-72" x="321.240234"/>
     <use xlink:href="#DejaVuSans-64" x="360.603516"/>
     <use xlink:href="#DejaVuSans-65" x="424.080078"/>
     <use xlink:href="#DejaVuSans-20" x="485.603516"/>
     <use xlink:href="#DejaVuSans-69" x="517.390625"/>
     <use xlink:href="#DejaVuSans-6d" x="545.173828"/>
     <use xlink:href="#DejaVuSans-20" x="642.585938"/>
     <use xlink:href="#DejaVuSans-4b" x="674.373047"/>
     <use xlink:href="#DejaVuSans-75" x="734.949219"/>
     <use xlink:href="#DejaVuSans-72" x="798.328125"/>
     <use xlink:href="#DejaVuSans-73" x="839.441406"/>
    </g>
    <!-- wahrscheinlich -->
    <g transform="translate(365.661914 530.849219) scale(0.125 -0.125)">
     <use xlink:href="#DejaVuSans-77"/>
     <use xlink:href="#DejaVuSans-61" x="81.787109"/>
     <use xlink:href="#DejaVuSans-68" x="143.066406"/>
     <use xlink:href="#DejaVuSans-72" x="206.445312"/>
     <use xlink:href="#DejaVuSans-73" x="247.558594"/>
     <use xlink:href="#DejaVuSans-63" x="299.658203"/>
     <use xlink:href="#DejaVuSans-68" x="354.638672"/>
     <use xlink:href="#DejaVuSans-65" x="418.017578"/>
     <use xlink:href="#DejaVuSans-69" x="479.541016"/>
     <use xlink:href="#DejaVuSans-6e" x="507.324219"/>
     <use xlink:href="#DejaVuSans-6c" x="570.703125"/>
     <use xlink:href="#DejaVuSans-69" x="598.486328"/>
     <use xlink:href="#DejaVuSans-63" x="626.269531"/>
     <use xlink:href="#DejaVuSans-68" x="681.25"/>
    </g>
    <!-- abgehängt -->
    <g transform="translate(378.41875 544.846484) scale(0.125 -0.125)">
     <use xlink:href="#DejaVuSans-61"/>
     <use xlink:href="#DejaVuSans-62" x="61.279297"/>
     <use xlink:href="#DejaVuSans-67" x="124.755859"/>
     <use xlink:href="#DejaVuSans-65" x="188.232422"/>
     <use xlink:href="#DejaVuSans-68" x="249.755859"/>
     <use xlink:href="#DejaVuSans-e4" x="313.134766"/>
     <use xlink:href="#DejaVuSans-6e" x="374.414062"/>
     <use xlink:href="#DejaVuSans-67" x="437.792969"/>
     <use xlink:href="#DejaVuSans-74" x="501.269531"/>
    </g>
   </g>
   <g id="text_17">
    <!-- Anmeldung zum Kurs -->
    <g transform="translate(120.562305 577.850586) scale(0.125 -0.125)">
     <use xlink:href="#DejaVuSans-41"/>
     <use xlink:href="#DejaVuSans-6e" x="68.408203"/>
     <use xlink:href="#DejaVuSans-6d" x="131.787109"/>
     <use xlink:href="#DejaVuSans-65" x="229.199219"/>
     <use xlink:href="#DejaVuSans-6c" x="290.722656"/>
     <use xlink:href="#DejaVuSans-64" x="318.505859"/>
     <use xlink:href="#DejaVuSans-75" x="381.982422"/>
     <use xlink:href="#DejaVuSans-6e" x="445.361328"/>
     <use xlink:href="#DejaVuSans-67" x="508.740234"/>
     <use xlink:href="#DejaVuSans-20" x="572.216797"/>
     <use xlink:href="#DejaVuSans-7a" x="604.003906"/>
     <use xlink:href="#DejaVuSans-75" x="656.494141"/>
     <use xlink:href="#DejaVuSans-6d" x="719.873047"/>
     <use xlink:href="#DejaVuSans-20" x="817.285156"/>
     <use xlink:href="#DejaVuSans-4b" x="849.072266"/>
     <use xlink:href="#DejaVuSans-75" x="909.648438"/>
     <use xlink:href="#DejaVuSans-72" x="973.027344"/>
     <use xlink:href="#DejaVuSans-73" x="1014.140625"/>
    </g>
    <!-- mit Ergebnis-Hash -->
    <g transform="translate(129.79375 591.847852) scale(0.125 -0.125)">
     <defs>
      <path id="DejaVuSans-48" d="M 628 4666 
L 1259 4666 
L 1259 2753 
L 3553 2753 
L 3553 4666 
L 4184 4666 
L 4184 0 
L 3553 0 
L 3553 2222 
L 1259 2222 
L 1259 0 
L 628 0 
L 628 4666 
z
" transform="scale(0.015625)"/>
     </defs>
     <use xlink:href="#DejaVuSans-6d"/>
     <use xlink:href="#DejaVuSans-69" x="97.412109"/>
     <use xlink:href="#DejaVuSans-74" x="125.195312"/>
     <use xlink:href="#DejaVuSans-20" x="164.404297"/>
     <use xlink:href="#DejaVuSans-45" x="196.191406"/>
     <use xlink:href="#DejaVuSans-72" x="259.375"/>
     <use xlink:href="#DejaVuSans-67" x="298.738281"/>
     <use xlink:href="#DejaVuSans-65" x="362.214844"/>
     <use xlink:href="#DejaVuSans-62" x="423.738281"/>
     <use xlink:href="#DejaVuSans-6e" x="487.214844"/>
     <use xlink:href="#DejaVuSans-69" x="550.59375"/>
     <use xlink:href="#DejaVuSans-73" x="578.376953"/>
     <use xlink:href="#DejaVuSans-2d" x="630.476562"/>
     <use xlink:href="#DejaVuSans-48" x="666.560547"/>
     <use xlink:href="#DejaVuSans-61" x="741.755859"/>
     <use xlink:href="#DejaVuSans-73" x="803.035156"/>
     <use xlink:href="#DejaVuSans-68" x="855.134766"/>
    </g>
   </g>
  </g>
 </g>
 <defs>
  <clipPath id="pd4ceb4155e">
   <rect x="3.6" y="3.6" width="673.2" height="633.6"/>
  </clipPath>
 </defs>
</svg>
